<svg xmlns="http://www.w3.org/2000/svg" width="554" height="332" viewBox="0 0 554 332"><defs><style>.a{fill:#f5f5f5;}.b{fill:#e0e0e0;}.c{fill:#ebebeb;}.d{fill:#fff;}.e{fill:#fafafa;}.f{fill:#ff6c91;}.g{fill:#bdbdbd;}.h{opacity:0.3;}.i{fill:#263238;}.j{fill:#ffbe9d;}.k{fill:#455a64;}.l{fill:#eb996e;}.m{fill:none;stroke:#4e585d;stroke-miterlimit:10;}.n{fill:#e8505b;}.o{fill:#cfb9d2;}.p{fill:#d0b4d4;}.q{fill:#b78876;}.r{fill:#aa6550;}</style></defs><g transform="translate(-0.02 -3.224)"><g transform="translate(7.093 64.747)"><path class="a" d="M614.88,419.238c-19.859-12.16-25.671-36.613-26.256-58.876-.1-3.713-.741-7.6.823-10.958s5.549-5.829,8.966-4.471c2.832,1.128,4.224,4.265,5.92,6.817a21.713,21.713,0,0,0,9.2,7.78c2.47,1.087,5.4,1.647,7.649.231,3.1-1.96,3.2-6.4,2.956-10.086q-.675-10.3-1.367-20.583c-.247-3.689-.486-7.451.453-11.024s3.293-6.974,6.718-8.167,7.912.568,8.867,4.117c.4,1.482.189,3.063.387,4.586s1,3.17,2.47,3.516,2.914-.823,3.952-1.943c3.582-3.952,5.87-8.9,7.995-13.824s4.174-9.938,7.41-14.211,7.8-7.772,13.058-8.39,11.09,2.3,12.737,7.41-1.062,10.58-4.117,14.984a82.417,82.417,0,0,1-16.154,17.372,6.711,6.711,0,0,0-2.684,3.293c-.65,2.47,1.82,4.808,4.3,5.467,2.807.749,5.763.288,8.67.453s6.084,1.243,7.336,3.894c1.737,3.68-1.177,7.822-4.117,10.6a70.668,70.668,0,0,1-20.147,13.289c-2.651,1.161-5.459,2.206-7.525,4.24s-3.194,5.434-1.721,7.953,4.94,3.145,7.731,2.47,5.261-2.4,7.912-3.582c4.94-2.215,11.526-2.264,15.026,1.918,2.305,2.75,2.742,6.751,1.869,10.25a26.866,26.866,0,0,1-5.047,9.452c-7.542,10.02-17.479,18.319-28.989,23.1s-22.337,6.587-34.283,2.98" transform="translate(-143.238 -151.487)"/><path class="b" d="M626.51,405.557a331.634,331.634,0,0,1,10.967-36.375l3.367-9.386c1.112-3.079,2.215-6.126,3.474-9.057a167.429,167.429,0,0,1,8.233-16.359c2.865-5.072,5.763-9.789,8.513-14.169s5.409-8.423,7.978-12a130.374,130.374,0,0,1,13.371-15.956c1.721-1.754,3.1-3.071,4.043-3.952l1.087-1a3.762,3.762,0,0,1,.379-.321,4.47,4.47,0,0,1-.329.37l-1.037,1.046c-.914.914-2.264,2.256-3.952,4.034A138.9,138.9,0,0,0,669.43,308.5c-2.536,3.581-5.154,7.624-7.887,12.02s-5.607,9.114-8.448,14.186a167.327,167.327,0,0,0-8.151,16.31c-1.251,2.9-2.338,5.928-3.45,9.015s-2.223,6.216-3.359,9.378a339.206,339.206,0,0,0-11,36.284" transform="translate(-149.969 -152.074)"/><path class="b" d="M646.69,355.744a7.934,7.934,0,0,1-.453-1.548c-.255-1-.576-2.47-.947-4.3-.741-3.639-1.6-8.7-2.52-14.285s-1.844-10.629-2.635-14.243c-.4-1.811-.733-3.293-.972-4.281a7.744,7.744,0,0,1-.3-1.589,7.194,7.194,0,0,1,.56,1.515c.321.988.724,2.47,1.177,4.24.922,3.606,1.927,8.645,2.849,14.243s1.7,10.5,2.322,14.309c.288,1.721.535,3.17.733,4.331a7.229,7.229,0,0,1,.189,1.605Z" transform="translate(-152.151 -157.111)"/><path class="b" d="M695.246,350.147a11.1,11.1,0,0,1-1.885.338c-1.2.181-2.956.436-5.113.823-4.314.733-10.242,1.951-16.713,3.581s-12.276,3.376-16.466,4.759c-2.083.667-3.754,1.26-4.94,1.647a9.4,9.4,0,0,1-1.828.56,10.86,10.86,0,0,1,1.737-.823c1.128-.478,2.783-1.136,4.849-1.869,4.117-1.5,9.929-3.293,16.466-4.94a166.279,166.279,0,0,1,16.82-3.376c2.174-.321,3.936-.5,5.162-.6A9.33,9.33,0,0,1,695.246,350.147Z" transform="translate(-153.819 -163.23)"/><path class="b" d="M621.242,417.2a2.727,2.727,0,0,1-.362-.552c-.247-.453-.543-1-.914-1.647-.823-1.449-1.869-3.581-3.178-6.224-2.61-5.294-5.994-12.72-9.616-20.962s-6.932-15.7-9.435-21.044l-2.964-6.34-.823-1.721a2.028,2.028,0,0,1-.239-.626,2.814,2.814,0,0,1,.354.56l.914,1.647c.823,1.457,1.877,3.581,3.186,6.233,2.61,5.294,5.994,12.72,9.616,20.962s6.932,15.693,9.435,21.036l2.981,6.315.823,1.729a2.122,2.122,0,0,1,.222.634Z" transform="translate(-144.174 -164.635)"/><path class="b" d="M688.937,400.61a2.529,2.529,0,0,1-.609.3l-1.795.725-6.587,2.593c-5.59,2.19-13.264,5.31-21.744,8.76s-16.2,6.5-21.835,8.579c-2.816,1.037-5.1,1.852-6.694,2.388l-1.836.6a2.284,2.284,0,0,1-.659.165,2.984,2.984,0,0,1,.609-.3l1.795-.716,6.587-2.594c5.59-2.19,13.272-5.31,21.752-8.76s16.195-6.479,21.8-8.579c2.816-1.046,5.1-1.861,6.694-2.4l1.836-.6A2.349,2.349,0,0,1,688.937,400.61Z" transform="translate(-150.087 -172.148)"/><path class="a" d="M630.06,139.456c-3.392,8.48-8.809,22.189-11.3,28.487a3.623,3.623,0,0,0,2.034,4.693l23.168,9.229a3.614,3.614,0,0,0,4.7-2.025L659.9,151.583a8.035,8.035,0,0,0-4.5-10.448h0l1.647-4.117L641.883,131l-1.564,3.9h-.058A8.036,8.036,0,0,0,630.06,139.456Z" transform="translate(-148.555 -124.514)"/><path class="b" d="M608.449,86.99l-.749,1.885,14.952,6.578.972-2.421Z" transform="translate(-115.327 -80.002)"/><path class="c" d="M2.462,0H17.685a2.47,2.47,0,0,1,2.47,2.47V6.521A1.589,1.589,0,0,1,18.566,8.11H1.589A1.589,1.589,0,0,1,0,6.521V2.47A2.47,2.47,0,0,1,2.47,0Z" transform="matrix(0.929, 0.37, -0.37, 0.929, 493.875, 0)"/><path class="b" d="M646.84,131.822a19.452,19.452,0,0,1,1.293-3.82,19.775,19.775,0,0,1,1.7-3.672,19.6,19.6,0,0,1-1.293,3.845A18.366,18.366,0,0,1,646.84,131.822Z" transform="translate(-153.561 -123.335)"/><path class="b" d="M649.27,132.792a19.605,19.605,0,0,1,1.293-3.828,18.377,18.377,0,0,1,1.7-3.664,19.6,19.6,0,0,1-1.293,3.828,18.372,18.372,0,0,1-1.7,3.664Z" transform="translate(-153.99 -123.507)"/><path class="b" d="M651.7,133.76a19.438,19.438,0,0,1,1.293-3.828,18.6,18.6,0,0,1,1.7-3.672,19.241,19.241,0,0,1-1.293,3.828A19.766,19.766,0,0,1,651.7,133.76Z" transform="translate(-154.42 -123.676)"/><path class="b" d="M654.13,134.73a18.611,18.611,0,0,1,1.292-3.828,18.585,18.585,0,0,1,1.7-3.672,19.337,19.337,0,0,1-1.3,3.828A19.764,19.764,0,0,1,654.13,134.73Z" transform="translate(-154.849 -123.848)"/><path class="b" d="M656.56,135.692a18.942,18.942,0,0,1,1.293-3.828A19.227,19.227,0,0,1,659.5,128.2a18.938,18.938,0,0,1-1.292,3.828,19.217,19.217,0,0,1-1.647,3.664Z" transform="translate(-155.278 -124.019)"/><path class="b" d="M659,136.66a19.336,19.336,0,0,1,1.3-3.828,19.773,19.773,0,0,1,1.688-3.672,18.622,18.622,0,0,1-1.293,3.828A18.6,18.6,0,0,1,659,136.66Z" transform="translate(-155.709 -124.189)"/><path class="b" d="M661.41,137.63A19.233,19.233,0,0,1,662.7,133.8a19.751,19.751,0,0,1,1.7-3.672,19.434,19.434,0,0,1-1.293,3.828A18.6,18.6,0,0,1,661.41,137.63Z" transform="translate(-156.135 -124.36)"/><path class="b" d="M663.84,138.592a19.448,19.448,0,0,1,1.293-3.82,18.6,18.6,0,0,1,1.7-3.672,19.617,19.617,0,0,1-1.293,3.828A18.942,18.942,0,0,1,663.84,138.592Z" transform="translate(-156.564 -124.531)"/><rect class="c" width="23.399" height="15.478" rx="1.48" transform="matrix(0.929, 0.37, -0.37, 0.929, 484.091, 20.731)"/><path class="b" d="M649.726,170.021a2.281,2.281,0,0,1,.082-.247l.247-.675.963-2.544c.823-2.2,2.058-5.3,3.524-9.057l.091.222-19.068-7.55c-.058,0,.527-.222.28-.115h0v.049l-.041.107-.082.206-.165.412-.329.823c-.222.543-.436,1.087-.65,1.647-.428,1.079-.823,2.141-1.276,3.186l-2.4,6-.107-.255,13.634,5.533,3.919,1.647,1.054.445a3.783,3.783,0,0,1,.37.173l-.346-.115-1.029-.387-3.919-1.5-13.832-5.409-.181-.066.074-.189c.757-1.91,1.548-3.919,2.379-6.01.412-1.046.823-2.108,1.268-3.186.214-.543.428-1.087.65-1.647l.321-.823.173-.412.082-.206.041-.107v-.049h0l.288-.123,19.043,7.575.156.066-.066.156c-1.548,3.787-2.824,6.9-3.721,9.114l-1.037,2.47-.272.634Q649.742,170.037,649.726,170.021Z" transform="translate(-150.667 -127.835)"/><path class="b" d="M651.574,161.574a57.7,57.7,0,0,1-6.587-2.379,56.888,56.888,0,0,1-6.4-2.775,56.207,56.207,0,0,1,6.587,2.379,57.134,57.134,0,0,1,6.4,2.775Z" transform="translate(-152.103 -129.005)"/><path class="b" d="M650.514,164.244a55.61,55.61,0,0,1-6.587-2.379,58.573,58.573,0,0,1-6.4-2.775,56.811,56.811,0,0,1,6.586,2.379A57.74,57.74,0,0,1,650.514,164.244Z" transform="translate(-151.916 -129.477)"/><path class="b" d="M649.494,166.814a55.026,55.026,0,0,1-6.587-2.379,57.716,57.716,0,0,1-6.4-2.775,55.62,55.62,0,0,1,6.587,2.379A58.61,58.61,0,0,1,649.494,166.814Z" transform="translate(-151.736 -129.931)"/><path class="b" d="M659.3,141.563a66.894,66.894,0,0,1-7.138-2.61,68.526,68.526,0,0,1-6.99-3.013,65.22,65.22,0,0,1,7.146,2.61,67.786,67.786,0,0,1,6.982,3.013Z" transform="translate(-153.266 -125.387)"/><path class="d" d="M621.12,167.953a9.5,9.5,0,0,1,.461-1.367c.354-.93.823-2.165,1.4-3.664,1.194-3.087,2.873-7.336,4.759-12.021.947-2.338,1.844-4.569,2.676-6.587a14.164,14.164,0,0,1,3.005-5.006,6.315,6.315,0,0,1,3.5-1.787,4.705,4.705,0,0,1,1.078,0,1.378,1.378,0,0,1,.362.091,9.475,9.475,0,0,0-1.416.082,6.414,6.414,0,0,0-3.293,1.836,14.185,14.185,0,0,0-2.857,4.94c-.823,2.042-1.7,4.273-2.643,6.587-1.877,4.685-3.606,8.925-4.874,11.979l-1.523,3.606A8.495,8.495,0,0,1,621.12,167.953Z" transform="translate(-149.017 -125.661)"/><path class="d" d="M646.956,190.265a5.674,5.674,0,0,1-.906-.733c-.28-.255-.634-.552-1.054-.881s-.873-.733-1.424-1.12a40.113,40.113,0,0,0-3.927-2.6,42.158,42.158,0,0,0-5.179-2.47,42.627,42.627,0,0,0-5.491-1.737,40.018,40.018,0,0,0-4.635-.823c-.667-.1-1.276-.124-1.8-.173s-1-.066-1.367-.074a7,7,0,0,1-1.169-.091,5.765,5.765,0,0,1,1.169-.082h1.375a11.057,11.057,0,0,1,1.82.107,36.286,36.286,0,0,1,4.7.725,40.857,40.857,0,0,1,5.566,1.721,40.041,40.041,0,0,1,5.22,2.577,36.814,36.814,0,0,1,3.911,2.7c.535.4.988.823,1.392,1.177a13.277,13.277,0,0,1,1,.939,6.3,6.3,0,0,1,.8.84Z" transform="translate(-148.819 -133.078)"/><rect class="b" width="74.717" height="102.644" rx="2.41" transform="translate(0 82.468) rotate(-25.7)"/><rect class="e" width="66.376" height="95.538" transform="translate(4.712 82.628) rotate(-25.7)"/><path class="c" d="M99.018,198.828a8.118,8.118,0,0,0-8.5-.889l-1.836-3.614a5.574,5.574,0,0,0-7.41-2.61h0a5.582,5.582,0,0,0-2.61,7.459l1.836,3.812-1.276.642a8.143,8.143,0,0,0-4.487,7.163v1.894l26.042-12.531Zm-13.9.593a3.005,3.005,0,1,1,1.538-1.717A3.005,3.005,0,0,1,85.12,199.42Z" transform="translate(-51.612 -135.145)"/><path class="b" d="M82.944,225.329c.058.107-3.532,1.943-8.011,4.117a82.042,82.042,0,0,1-8.233,3.7c-.082-.107,3.532-1.943,8.011-4.117A86.04,86.04,0,0,1,82.944,225.329Z" transform="translate(-50.193 -141.179)"/><path class="b" d="M76.153,233.56a22,22,0,0,1-3.812,2.075,21.793,21.793,0,0,1-4,1.647,22.231,22.231,0,0,1,3.837-2.034,22.987,22.987,0,0,1,3.977-1.688Z" transform="translate(-50.483 -142.634)"/><path class="b" d="M118.875,220.55c.049.1-10.012,5.055-22.477,11.049S73.789,242.376,73.74,242.3s10.012-5.088,22.444-11.09S118.825,220.443,118.875,220.55Z" transform="translate(-51.437 -140.335)"/><path class="b" d="M121.395,225.77c.049.107-10.012,5.055-22.477,11.057S76.309,247.6,76.26,247.53s10-5.055,22.477-11.057S121.329,225.663,121.395,225.77Z" transform="translate(-51.882 -141.257)"/><path class="b" d="M123.9,231c.058.107-10.012,5.055-22.468,11.057s-22.608,10.777-22.666,10.7S88.782,247.7,101.247,241.7,123.855,230.893,123.9,231Z" transform="translate(-52.326 -142.181)"/><path class="b" d="M126.425,236.23c.049.107-10.012,5.055-22.477,11.057s-22.608,10.769-22.658,10.7,10.012-5.055,22.477-11.049S126.375,236.123,126.425,236.23Z" transform="translate(-52.771 -143.105)"/><path class="b" d="M128.945,241.45c.049.107-10.012,5.063-22.477,11.057s-22.608,10.777-22.658,10.7,10.036-5.088,22.468-11.09S128.887,241.351,128.945,241.45Z" transform="translate(-53.216 -144.027)"/><path class="b" d="M131.455,246.68c.049.107-10.012,5.055-22.469,11.057s-22.617,10.777-22.666,10.7,10.012-5.055,22.477-11.057S131.405,246.573,131.455,246.68Z" transform="translate(-53.66 -144.951)"/><path class="b" d="M111.157,264.59a4.166,4.166,0,0,1-.823.5l-2.388,1.227c-2.025,1.013-4.841,2.4-7.953,3.894s-5.953,2.84-8.011,3.787l-2.47,1.1a3.994,3.994,0,0,1-.922.346,5.138,5.138,0,0,1,.823-.5l2.388-1.219c2.025-1.021,4.841-2.4,7.953-3.9s5.953-2.832,8.011-3.779l2.47-1.1A4.358,4.358,0,0,1,111.157,264.59Z" transform="translate(-54.061 -148.116)"/><path class="b" d="M123.1,206.35a19,19,0,0,1-3.524,1.935,18.762,18.762,0,0,1-3.7,1.548,19,19,0,0,1,3.524-1.935,18.765,18.765,0,0,1,3.7-1.548Z" transform="translate(-58.881 -137.826)"/><path class="b" d="M106.486,282a48.4,48.4,0,0,1-5.763,3.013,49.779,49.779,0,0,1-5.953,2.626,48.363,48.363,0,0,1,5.763-3.013A49.774,49.774,0,0,1,106.486,282Z" transform="translate(-55.153 -151.192)"/><path class="b" d="M109.223,286.5a50.04,50.04,0,0,1-5.862,3.054,50.594,50.594,0,0,1-6.051,2.676,51.618,51.618,0,0,1,5.862-3.063,51.266,51.266,0,0,1,6.051-2.668Z" transform="translate(-55.601 -151.987)"/><path class="b" d="M148.784,261.39a11.277,11.277,0,0,1-2.733,1.556,11.528,11.528,0,0,1-2.931,1.169,12,12,0,0,1,2.742-1.556,11.873,11.873,0,0,1,2.923-1.169Z" transform="translate(-63.695 -147.551)"/><path class="b" d="M151.054,265.55a23.228,23.228,0,0,1-5.664,2.725,11.275,11.275,0,0,1,2.733-1.556A11.53,11.53,0,0,1,151.054,265.55Z" transform="translate(-64.096 -148.286)"/><path class="b" d="M106.365,294.68a11.031,11.031,0,0,1-2.643,1.507,11.115,11.115,0,0,1-2.832,1.128,11.214,11.214,0,0,1,2.643-1.548A11.013,11.013,0,0,1,106.365,294.68Z" transform="translate(-56.234 -153.432)"/><path class="b" d="M154.02,270.42a6.1,6.1,0,0,1-1.951,1.177,6.587,6.587,0,0,1-2.149.823,6.129,6.129,0,0,1,1.96-1.186A6.243,6.243,0,0,1,154.02,270.42Z" transform="translate(-64.896 -149.146)"/><path class="b" d="M105.87,307.524a1.44,1.44,0,0,1,.231-.173l.692-.461,2.659-1.7,9.559-6,.189-.124.082.206a5.426,5.426,0,0,1,.107,3.631,4.43,4.43,0,0,1-2.635,2.849,4.38,4.38,0,0,1-4.117-.453,3.828,3.828,0,0,1-1.359-4.01,3.548,3.548,0,0,1,.823-1.5,2.669,2.669,0,0,1,.313-.3,1.647,1.647,0,0,1,.37-.255.626.626,0,0,1,.576,0,1,1,0,0,1,.329.379,7.18,7.18,0,0,1,.823,3.046,7.1,7.1,0,0,1-.469,3.005,4.553,4.553,0,0,1-1.77,2.346,2.626,2.626,0,0,1-2.783-.058,4,4,0,0,1-1.647-2.067,9.625,9.625,0,0,1,0-4.652l.049-.313.214.239a6.5,6.5,0,0,1,1.573,3.549,6.982,6.982,0,0,1-.28,2.923,6.225,6.225,0,0,1-.823,1.647c-.132.173-.239.288-.313.37s-.107.123-.115.115a7.666,7.666,0,0,0,1.1-2.19,7.039,7.039,0,0,0,.2-2.84,6.216,6.216,0,0,0-1.556-3.376l.263-.074a9.262,9.262,0,0,0,0,4.479,3.615,3.615,0,0,0,1.507,1.861,2.239,2.239,0,0,0,2.379.041,4.223,4.223,0,0,0,1.6-2.149,6.9,6.9,0,0,0,.428-2.849,6.784,6.784,0,0,0-.823-2.857.511.511,0,0,0-.173-.222.181.181,0,0,0-.181,0,2.025,2.025,0,0,0-.535.444,3.1,3.1,0,0,0-.692,1.309,3.409,3.409,0,0,0,1.2,3.565,3.977,3.977,0,0,0,3.672.412,4.034,4.034,0,0,0,2.4-2.585,5.014,5.014,0,0,0-.074-3.367l.272.091-9.641,5.87-2.717,1.647-.716.412A1.092,1.092,0,0,1,105.87,307.524Z" transform="translate(-57.114 -154.206)"/><path class="b" d="M155.63,283.224a2.47,2.47,0,0,1-.132.774,3.293,3.293,0,0,1-.379.873,1.844,1.844,0,0,1-1.029.823,1.276,1.276,0,0,1-.823,0,1.647,1.647,0,0,1-.692-.535,15.641,15.641,0,0,1-.922-1.564l-2.017-3.771.37-.082c-.066,1.885-.132,3.944-.214,6.1a13.317,13.317,0,0,1-.058,1.523v.823l-.371-.766c-1.128-2.313-2.174-4.479-3.1-6.356h.346a21.926,21.926,0,0,0-.823,5.763c0,1.408.091,2.206.049,2.215a1.9,1.9,0,0,1-.124-.576,16.3,16.3,0,0,1-.14-1.647,20.082,20.082,0,0,1,.642-5.837l.123-.478.214.445,3.153,6.331-.412.082a13.684,13.684,0,0,1,.058-1.523c.091-2.157.173-4.215.247-6.1V279l.338.651c.725,1.358,1.391,2.626,1.992,3.763a16.446,16.446,0,0,0,.864,1.556,1.1,1.1,0,0,0,1.194.5,2.108,2.108,0,0,0,1.342-1.466,6.208,6.208,0,0,1,.3-.782Z" transform="translate(-64.127 -150.662)"/><path class="b" d="M154.381,280.389c.066.091-3.334,2.519-7.591,5.417s-7.764,5.162-7.83,5.063,3.293-2.519,7.591-5.417S154.315,280.29,154.381,280.389Z" transform="translate(-62.96 -150.907)"/><path class="b" d="M160.311,281.26a64.917,64.917,0,0,1-5.566,5.063,65.544,65.544,0,0,1-5.846,4.742A66.561,66.561,0,0,1,154.466,286,65.547,65.547,0,0,1,160.311,281.26Z" transform="translate(-64.716 -151.061)"/></g><g transform="translate(197.541 3.224)"><path class="f" d="M511.488,64.778c-.889-7.212-6.99-13.939-14.26-13.939a15.934,15.934,0,0,0-11.3,5.368,30.143,30.143,0,0,0-2.873,3.4,29.341,29.341,0,0,0-2.141-3.894,15.91,15.91,0,0,0-10.02-7.492c-7.122-1.424-14.425,3.96-16.722,10.86s-.387,14.63,3.392,20.838,10.275,14.318,22.23,18.344c8.233-1.062,19.315-8.381,24.239-13.725S512.352,71.982,511.488,64.778Z" transform="translate(-309.412 -47.991)"/><path class="e" d="M509.047,81.091a1.064,1.064,0,0,1-.239,0l-.7-.049-2.692-.222-9.88-.906.181-.107c-1.194,3.1-2.585,6.743-4.117,10.7l-.247.642-.165-.675c-1.26-5.2-2.659-11.041-4.117-17.191-.453-1.9-.906-3.779-1.342-5.607l.42.082-7.542,10.374-.074.1h-.124l-17.356-1.811-4.94-.543-1.3-.165a1.753,1.753,0,0,1-.445-.082,2.348,2.348,0,0,1,.453,0l1.3.091,4.94.428L478.436,77.8l-.189.082,7.509-10.39.3-.42.115.5c.445,1.828.889,3.7,1.35,5.607l4.117,17.2h-.412c1.556-3.977,2.98-7.608,4.2-10.7l.041-.124h.132l9.88,1.054,2.676.313.7.091A.823.823,0,0,1,509.047,81.091Z" transform="translate(-309.621 -51.362)"/><rect class="f" width="5.434" height="24.362" transform="translate(17.85 61.798)"/><rect class="f" width="5.434" height="24.362" transform="translate(8.381 76.692) rotate(-90)"/><path class="d" d="M319.356,133.527a2.765,2.765,0,0,1-.041-.329c0-.239-.041-.56-.066-.963a3.615,3.615,0,0,0-.049-.708c-.049-.255-.082-.543-.132-.823a14.548,14.548,0,0,0-.428-2.091,19.349,19.349,0,0,0-2.256-5.368,20.114,20.114,0,0,0-24.181-8.587,20.5,20.5,0,0,0-2.626,1.153,21.209,21.209,0,0,0-2.47,1.589,22.878,22.878,0,0,0-2.281,1.935,23.347,23.347,0,0,0-1.968,2.33,19.643,19.643,0,0,0-2.873,5.533,19.916,19.916,0,0,0,0,12.687,19.531,19.531,0,0,0,2.873,5.533,21.617,21.617,0,0,0,1.968,2.33,21.925,21.925,0,0,0,2.281,1.943,21.214,21.214,0,0,0,2.47,1.589,21.722,21.722,0,0,0,2.626,1.153,20.18,20.18,0,0,0,24.181-8.579,19.281,19.281,0,0,0,2.256-5.376,14.237,14.237,0,0,0,.428-2.083c.049-.313.107-.593.132-.823a6.511,6.511,0,0,1,.049-.708c0-.412.049-.725.066-.963a2.474,2.474,0,0,1,.041-.329,1.958,1.958,0,0,1,0,.329v1.68a7.53,7.53,0,0,1-.107.823,15.186,15.186,0,0,1-.4,2.108,19.381,19.381,0,0,1-2.215,5.459,20.459,20.459,0,0,1-24.543,8.818,19.883,19.883,0,0,1-9.534-7.13A19.661,19.661,0,0,1,279.622,140a21.841,21.841,0,0,1-1.062-6.48,22.1,22.1,0,0,1,1.062-6.471,19.824,19.824,0,0,1,2.939-5.648,23.229,23.229,0,0,1,2.009-2.379,23.777,23.777,0,0,1,2.33-1.968,20.337,20.337,0,0,1,29.656,6.043,19.439,19.439,0,0,1,2.215,5.45,15.527,15.527,0,0,1,.4,2.116c0,.3.091.593.107.823v1.68A2.044,2.044,0,0,1,319.356,133.527Z" transform="translate(-278.56 -59.487)"/></g><g transform="translate(347.629 55.2)"><path class="g" d="M602.38,323.316s24.09-5.763,24.889-6.76l-19.817-51.046a37.338,37.338,0,0,0-23.111-22.526,65.48,65.48,0,0,0-23.4-3.614L527.49,237.6a66.252,66.252,0,0,0-26.4,7.3,53.26,53.26,0,0,0-24.774,27.31l-15,37.469,37.873,7.912,1.441,40.26-5.706,55.55H599.375l-.724-88.046h0Z" transform="translate(-461.32 -133.8)"/><g class="h" transform="translate(133.74 176.082)"><path class="d" d="M651.843,325.4c0,.115-6.216,2.157-14,4.553s-14.054,4.257-14.087,4.117,6.208-2.157,14-4.561S651.811,325.284,651.843,325.4Z" transform="translate(-623.76 -325.394)"/></g><path class="i" d="M520.586,278.18a5.564,5.564,0,0,1-.642-.881c-.379-.576-.963-1.4-1.721-2.388a39.774,39.774,0,0,0-2.84-3.293A43.634,43.634,0,0,0,511.463,268a45.725,45.725,0,0,0-4.372-3.079,42.1,42.1,0,0,0-3.845-2.067c-1.12-.535-2.05-.93-2.7-1.186a4.716,4.716,0,0,1-1-.445,6.327,6.327,0,0,1,1.054.288,29.347,29.347,0,0,1,2.766,1.062,38.16,38.16,0,0,1,3.927,2.009,42.134,42.134,0,0,1,4.43,3.079,40.182,40.182,0,0,1,3.944,3.688,36.75,36.75,0,0,1,2.791,3.409,26.04,26.04,0,0,1,1.647,2.47,4.938,4.938,0,0,1,.478.955Z" transform="translate(-468.074 -137.973)"/><path class="i" d="M517.9,296.62c.115,0-1.054,12.3-2.61,27.45s-2.915,27.425-3.03,27.408,1.046-12.3,2.61-27.45S517.807,296.6,517.9,296.62Z" transform="translate(-470.318 -144.228)"/><path class="i" d="M617.751,265.514a23.364,23.364,0,0,1-.535-2.47,46.382,46.382,0,0,0-1.647-5.9,45.579,45.579,0,0,0-2.47-5.615,23.82,23.82,0,0,1-1.169-2.264,3.933,3.933,0,0,1,.436.535c.255.362.6.906,1,1.581a34.991,34.991,0,0,1,2.6,5.615,34.2,34.2,0,0,1,1.556,5.986c.124.782.2,1.416.23,1.861A2.4,2.4,0,0,1,617.751,265.514Z" transform="translate(-487.929 -135.862)"/><path class="i" d="M621.261,314.5a7.3,7.3,0,0,1-.2-1.21c-.107-.774-.231-1.91-.371-3.293-.272-2.8-.56-6.685-.708-10.975s-.14-8.192-.066-11.008c.041-1.408.082-2.544.132-3.293a6.07,6.07,0,0,1,.124-1.218,7.941,7.941,0,0,1,.049,1.218v3.31c0,2.808.041,6.694.189,10.983s.387,8.159.585,10.967c.091,1.342.164,2.47.23,3.293A6.315,6.315,0,0,1,621.261,314.5Z" transform="translate(-489.332 -141.91)"/><path class="d" d="M554.466,312.314a171.645,171.645,0,0,1-26.346-.494v3.441h26.346Z" transform="translate(-473.122 -146.913)"/><g class="h" transform="translate(49.449 107.035)"><path class="d" d="M579.523,242.971a2.247,2.247,0,0,1,.107.519l.231,1.515c.165,1.334.4,3.293.585,5.763.4,4.94.741,11.979.823,20.287v.313l-.288-.132c-5.253-2.561-11.14-5.343-17.29-8.406l-29.944-14.984-9.057-4.586L522.22,242l-.626-.346a.917.917,0,0,1-.214-.124.9.9,0,0,1,.231.091l.65.3,2.47,1.194,9.106,4.462,30.043,14.869c6.126,3.063,12,5.854,17.29,8.431l-.28.173c-.09-8.291-.379-15.322-.708-20.27-.148-2.47-.346-4.421-.469-5.763-.074-.642-.132-1.153-.173-1.523a5.019,5.019,0,0,1-.016-.519Z" transform="translate(-521.38 -241.53)"/></g><g class="h" transform="translate(2.511 169.395)"><path class="d" d="M506.508,327.471a1.487,1.487,0,0,1-.436-.074l-1.227-.288-4.5-1.144c-3.8-.98-9.057-2.305-14.869-3.713s-11.1-2.626-14.927-3.5l-4.528-1.037-1.227-.3a2.063,2.063,0,0,1-.42-.132,1.6,1.6,0,0,1,.436,0l1.243.222c1.079.2,2.635.51,4.561.906,3.845.823,9.139,1.968,14.96,3.376s11.066,2.791,14.82,3.837c1.894.527,3.425.963,4.471,1.276l1.21.371A2.173,2.173,0,0,1,506.508,327.471Z" transform="translate(-464.37 -317.272)"/></g><path class="i" d="M586.37,235.708c0-.124,2.264,1.062,4.446,4.3a39.668,39.668,0,0,1,5.294,14,57.578,57.578,0,0,1,.963,8.233c0,1.268.058,2.47,0,3.6s-.074,2.174-.173,3.129-.2,1.8-.28,2.569-.231,1.391-.321,1.918a5.847,5.847,0,0,1-.4,1.647,6.275,6.275,0,0,1,.066-1.647l.173-1.927c.049-.766.1-1.647.148-2.56s0-1.984.074-3.1-.058-2.305-.1-3.549a64.279,64.279,0,0,0-1.013-8.069,43.917,43.917,0,0,0-4.94-13.807,18.934,18.934,0,0,0-2.742-3.491,15.937,15.937,0,0,1-1.2-1.243Z" transform="translate(-483.413 -133.465)"/><path class="i" d="M538.5,236a17.785,17.785,0,0,1-1.737,2.47,35.3,35.3,0,0,0-3.878,7.245,49.331,49.331,0,0,0-2.873,11.831c-.6,4.561-.823,9.666-1.194,15.009s-.288,10.432-.3,15.067,0,8.818,0,12.35-.091,6.364-.189,8.332a14.085,14.085,0,0,1-.3,3.046,14.345,14.345,0,0,1-.2-3.055c-.058-2-.124-4.833-.214-8.316s-.206-7.69-.272-12.35-.082-9.765.2-15.149.626-10.464,1.3-15.1a47.231,47.231,0,0,1,3.211-12.021,30.177,30.177,0,0,1,4.323-7.188A11.174,11.174,0,0,1,538.5,236Z" transform="translate(-472.977 -133.518)"/><path class="i" d="M603.619,313.055a15.647,15.647,0,0,1-.164-2.717c-.049-1.754-.091-4.29-.124-7.41,0-1.573,0-3.293-.049-5.121s0-3.82-.107-5.846a9.674,9.674,0,0,0-2.1-5.763,7.937,7.937,0,0,0-5.763-2.75,9.056,9.056,0,0,0-6.068,2.355,10.457,10.457,0,0,0-3.063,5.343c-.51,1.96-.724,3.927-1.029,5.763l-.823,5.055c-.494,3.087-.914,5.59-1.218,7.311a16.567,16.567,0,0,1-.56,2.668,15.373,15.373,0,0,1,.231-2.717c.206-1.737.527-4.248.947-7.352.214-1.556.453-3.252.7-5.072a52.873,52.873,0,0,1,.971-5.837,11.114,11.114,0,0,1,3.293-5.763,9.88,9.88,0,0,1,6.578-2.6,8.727,8.727,0,0,1,6.422,3.054,10.374,10.374,0,0,1,2.256,6.241c.123,2.108,0,4.059,0,5.9s-.041,3.557-.066,5.121c0,3.129-.09,5.664-.148,7.41A16.741,16.741,0,0,1,603.619,313.055Z" transform="translate(-482.739 -141.751)"/><path class="i" d="M597.8,273.87c-.272,2.882-1.194,6.117-3.194,8.233a11.578,11.578,0,0,1,5.31.1c-1.252-2.47-1.449-5.516-1.416-8.307" transform="translate(-484.869 -140.208)"/><path class="i" d="M604.375,294.678a25.186,25.186,0,0,0-1.3-3.293,10.238,10.238,0,0,0-2.4-2.865,8.891,8.891,0,0,0-4.051-1.927,8.645,8.645,0,0,0-4.462.445,9.739,9.739,0,0,0-3.186,1.927,24.487,24.487,0,0,0-2.264,2.692c-.14-.074.247-1.457,1.844-3.129a9.585,9.585,0,0,1,3.293-2.223,9.058,9.058,0,0,1,4.891-.56,9.222,9.222,0,0,1,4.413,2.174,9.83,9.83,0,0,1,2.421,3.186A5.975,5.975,0,0,1,604.375,294.678Z" transform="translate(-483.47 -142.286)"/><path class="j" d="M632.469,396.905c4.94,0,9.287-3.532,11.592-7.854s2.9-9.353,3.12-14.252a115.683,115.683,0,0,0-4.709-38.449L621,340.1l5.854,57.871Z" transform="translate(-489.532 -151.247)"/><path class="i" d="M491.33,355.891l69.966-2.552,16.969-81.978-73.7,4.092Z" transform="translate(-435.303 -103.028)"/><path class="k" d="M573.11,317.833l1.054-2.091,5.582-.4s1.416-3.664,9.4-4.042c7.146-.329,7.41,3.293,7.41,3.293h3.853v1.754Z" transform="translate(-481.071 -146.817)"/><path class="j" d="M616.047,386.173l5.3-1.54a6.472,6.472,0,0,1,3.071-.14h0a6.472,6.472,0,0,1,3.293,1.737c1.754,1.729,4.586,4.586,4.989,5.442.593,1.243.593,3.4,0,4.191s1.3,4.882,1.062,6.241A8.5,8.5,0,0,1,632.7,405.4c-.478.568,0,2.511-1.186,3.977a19.644,19.644,0,0,1-2.248,2.371s-14.573.683-15.989,0a21.337,21.337,0,0,1-3.911-3.293s-1.3-2.379.708-2.61l-8.291-3.17a1.976,1.976,0,0,1-1.2-2.47,1.383,1.383,0,0,1,.733-.823s-3.721-1.177-4.586-1.556c-1.721-.757-2.371-4.759,1.194-4.248,1.877.272,4.421.823,4.421.823s-1.359-2.207.543-3.524c1.153-.823,6.339.173,6.339.173l6.817-4.866Z" transform="translate(-484.998 -159.732)"/><path class="l" d="M620.954,412.6a12.259,12.259,0,0,1-4.306-.642,10.7,10.7,0,0,1-3.968-1.795c.058-.1,1.795.749,4.117,1.383S620.971,412.5,620.954,412.6Z" transform="translate(-488.062 -164.286)"/><path class="l" d="M616,406.095a56.194,56.194,0,0,1-6.76-1.507,54.213,54.213,0,0,1-6.653-1.918A112.741,112.741,0,0,1,616,406.095Z" transform="translate(-486.279 -162.964)"/><path class="l" d="M617.9,399.844a127.884,127.884,0,0,1-14.457-3.384A127.891,127.891,0,0,1,617.9,399.844Z" transform="translate(-486.429 -161.867)"/><path class="l" d="M624.723,392.51a9.537,9.537,0,0,1-1.869.6l-2.058.527-1.219.3a4.654,4.654,0,0,1-1.4.132,7.765,7.765,0,0,1-1.367-.222l-1.227-.28-2.058-.494a9.045,9.045,0,0,1-1.886-.568,8.835,8.835,0,0,1,1.943.272l2.091.4a24.715,24.715,0,0,0,2.528.461,9.238,9.238,0,0,0,2.47-.387l2.083-.445A9.167,9.167,0,0,1,624.723,392.51Z" transform="translate(-487.878 -161.169)"/><path class="l" d="M628.412,395.9c.049,0,.247.148.4.543a2.413,2.413,0,0,1,.058,1.647,2.47,2.47,0,0,1-.971,1.309c-.354.231-.618.263-.642.214a4.16,4.16,0,0,0,1.2-1.647A4.578,4.578,0,0,0,628.412,395.9Z" transform="translate(-490.637 -161.768)"/><path class="l" d="M628.261,402.739c.1-.049.428.535.379,1.334s-.428,1.35-.527,1.284.066-.609.1-1.309S628.138,402.78,628.261,402.739Z" transform="translate(-490.783 -162.976)"/><path class="l" d="M628.325,410.159c.107-.041.329.354.222.873s-.453.823-.544.716.049-.4.124-.823S628.209,410.192,628.325,410.159Z" transform="translate(-490.764 -164.287)"/><path class="l" d="M628.431,391.929a4.5,4.5,0,0,1-1.4-.066l-1.5-.2a5.845,5.845,0,0,0-1.787-.09,4.454,4.454,0,0,0-1.581.716c-.461.3-.823.65-1.243.873a2.363,2.363,0,0,1-1.342.461c0-.074.5-.214,1.177-.716a7.172,7.172,0,0,1,2.931-1.754,5.154,5.154,0,0,1,1,0,4.868,4.868,0,0,1,.9.148l1.49.28a4.939,4.939,0,0,1,1.35.346Z" transform="translate(-489.281 -160.926)"/><path class="l" d="M638.207,405.643a7.179,7.179,0,0,1,.37-1.013,7.147,7.147,0,0,0,.272-4.94c-.165-.725-.5-1.449-.683-2.314a7.251,7.251,0,0,1,.181-2.692,4.775,4.775,0,0,0-.477-2.643,12.363,12.363,0,0,0-1.515-2.346c-.568-.716-1.12-1.416-1.647-2.042a9.767,9.767,0,0,0-3.45-2.692,5.55,5.55,0,0,0-2.9-.445c-.692.1-1.054.28-1.07.247s.082-.066.255-.156a4.05,4.05,0,0,1,.823-.255,5.558,5.558,0,0,1,3.038.321,9.788,9.788,0,0,1,3.623,2.717c.576.634,1.136,1.325,1.713,2.042a12.96,12.96,0,0,1,1.572,2.47,5.111,5.111,0,0,1,.5,2.882,7.416,7.416,0,0,0-.206,2.561c.157.823.486,1.556.642,2.3a8.228,8.228,0,0,1,.272,2.116,7.541,7.541,0,0,1-.733,2.964,4.114,4.114,0,0,1-.585.922Z" transform="translate(-490.642 -159.713)"/><path class="j" d="M561.438,355.2l-57.443,9.122,2.552-29.977L474.6,328.17l-3.886,44.385-.675,10.176a19.883,19.883,0,0,0,8.34,17.52h0a19.9,19.9,0,0,0,17.636,2.7l12.35-4.026,60.2-21.406" transform="translate(-462.853 -149.802)"/><path class="j" d="M615.819,353.058a1.646,1.646,0,0,0-1.646-1.918c-3.236,0-11.979,0-15.067.914-3.82,1.078-18.055,7.188-18.055,7.188l6.035,22.23,21.843.23s7.978-3.664,8.077-5.253a25.593,25.593,0,0,0-.2-2.972l2.412-1.293c3.59-2.272,1.284-6.644,1.284-6.644a5.307,5.307,0,0,0,2.6-3.886,3.886,3.886,0,0,0-1.927-3.68s.988-3.524-.823-4.471-4.94.263-4.94.263A1.274,1.274,0,0,0,615.819,353.058Z" transform="translate(-482.474 -153.86)"/><path class="l" d="M621.04,353.908a2.261,2.261,0,0,1-.675.239c-.436.123-1.087.263-1.885.4-1.646.288-3.837.527-6.3.823a51.037,51.037,0,0,0-6.241.955,11.607,11.607,0,0,0-2.47.823,2.337,2.337,0,0,1,.6-.387,10.6,10.6,0,0,1,1.811-.7,38.568,38.568,0,0,1,6.266-1.087c2.47-.263,4.7-.453,6.3-.659S621.015,353.851,621.04,353.908Z" transform="translate(-486.435 -154.348)"/><path class="l" d="M627.367,359.33a5.254,5.254,0,0,1-1.54.782,24.489,24.489,0,0,1-3.977,1.161c-1.589.329-3.03.543-4.117.683a7.079,7.079,0,0,1-1.7.132,51.476,51.476,0,0,1,5.7-1.235,40.874,40.874,0,0,0,3.969-1.021,9.775,9.775,0,0,1,1.671-.5Z" transform="translate(-488.654 -155.307)"/><path class="l" d="M626.943,368.727a23.685,23.685,0,0,1-9.583,2.174c0-.132,2.174-.4,4.808-1S626.943,368.6,626.943,368.727Z" transform="translate(-488.889 -156.965)"/><path class="l" d="M625.83,376.75a16.467,16.467,0,0,1-7.41,1.787q3.711-.87,7.41-1.787Z" transform="translate(-489.076 -158.385)"/><path class="l" d="M612.86,371.5c0,.049-.222.189-.667.23a2.47,2.47,0,0,1-1.647-.453,2.529,2.529,0,0,1-.98-1.408c-.107-.436-.049-.708,0-.708a3.57,3.57,0,0,0,1.219,1.762A4.53,4.53,0,0,0,612.86,371.5Z" transform="translate(-487.501 -157.044)"/><path class="l" d="M612.5,379.9c0,.115-.823.165-1.606-.5s-.823-1.54-.683-1.531.338.659.972,1.21S612.5,379.78,612.5,379.9Z" transform="translate(-487.614 -158.583)"/><path class="l" d="M609.656,363.061c.049.115-.552.3-1.112-.124s-.543-1.054-.42-1.037.263.4.675.7S609.6,362.946,609.656,363.061Z" transform="translate(-487.245 -155.761)"/><path class="l" d="M581.06,359.222l.173-.1.518-.239,2.026-.9c1.778-.766,4.355-1.877,7.624-3.219,1.647-.659,3.425-1.391,5.4-2.124a20.433,20.433,0,0,1,3.129-.972,33.113,33.113,0,0,1,3.474-.428c2.388-.189,4.94-.272,7.558-.3h3.022a2.166,2.166,0,0,1,1.087.231,1.745,1.745,0,0,1,.93,1.984.609.609,0,0,1-.247.28l-.247.156-.494.231a8.111,8.111,0,0,1-1.037.362.214.214,0,0,1-.255-.148.206.206,0,0,1,.148-.255,22.478,22.478,0,0,1,2.717-.609,9.879,9.879,0,0,1,2.882-.1,2.65,2.65,0,0,1,1.416.609,2.585,2.585,0,0,1,.7,1.391,7.258,7.258,0,0,1-.189,3.005l-.107-.255a4.043,4.043,0,0,1,1.21,1.07,4.29,4.29,0,0,1,.626,3.894,5.762,5.762,0,0,1-2.47,2.989l.082-.288a6.807,6.807,0,0,1,.692,3.8,4.371,4.371,0,0,1-2.058,3.112h0l-2.4,1.293.107-.206c.058.576.115,1.153.156,1.721a5.366,5.366,0,0,0,.041.823v.436a1.135,1.135,0,0,1-.173.469,5.27,5.27,0,0,1-1.243,1.186c-.445.329-.906.626-1.358.906a59.615,59.615,0,0,1-5.426,2.84H609l-15.9-.247-4.4-.091-1.153-.041a1.8,1.8,0,0,1-.4,0,2.055,2.055,0,0,1,.4,0H593.1l15.9.091h-.074a58,58,0,0,0,5.376-2.849c.445-.272.9-.568,1.326-.889a4.748,4.748,0,0,0,1.136-1.079.706.706,0,0,0,.123-.288v-1.227c-.041-.56-.1-1.128-.165-1.7a.19.19,0,0,1,.107-.2l2.4-1.3h0a3.961,3.961,0,0,0,1.869-2.824,6.464,6.464,0,0,0-.659-3.549.214.214,0,0,1,.091-.28,5.368,5.368,0,0,0,2.305-2.75,3.878,3.878,0,0,0-.568-3.507,3.547,3.547,0,0,0-1.062-.939.222.222,0,0,1-.107-.247,6.933,6.933,0,0,0,.181-2.807,1.861,1.861,0,0,0-1.762-1.647,9.349,9.349,0,0,0-2.75.1,20.491,20.491,0,0,0-2.668.585l-.107-.4a7.1,7.1,0,0,0,.972-.329c.156-.066.321-.14.461-.214s.288-.222.337-.206a1.753,1.753,0,0,0-.132-.864,1.515,1.515,0,0,0-.634-.634,1.714,1.714,0,0,0-.9-.181h-3.013c-2.635,0-5.162.1-7.542.272a34.1,34.1,0,0,0-3.433.4,21.422,21.422,0,0,0-3.087.939c-1.968.716-3.771,1.433-5.409,2.075l-7.665,3.1-2.05.823-.535.214Z" transform="translate(-482.475 -153.824)"/><path class="l" d="M510.052,372a22.682,22.682,0,0,0-4.24,3.664,22.334,22.334,0,0,0-2.832,4.841,4.643,4.643,0,0,1,.428-1.647,12.943,12.943,0,0,1,5.129-6.167A4.765,4.765,0,0,1,510.052,372Z" transform="translate(-468.68 -157.546)"/><path class="j" d="M591.17,150.511A29.014,29.014,0,0,0,562.3,123.77H560.8c-16.2.914-24.486,15.182-23.119,31.36l2.791,64.837a2.939,2.939,0,0,0,1.646,2.519l36.374,17.067-1.054-34.028s15.586-2.388,15.808-17.965C593.311,180.044,592.257,164.533,591.17,150.511Z" transform="translate(-474.785 -113.689)"/><path class="l" d="M581.734,221.71a37.725,37.725,0,0,1-20.394-6.01s4.775,11.214,20.32,9.88Z" transform="translate(-478.991 -129.931)"/><path class="i" d="M595.048,167.567a2.231,2.231,0,0,1-2.149,2.239,2.116,2.116,0,0,1-2.289-2.009,2.215,2.215,0,0,1,2.141-2.239,2.132,2.132,0,0,1,2.3,2.009Z" transform="translate(-484.162 -121.071)"/><path class="i" d="M596.713,165c-.28.288-1.959-.963-4.355-.963s-4.117,1.2-4.4.906c-.132-.132.148-.65.914-1.21a6.134,6.134,0,0,1,3.532-1.079,5.829,5.829,0,0,1,3.466,1.128C596.6,164.338,596.845,164.865,596.713,165Z" transform="translate(-483.688 -120.558)"/><path class="i" d="M566.448,168.448a2.215,2.215,0,0,1-2.149,2.239,2.124,2.124,0,0,1-2.289-2.009,2.223,2.223,0,0,1,2.149-2.239,2.124,2.124,0,0,1,2.289,2.009Z" transform="translate(-479.11 -121.227)"/><path class="i" d="M568.114,165.5c-.272.288-1.959-.955-4.347-.955s-4.117,1.194-4.413.9c-.124-.132.156-.65.922-1.2a6.076,6.076,0,0,1,3.532-1.087,5.9,5.9,0,0,1,3.458,1.128C568.015,164.829,568.271,165.356,568.114,165.5Z" transform="translate(-478.635 -120.647)"/><path class="i" d="M580.3,183.281a16.345,16.345,0,0,1,3.886-.692c.609-.066,1.194-.181,1.293-.6a3.079,3.079,0,0,0-.4-1.811l-1.795-4.66c-2.47-6.587-4.306-12.078-4.034-12.177s2.47,5.2,5.006,11.831l1.721,4.685a3.522,3.522,0,0,1,.313,2.4,1.523,1.523,0,0,1-1.013.889,4.25,4.25,0,0,1-1.038.148C581.813,183.412,580.306,183.421,580.3,183.281Z" transform="translate(-482.15 -120.68)"/><path class="i" d="M571.914,189.56c.387,0,.387,2.569,2.61,4.421s4.981,1.564,5.006,1.927c0,.165-.617.51-1.787.535a6.463,6.463,0,0,1-4.182-1.466,5.631,5.631,0,0,1-2.017-3.7C571.42,190.186,571.708,189.543,571.914,189.56Z" transform="translate(-480.789 -125.313)"/><path class="i" d="M568.455,154.2c-.239.65-2.626.338-5.434.675s-5.08,1.1-5.459.51c-.165-.28.23-.9,1.153-1.523a9.155,9.155,0,0,1,4.043-1.408,9.056,9.056,0,0,1,4.248.51C568.035,153.387,568.553,153.9,568.455,154.2Z" transform="translate(-478.317 -118.746)"/><path class="i" d="M595.8,156.556c-.428.535-2.075,0-4.059-.058s-3.656.354-4.042-.214c-.173-.272.1-.823.823-1.334a5.878,5.878,0,0,1,6.521.214C595.751,155.724,595.982,156.284,595.8,156.556Z" transform="translate(-483.639 -119.042)"/><path class="j" d="M538.312,175.753c-.263-.115-10.7-3.186-10.374,7.468s10.942,8.126,10.95,7.822S538.312,175.753,538.312,175.753Z" transform="translate(-473.089 -122.786)"/><path class="l" d="M537.233,187.855c-.049,0-.181.132-.494.288a1.861,1.861,0,0,1-1.383.074c-1.136-.387-2.141-2.141-2.248-4.059a6.218,6.218,0,0,1,.436-2.668,2.14,2.14,0,0,1,1.358-1.466.955.955,0,0,1,1.112.469c.148.3.091.51.14.527s.231-.181.132-.618a1.244,1.244,0,0,0-.445-.659,1.392,1.392,0,0,0-1.029-.239,2.61,2.61,0,0,0-1.894,1.7,6.3,6.3,0,0,0-.552,2.989c.132,2.149,1.293,4.117,2.84,4.52a1.976,1.976,0,0,0,1.647-.338C537.217,188.143,537.266,187.871,537.233,187.855Z" transform="translate(-473.87 -123.533)"/><path class="i" d="M546.057,134.459l44.393.98a20.237,20.237,0,0,0-6.521-7.542,34.638,34.638,0,0,0-20.106-7.237c-7.237-.132-21.983,8.694-27.227,13.684-4.2,3.993-4.166,7.451-4.166,7.451-.667,5.763,2.552,12.3,3.837,17.957.659,2.915,1.935,11.732,1.935,11.732h0c2.47,0,3.351-1.951,2.98-4.372l-.453-9.493s8.316-5.911,4.372-16.73C544.492,140.024,543.142,136.072,546.057,134.459Z" transform="translate(-473.868 -113.139)"/><path class="l" d="M560.278,178.191a.272.272,0,0,1-.28-.263.28.28,0,0,1,.2-.338.288.288,0,0,1,.321.239.28.28,0,0,1-.239.362Z" transform="translate(-478.753 -123.197)"/><path class="l" d="M565.827,176.93a.331.331,0,0,1-.329-.272.313.313,0,0,1,.2-.379.3.3,0,0,1,.321.28.3.3,0,0,1-.189.37Z" transform="translate(-479.724 -122.966)"/><path class="l" d="M569.57,176.816c-.148,0-.288-.156-.321-.4s.066-.445.214-.461.28.156.313.4S569.71,176.816,569.57,176.816Z" transform="translate(-480.387 -122.91)"/><path class="l" d="M563,181.738c-.14,0-.263-.074-.263-.165s.124-.173.263-.173.264.082.264.173S563.152,181.738,563,181.738Z" transform="translate(-479.238 -123.871)"/><path class="l" d="M568.091,180.513a.3.3,0,0,1-.049-.593.28.28,0,0,1,.288.272A.288.288,0,0,1,568.091,180.513Z" transform="translate(-480.127 -123.61)"/><path class="l" d="M594.6,177.4a.272.272,0,0,1-.313-.239.267.267,0,1,1,.519-.107.28.28,0,0,1-.206.346Z" transform="translate(-484.811 -123.061)"/><path class="l" d="M598.365,177.049a.338.338,0,1,1,.231-.354A.3.3,0,0,1,598.365,177.049Z" transform="translate(-485.454 -122.986)"/><path class="l" d="M591.263,177.515a.255.255,0,0,1-.3-.173.265.265,0,0,1,.519-.107A.255.255,0,0,1,591.263,177.515Z" transform="translate(-484.223 -123.098)"/><path class="l" d="M594.026,181.287a.313.313,0,1,1,.115-.387A.288.288,0,0,1,594.026,181.287Z" transform="translate(-484.681 -123.75)"/><path class="l" d="M597.317,180.679a.247.247,0,0,1-.2-.28.272.272,0,0,1,.51.14A.247.247,0,0,1,597.317,180.679Z" transform="translate(-485.312 -123.669)"/><path class="i" d="M537.095,133.323A13.124,13.124,0,0,1,550.21,117c2.075.082,4.117.667,6.192.445,3.845-.42,6.809-3.5,10.374-5a13.535,13.535,0,0,1,15.964,4.792c1.35,2.017,2.231,4.512,4.306,5.763,1.787,1.1,4.042,1,6.051,1.647a9.87,9.87,0,0,1,6.636,9.781,11.625,11.625,0,0,1-7.089,9.781,14.227,14.227,0,0,1-12.268-.823c-3.351-1.869-6.348-5.047-10.185-4.94-3.968.115-7.41,3.853-11.329,3.079-2.042-.4-3.614-1.976-5.113-3.425s-3.211-2.923-5.294-3.046-3.162,2.733-2.412,4.677l-8.949-6.414" transform="translate(-474.638 -111.526)"/><path class="k" d="M591.5,130.4a1.355,1.355,0,0,1-.074.156,4.347,4.347,0,0,1-.255.428,7.41,7.41,0,0,1-1.276,1.449,7.96,7.96,0,0,1-2.643,1.531,7.558,7.558,0,0,1-4.026.239,8.012,8.012,0,0,1-4.248-2.421c-1.21-1.326-1.935-3.112-3.063-4.676a6.175,6.175,0,0,0-2.149-1.943,6.29,6.29,0,0,0-2.948-.65,6.693,6.693,0,0,0-3.021.823,5.672,5.672,0,0,0-2.223,2.289c-.535.98-.922,2.05-1.564,3a3.672,3.672,0,0,1-2.849,1.729,5.54,5.54,0,0,1-3.1-.889,11.7,11.7,0,0,1-2.355-1.951c-1.375-1.383-2.725-2.766-4.4-3.137a5.6,5.6,0,0,0-4.462,1.046,7.657,7.657,0,0,0-2.47,3.03,12.725,12.725,0,0,0-.922,2.857c-.165.823-.239,1.449-.288,1.885a4.986,4.986,0,0,1-.1.667.593.593,0,0,1,0-.173c0-.115,0-.28,0-.5a15.457,15.457,0,0,1,.222-1.91,12.165,12.165,0,0,1,.823-2.923,7.863,7.863,0,0,1,2.47-3.178,5.862,5.862,0,0,1,4.718-1.144c1.82.387,3.228,1.836,4.594,3.2a11.74,11.74,0,0,0,2.289,1.877,5.137,5.137,0,0,0,2.865.823,3.293,3.293,0,0,0,2.519-1.548c.6-.889.988-1.951,1.54-2.964a6.085,6.085,0,0,1,2.4-2.47,7.13,7.13,0,0,1,3.219-.864,6.726,6.726,0,0,1,3.145.708,6.586,6.586,0,0,1,2.281,2.075c1.161,1.647,1.853,3.392,3.005,4.676a7.722,7.722,0,0,0,4.051,2.355,7.262,7.262,0,0,0,3.886-.173,7.9,7.9,0,0,0,2.61-1.424A9.962,9.962,0,0,0,591.5,130.4Z" transform="translate(-475.762 -113.745)"/><path class="k" d="M608.218,132a2.472,2.472,0,0,1,.181.823,6.915,6.915,0,0,1-.222,2.379,8.232,8.232,0,0,1-1.647,3.129,9.665,9.665,0,0,1-3.507,2.561,14.383,14.383,0,0,1-7.747.873,21.177,21.177,0,0,1-2.322-.461,2.848,2.848,0,0,1-.823-.28c0-.066,1.21.231,3.186.436a14.976,14.976,0,0,0,7.533-.963,9.594,9.594,0,0,0,3.384-2.421,8.308,8.308,0,0,0,1.647-2.964A9.446,9.446,0,0,0,608.218,132Z" transform="translate(-484.431 -115.143)"/><path class="m" d="M527.66,305.2" transform="translate(-473.041 -145.744)"/><path class="m" d="M527.66,326.34" transform="translate(-473.041 -149.479)"/><path class="b" d="M519.64,337.3a8.9,8.9,0,0,0,1.861,4.611,6.007,6.007,0,0,0,4.446,2.363,6.784,6.784,0,0,0,5.985-3.005c1.9-3.013,2.363-9.3.823-13.009-1.046-2.552-3.4-4.94-6.158-5a6.811,6.811,0,0,0-6.669,5.187" transform="translate(-471.624 -148.934)"/><path class="i" d="M519.927,328.412a5.534,5.534,0,0,1,.675-1.778,7.121,7.121,0,0,1,1.358-1.787,6.266,6.266,0,0,1,2.561-1.5,6.484,6.484,0,0,1,1.721-.28,5.18,5.18,0,0,1,1.885.247,7.41,7.41,0,0,1,3.367,2.412,9.789,9.789,0,0,1,1.976,4.117,17.739,17.739,0,0,1,.37,4.882,13.488,13.488,0,0,1-2.108,7.105A6.323,6.323,0,0,1,529,343.89a7.329,7.329,0,0,1-3.087.519h0a4.677,4.677,0,0,1-2.223-.543,7.407,7.407,0,0,1-1.647-1.169,8.235,8.235,0,0,1-1.82-2.7,8.407,8.407,0,0,1-.576-2,4.277,4.277,0,0,1-.049-.543.424.424,0,0,1,0-.189,10.779,10.779,0,0,0,.823,2.651,8.5,8.5,0,0,0,1.828,2.577,7.282,7.282,0,0,0,1.646,1.087,4.365,4.365,0,0,0,2.058.486h0a6.587,6.587,0,0,0,5.475-2.47,13.349,13.349,0,0,0,2-6.883c.173-3.293-.371-6.537-2.223-8.727a7.2,7.2,0,0,0-3.17-2.322,5.094,5.094,0,0,0-1.77-.255,6.2,6.2,0,0,0-1.647.239,6.045,6.045,0,0,0-2.47,1.391,7.3,7.3,0,0,0-1.4,1.68A16.416,16.416,0,0,0,519.927,328.412Z" transform="translate(-471.614 -148.899)"/><path class="b" d="M517.3,337.5a8.926,8.926,0,0,0,1.861,4.611,6.006,6.006,0,0,0,4.446,2.363,6.784,6.784,0,0,0,5.986-3.005c1.894-3.022,2.363-9.3.823-13.009-1.046-2.561-3.392-4.94-6.15-5a6.808,6.808,0,0,0-6.669,5.179" transform="translate(-471.21 -148.97)"/><path class="i" d="M517.607,328.6a5.546,5.546,0,0,1,.675-1.77,6.935,6.935,0,0,1,1.359-1.787,6.323,6.323,0,0,1,4.281-1.778,5.181,5.181,0,0,1,1.885.247,7.361,7.361,0,0,1,3.367,2.412,9.788,9.788,0,0,1,1.976,4.117,17.422,17.422,0,0,1,.362,4.882,13.434,13.434,0,0,1-2.1,7.105,6.323,6.323,0,0,1-2.734,2.058,7.328,7.328,0,0,1-3.088.519h0a4.677,4.677,0,0,1-2.223-.552,6.945,6.945,0,0,1-1.647-1.161,8.186,8.186,0,0,1-1.82-2.709,7.89,7.89,0,0,1-.576-1.992,4.3,4.3,0,0,1-.049-.543.424.424,0,0,1,0-.189,10.789,10.789,0,0,0,.823,2.643,8.287,8.287,0,0,0,1.828,2.585,7.271,7.271,0,0,0,1.646,1.087,4.463,4.463,0,0,0,2.058.486h0a6.587,6.587,0,0,0,5.475-2.47,13.29,13.29,0,0,0,1.992-6.883c.181-3.293-.362-6.537-2.223-8.727a7.064,7.064,0,0,0-3.162-2.322,5.1,5.1,0,0,0-1.77-.255,6.314,6.314,0,0,0-1.646.239,6.066,6.066,0,0,0-2.47,1.391,7.3,7.3,0,0,0-1.383,1.688A18.135,18.135,0,0,0,517.607,328.6Z" transform="translate(-471.205 -148.935)"/><path class="b" d="M520.482,328.623a4.232,4.232,0,0,0-4.421,2.544,7.344,7.344,0,0,0,0,5.376,6.8,6.8,0,0,0,1.375,2.421,3.655,3.655,0,0,0,2.47,1.194,4.281,4.281,0,0,0,3.425-2.009,7.69,7.69,0,0,0,1.161-6.315c-.379-1.433-1.424-2.89-2.9-2.931" transform="translate(-470.901 -149.876)"/><path class="i" d="M521.517,328.922h.321a2.241,2.241,0,0,1,.9.3,4.364,4.364,0,0,1,1.885,2.832,7.823,7.823,0,0,1-.511,5.039,6.585,6.585,0,0,1-1.844,2.421,3.581,3.581,0,0,1-3.178.766,4.494,4.494,0,0,1-2.544-2.075,9.292,9.292,0,0,1-1.054-2.849,6.331,6.331,0,0,1,.823-4.94,4.421,4.421,0,0,1,2.873-1.828,3.184,3.184,0,0,1,.938,0c.206.041.313.074.313.091a6.507,6.507,0,0,0-1.227.074,4.388,4.388,0,0,0-2.651,1.836,6.1,6.1,0,0,0-.683,4.718,9.055,9.055,0,0,0,1.029,2.709,4.068,4.068,0,0,0,2.3,1.877,3.137,3.137,0,0,0,2.8-.675,6.194,6.194,0,0,0,1.745-2.256,7.608,7.608,0,0,0,.576-4.808,4.354,4.354,0,0,0-1.647-2.758A3.476,3.476,0,0,0,521.517,328.922Z" transform="translate(-470.858 -149.871)"/><path class="i" d="M525.652,344.621c-.058,0-.148-.264-.436-.593a3.033,3.033,0,0,0-1.4-.9,7.629,7.629,0,0,0-1.729-.272c-.461,0-.749-.074-.758-.132s.28-.123.749-.173a4.824,4.824,0,0,1,1.861.165,2.693,2.693,0,0,1,1.523,1.136C525.726,344.283,525.7,344.612,525.652,344.621Z" transform="translate(-471.922 -152.338)"/><path class="i" d="M526.334,327.27a1.723,1.723,0,0,1-.511.593,3.961,3.961,0,0,1-1.737.758,4.051,4.051,0,0,1-1.885-.1c-.469-.156-.716-.338-.692-.387a9.742,9.742,0,0,0,2.47.066A10.284,10.284,0,0,0,526.334,327.27Z" transform="translate(-471.954 -149.643)"/></g><g transform="translate(17.211 63.958)"><path class="i" d="M238.762,147.025c.1-3.59-3.211-6.356-6.587-7.673s-7.048-1.811-10.028-3.812c-2.635-1.778-4.4-4.545-6.636-6.8a22.09,22.09,0,0,0-37.148,10.135c-1.276,5.1-.4,11.14,3.623,14.54,4.677,3.935,11.6,3.063,17.586,1.836s12.77-2.47,17.767,1.079c3.013,2.124,4.742,5.574,6.587,8.768s4.117,6.447,7.64,7.649,8.233-.873,8.357-4.553" transform="translate(-79.943 -122.164)"/><path class="i" d="M236.1,151.308c-.4,3.005,1.778,5.7,3.944,7.822s4.611,4.372,5,7.41c.445,3.516-2.124,6.974-1.375,10.44.469,2.2,2.182,3.886,3.219,5.887a12.547,12.547,0,0,1,.634,9.213c-.889,3.03-2.314,9.789-4.421,12.144a48.57,48.57,0,0,1-23.588,14.071c-8.5,1.951-17.347,1.968-26.058,1.433-7.13-.436-15.339-.107-21.283-9.921-3.079-5.088-4.6-11.839-6.233-17.553-1.416-4.94-2.635-10.185-1.169-15.092.823-2.849,2.577-5.393,3.417-8.233,1.054-3.573.667-7.41,1.087-11.09a25.449,25.449,0,0,1,36.226-20.1" transform="translate(-77.52 -124.479)"/><path class="j" d="M174.377,165.054c.667-10.234,7.476-22.781,17.677-21.678l31.83,8.118a6.018,6.018,0,0,1,5.36,6.1l-3.581,76.8.222.041s-7.253,21.662-28.306,15.05c-4.174-1.317-6.084-5.879-6.908-10.58h-.214v-1.647a50.413,50.413,0,0,1-.123-10.547h0c-.058-6.2-.049-8.735-.058-8.678s-13.074-2.206-15.742-19.274C173.175,190.338,173.636,176.424,174.377,165.054Z" transform="translate(-79.209 -125.899)"/><path class="i" d="M180.76,181.786a2.182,2.182,0,0,0,2.1,2.215,2.1,2.1,0,0,0,2.264-1.968,2.19,2.19,0,0,0-2.108-2.215,2.091,2.091,0,0,0-2.256,1.968Z" transform="translate(-80.463 -132.349)"/><path class="i" d="M178.162,178.029c.272.288,1.935-.939,4.29-.93s4.117,1.194,4.339.906c.124-.124-.156-.642-.906-1.186a5.936,5.936,0,0,0-3.466-1.079A5.763,5.763,0,0,0,179,176.827C178.277,177.387,178.022,177.9,178.162,178.029Z" transform="translate(-79.997 -131.63)"/><path class="i" d="M208.87,181.786A2.19,2.19,0,0,0,210.978,184a2.091,2.091,0,0,0,2.256-1.968,2.182,2.182,0,0,0-2.1-2.215,2.091,2.091,0,0,0-2.264,1.968Z" transform="translate(-85.429 -132.349)"/><path class="i" d="M206.283,178.619c.272.288,1.935-.93,4.29-.922s4.075,1.194,4.331.906c.123-.132-.148-.642-.906-1.194a6.035,6.035,0,0,0-3.466-1.079,5.763,5.763,0,0,0-3.409,1.1C206.4,177.977,206.151,178.528,206.283,178.619Z" transform="translate(-84.966 -131.734)"/><path class="i" d="M194.587,196.091a16.041,16.041,0,0,0-3.82-.7c-.6-.058-1.169-.181-1.276-.593a3.046,3.046,0,0,1,.412-1.778l1.787-4.578c2.47-6.512,4.281-11.872,4.018-11.963s-2.47,5.1-4.94,11.617q-.906,2.4-1.713,4.6a3.458,3.458,0,0,0-.321,2.355,1.515,1.515,0,0,0,.988.881,4.173,4.173,0,0,0,1.021.148C193.1,196.215,194.578,196.231,194.587,196.091Z" transform="translate(-81.857 -131.76)"/><path class="l" d="M193.81,232.851a43.373,43.373,0,0,0,22.864-6.051s-5.763,11.8-22.847,10.168Z" transform="translate(-82.768 -140.651)"/><path class="l" d="M197.01,206.858a4.224,4.224,0,0,1,3.8-1.564,3.853,3.853,0,0,1,2.676,1.441,2.47,2.47,0,0,1,.173,2.8,2.816,2.816,0,0,1-3.087.774,8.95,8.95,0,0,1-3.005-1.8,2.42,2.42,0,0,1-.667-.692.823.823,0,0,1,0-.881" transform="translate(-83.292 -136.846)"/><path class="i" d="M202.655,202.3c-.379,0-.387,2.536-2.585,4.339s-4.94,1.523-4.94,1.885c0,.156.609.494,1.754.527A6.348,6.348,0,0,0,201,207.627a5.541,5.541,0,0,0,2-3.639C203.116,202.917,202.836,202.283,202.655,202.3Z" transform="translate(-83.002 -136.322)"/><path class="i" d="M205,173.723c.231.642,2.585.346,5.343.683s5,1.095,5.368.527c.165-.272-.222-.881-1.128-1.5a8.793,8.793,0,0,0-3.968-1.4,8.941,8.941,0,0,0-4.182.478C205.418,172.924,204.907,173.419,205,173.723Z" transform="translate(-84.743 -130.963)"/><path class="i" d="M179.226,169.726c.42.535,2.042,0,3.993,0s3.6.362,3.985-.189c.165-.272-.1-.823-.823-1.317a5.763,5.763,0,0,0-6.422.181C179.275,168.919,179.028,169.471,179.226,169.726Z" transform="translate(-80.18 -130.144)"/><path class="i" d="M238.9,206.855A15.149,15.149,0,0,1,220.874,190.1c.527-4.191,2.791-8.456,1.334-12.424-1.918-5.245-9.271-6.858-11.222-12.095-1.136-3.038-.115-6.587-1.4-9.575-1.21-2.808-4.158-4.421-7.031-5.459s-5.944-1.754-8.357-3.623-3.911-5.409-2.355-8.036a161.371,161.371,0,0,1,37.28,9.057c2.791,1.037,5.714,2.289,7.361,4.767,1.745,2.618,1.647,6,1.515,9.147l-2.149,45.958" transform="translate(-82.309 -125.119)"/><path class="k" d="M237.592,210.857a1.953,1.953,0,0,0,.28-.173l.757-.576c.659-.519,1.647-1.284,2.824-2.346a29.163,29.163,0,0,0,4.01-4.215,15.742,15.742,0,0,0,3.195-7.031,10.7,10.7,0,0,0-2.2-8.974,34.28,34.28,0,0,0-3.977-3.392,9.229,9.229,0,0,1-3.1-4.215c-1.26-3.474-.7-7.5-1.186-11.617a23.1,23.1,0,0,0-4.841-11.757,15.883,15.883,0,0,0-5.055-4.117,30.882,30.882,0,0,0-5.969-2.009,13.922,13.922,0,0,1-5.245-2.585,20.8,20.8,0,0,1-3.8-4.191c-2.141-3.046-3.73-6.29-5.763-9a19.293,19.293,0,0,0-3.359-3.565,12.884,12.884,0,0,0-3.985-2.174,8.513,8.513,0,0,0-7.583.757,6.99,6.99,0,0,0-2.692,5.1,5.121,5.121,0,0,0,1.029,3.516,3.294,3.294,0,0,0,.692.667,1.185,1.185,0,0,0,.28.181,1.869,1.869,0,0,0-.231-.239,3.779,3.779,0,0,1-.618-.7,5.023,5.023,0,0,1-.823-3.4,6.694,6.694,0,0,1,2.643-4.792,8.068,8.068,0,0,1,7.163-.593,12.349,12.349,0,0,1,3.8,2.116,19.637,19.637,0,0,1,3.227,3.491c1.976,2.659,3.532,5.9,5.706,9.057a21.174,21.174,0,0,0,3.919,4.355,14.448,14.448,0,0,0,5.409,2.676,30.269,30.269,0,0,1,5.837,1.976,15.224,15.224,0,0,1,4.825,3.952,22.386,22.386,0,0,1,4.709,11.362c.5,3.977-.074,8.069,1.268,11.765a9.987,9.987,0,0,0,3.293,4.5,34.841,34.841,0,0,1,3.927,3.293,10.152,10.152,0,0,1,2.141,8.48,15.421,15.421,0,0,1-3,6.858,31.549,31.549,0,0,1-3.878,4.257c-1.161,1.087-2.1,1.885-2.725,2.47a9.947,9.947,0,0,0-.9.823Z" transform="translate(-82.074 -123.259)"/><path class="i" d="M249.633,230.821c3.507-3.392,9.493-.445,12.44,3.441s5.031,8.908,9.5,10.868,10.275.272,14,3.384c5.17,4.3,2.264,14.252,7.863,17.99,2.215,1.482,5.146,1.433,7.517,2.651,5.59,2.882,5.525,10.769,4.66,17-1.177,8.768-2.511,17.825-7.336,25.235s-14.219,12.589-22.567,9.74c-8.027-2.742-12.152-11.4-15.421-19.233q-6.768-16.285-13.552-32.5c-2.61-6.265-5.253-12.63-6.1-19.365s.288-14,4.578-19.282" transform="translate(-90.995 -141.098)"/><path class="n" d="M252.354,222.051c2.544-.3,4.5,2.816,3.82,5.294s-3.046,4.117-5.475,4.94a8.167,8.167,0,0,1-4.224.486,4.117,4.117,0,0,1-3.2-2.577,2.421,2.421,0,0,1,1.169-3.2c1.647-1.046,2.659-1.869,3.985-2.6,2.025-1.111,1.9-1.26,3.927-2.379" transform="translate(-91.468 -139.804)"/><path class="o" d="M143.805,208.668l9.9-7.5,37.3-2.388,1.5,5L180.377,279.5l9.575,90.335H137.91Z" transform="translate(-41.573 -98.963)"/><g class="h" transform="translate(98.651 233.969)"><path d="M222.289,411.2c-1.194-1.276-3.145-3.022-4.882-3.063-12.465-.272-25.185-1.515-37.651-1.795l-1,36.918c2.98-5.253,5.8-10.7,6.587-16.714.346-2.618.823-5.763,3.17-6.867a7.087,7.087,0,0,1,4.4-.091c4.5.889,8.974,2.05,13.552,2.338s9.378-.387,13.223-2.89a8.11,8.11,0,0,0,3.162-3.417,4.191,4.191,0,0,0-.56-4.421Z" transform="translate(-178.76 -406.34)"/></g><path class="p" d="M192.618,253.467l-1.161-10.827a3.442,3.442,0,0,1,3.112-3.787l34.333-3.1a1.647,1.647,0,0,1,1.77,1.564l.387,12.885-9.946,16.87L210.9,270.32H198.4l-7.188-7.673Z" transform="translate(-82.309 -142.231)"/><path class="i" d="M226.112,248.174a11.673,11.673,0,0,1-1.375-.14,24.707,24.707,0,0,0-3.738-.066,36.231,36.231,0,0,0-5.5.823c-2.05.428-4.281,1.029-6.644,1.605a43.243,43.243,0,0,1-6.759,1.2,17.478,17.478,0,0,1-5.607-.379A11.633,11.633,0,0,1,193,249.771a8.222,8.222,0,0,1-.823-.609c-.181-.148-.272-.239-.255-.247s.4.272,1.177.708a12.769,12.769,0,0,0,3.483,1.3,17.745,17.745,0,0,0,5.5.28,45.438,45.438,0,0,0,6.694-1.227c2.355-.568,4.594-1.161,6.661-1.573A33.166,33.166,0,0,1,221,247.7a19.946,19.946,0,0,1,3.779.2q.667.115,1.013.2C226,248.124,226.12,248.157,226.112,248.174Z" transform="translate(-82.434 -144.339)"/><g class="h" transform="translate(110.511 103.519)"><path d="M193.778,249.917c-.922,2.528-.947,5.656.922,7.591a6.688,6.688,0,0,0,6.109,1.548,19.274,19.274,0,0,0,5.969-2.684c4.726-2.808,9.534-5.722,14.9-6.916a1.9,1.9,0,0,0,.963-.4.634.634,0,0,0,0-.93A.9.9,0,0,0,222.2,248c-4.751-.478-9.468.823-14.12,1.91s-9.633,1.787-14.12.165" transform="translate(-193.165 -247.897)"/></g><path class="i" d="M201.432,239.1a3.153,3.153,0,0,0-1.177,1.12c-.543.873-.51,2.355-.469,3.952.091,3.2.617,5.763.494,5.763a5.6,5.6,0,0,1-.469-1.647,25.943,25.943,0,0,1-.453-4.117,19.037,19.037,0,0,1,.049-2.3,3.968,3.968,0,0,1,.593-1.82,2.379,2.379,0,0,1,.963-.864C201.251,239.072,201.423,239.072,201.432,239.1Z" transform="translate(-83.746 -142.821)"/><path class="i" d="M212.583,248.311a49.757,49.757,0,0,0-.247-5.236c-.4-2.873-1.35-5.055-1.219-5.1a4.511,4.511,0,0,1,.7,1.391,17.018,17.018,0,0,1,.947,3.647,16.7,16.7,0,0,1,.107,3.771A4.611,4.611,0,0,1,212.583,248.311Z" transform="translate(-85.824 -142.624)"/><path class="i" d="M226.2,236.86a3.384,3.384,0,0,1,.65,1.276,9.007,9.007,0,0,1,.453,3.433,8.867,8.867,0,0,1-.906,3.351,3.292,3.292,0,0,1-.823,1.177,11.362,11.362,0,0,0,.617-9.238Z" transform="translate(-88.38 -142.428)"/><path class="c" d="M160.237,261.33s-11.708,7.838-14.82,22c-2.421,11.131-9.057,69.933-9.057,69.933l-11.6,22.576,7.575,18.014h0a27.7,27.7,0,0,0,18.2-5.2l5.1-3.7,9.345-13.857Z" transform="translate(-70.569 -146.751)"/><path class="c" d="M146.479,204.09l-19.842,10.382-4.685,15.4-4.174,44.608,7.854,52.306L111.85,370.607l23.769.181.568-25.7,2.371-83.147,2.33-52.973Z" transform="translate(-36.969 -99.902)"/><path class="i" d="M178.788,319.025a4.538,4.538,0,0,1-.37-.626l-.988-1.82c-.412-.823-.823-1.828-1.326-3-.239-.593-.445-1.243-.683-1.927s-.5-1.408-.708-2.182a82.184,82.184,0,0,1-2.84-24.881c0-.757.058-1.507.107-2.256v-.132l.123-.049,3.474-1.465-.049.362-3.474-2.791-.074-.058v-.082a30.026,30.026,0,0,1,1.581-9.921c.873-2.906,1.828-5.409,2.668-7.468s1.573-3.664,2.091-4.751c.263-.552.469-.972.609-1.243a2.832,2.832,0,0,1,.239-.42,2,2,0,0,1-.173.445l-.552,1.276c-.478,1.1-1.169,2.725-1.976,4.792s-1.729,4.569-2.569,7.468a30.123,30.123,0,0,0-1.507,9.789l-.082-.14,3.483,2.775.272.222-.321.14-3.474,1.466.132-.181c-.049.733-.082,1.482-.107,2.24A84.971,84.971,0,0,0,175,309.384c.189.782.445,1.5.667,2.182s.42,1.342.659,1.935c.486,1.169.823,2.2,1.251,3.005l.906,1.853A5.445,5.445,0,0,1,178.788,319.025Z" transform="translate(-78.886 -145.513)"/><path class="i" d="M160.478,356.783a6.142,6.142,0,0,1-.189-.642q-.173-.7-.469-1.877c-.206-.823-.436-1.811-.667-2.972s-.535-2.47-.766-3.977-.543-3.1-.766-4.841-.445-3.623-.65-5.59c-.362-3.952-.6-8.307-.6-12.885s.272-8.933.642-12.877c.222-1.968.412-3.845.683-5.59s.51-3.367.774-4.841.543-2.8.823-3.968.478-2.165.683-2.972.354-1.408.478-1.869a4.717,4.717,0,0,1,.189-.65,3.8,3.8,0,0,1-.107.667l-.4,1.885c-.181.823-.4,1.82-.609,2.989s-.5,2.47-.725,3.977-.51,3.087-.716,4.833-.436,3.614-.642,5.574c-.346,3.944-.593,8.283-.609,12.852s.231,8.9.56,12.844c.206,1.96.37,3.837.617,5.574s.469,3.367.708,4.841.494,2.808.7,3.977.42,2.174.6,2.989.3,1.416.387,1.885a3.148,3.148,0,0,1,.066.667Z" transform="translate(-76.154 -152.034)"/><path class="i" d="M165.843,419.63a8.48,8.48,0,0,1-.963,2,32.368,32.368,0,0,1-3.038,4.4,31.878,31.878,0,0,1-3.721,3.845,8.926,8.926,0,0,1-1.77,1.342,15.834,15.834,0,0,1,1.564-1.564,48,48,0,0,0,3.6-3.894,47.382,47.382,0,0,0,3.112-4.29A15.9,15.9,0,0,1,165.843,419.63Z" transform="translate(-76.15 -174.719)"/><path class="c" d="M266.839,259.515a27.31,27.31,0,0,1,16.746,19.43c6.5,28.619,17.6,66.689,17.784,78.981.214,15.643-6.587,26.346-15.553,28.322-7.064,1.564-71.069-1.943-71.069-1.943l-3-23.876,51.869-7.632-7.1-39.585,7.023-54.932Z" transform="translate(-85.938 -146.212)"/><path class="c" d="M266.01,255.073l-14.334-5.854-15.108-8.859-.091,2.593h0a15.2,15.2,0,0,1,1.82,10.506l-12.6,65.586,2.849,47.926L234.4,413.9h45.456l-20.871-49.111,7.369-66.187Z" transform="translate(-88.403 -143.046)"/><path class="i" d="M276.794,406.84l-.313.041-.914.091c-.823.082-2,.074-3.548.115-3.079,0-7.558-.066-13.132-.247-11.14-.371-26.643-1.12-44.155-2.132h-.173v-.181c-.354-2.84-.733-5.837-1.111-8.875-.65-5.146-1.276-10.168-1.877-14.968v-.206h.2l39.585-5.763,11.625-1.647,3.12-.42.823-.107h.28l-.272.058-.823.14-3.112.494-11.6,1.77-39.52,5.9.173-.239c.609,4.808,1.243,9.822,1.885,14.968.387,3.046.757,6.043,1.111,8.884l-.2-.181c17.5,1.021,33.015,1.82,44.147,2.272,5.566.214,10.036.338,13.116.379,1.54,0,2.742,0,3.54-.049l.914-.049Z" transform="translate(-85.906 -166.4)"/><path class="i" d="M265.611,320.08a1.692,1.692,0,0,1,.115.445c.066.338.148.749.247,1.268.214,1.161.5,2.75.823,4.685.7,4.018,1.647,9.46,2.7,15.479s1.91,11.477,2.585,15.5c.3,1.943.552,3.532.733,4.7.074.519.132.947.181,1.284a1.876,1.876,0,0,1,0,.453,1.573,1.573,0,0,1-.124-.436c-.066-.338-.148-.757-.255-1.268-.214-1.169-.51-2.75-.873-4.685-.716-3.96-1.647-9.427-2.7-15.478s-1.943-11.527-2.577-15.5c-.3-1.943-.543-3.54-.725-4.709q-.1-.774-.173-1.284a2.089,2.089,0,0,1,.041-.453Z" transform="translate(-95.447 -157.131)"/><path class="i" d="M243.467,246a.4.4,0,0,0,.058.165l.132.478c.107.428.288,1.046.461,1.869a59.855,59.855,0,0,1,1.087,7.056,78.955,78.955,0,0,1,.272,10.769c-.14,4.117-.568,8.62-1.186,13.42v.148h-.148l-4.718.873.156-.288c.272.725.543,1.5.757,2.3a29.186,29.186,0,0,1-.535,15.9,49.779,49.779,0,0,1-5.5,11.856c-1.96,3.178-3.721,5.615-4.94,7.3l-1.424,1.927c-.148.206-.28.362-.379.494a.666.666,0,0,1-.14.165s0-.066.107-.189l.346-.519c.329-.478.823-1.136,1.35-1.976,1.177-1.712,2.906-4.174,4.816-7.361a50.814,50.814,0,0,0,5.385-11.806,28.867,28.867,0,0,0,.5-15.643,23.364,23.364,0,0,0-.741-2.256l-.09-.239.255-.049,4.685-.864-.173.181c.626-4.784,1.079-9.3,1.235-13.379a82.758,82.758,0,0,0-.173-10.7,65.68,65.68,0,0,0-.963-7.056c-.148-.823-.313-1.449-.387-1.877-.041-.2-.074-.354-.1-.486A.542.542,0,0,1,243.467,246Z" transform="translate(-88.707 -144.043)"/><path class="n" d="M246.074,325V314.547s.132-2.577-2.042-2.034-1.77,4.619-1.77,4.619-.4,15.9.543,15.767,1.317-1.358,1.317-1.358v-6.117Z" transform="translate(-91.314 -155.781)"/><path class="i" d="M255.484,328.429a36.119,36.119,0,0,1-5.607.214,36.126,36.126,0,0,1-5.607-.214,37.382,37.382,0,0,1,5.607-.214A37.391,37.391,0,0,1,255.484,328.429Z" transform="translate(-91.684 -158.564)"/><path class="i" d="M279.456,267.32a7.749,7.749,0,0,1-1.169.436,26.4,26.4,0,0,0-3.112,1.342,24.2,24.2,0,0,0-8.414,7.171,17.955,17.955,0,0,0-1.647,2.692,17.445,17.445,0,0,0-.988,2.766,27.263,27.263,0,0,0-.823,4.94c-.115,1.424-.14,2.594-.148,3.392a10.635,10.635,0,0,1,0,1.251,5.036,5.036,0,0,1-.165-1.2,30.057,30.057,0,0,1,0-3.417,25.444,25.444,0,0,1,.749-5.022,17.284,17.284,0,0,1,1-2.849,18.293,18.293,0,0,1,1.688-2.766,23.251,23.251,0,0,1,8.629-7.188,21.468,21.468,0,0,1,3.186-1.235,6.17,6.17,0,0,1,1.218-.313Z" transform="translate(-94.982 -147.81)"/><path class="i" d="M20.9,328.36,95.781,356.1l63.124,9.649L83.851,329.159Z" transform="translate(-20.9 -121.857)"/><path class="j" d="M96.759,405.809a31.871,31.871,0,0,0-4-11.345,8.233,8.233,0,0,1-1.021-2.132,2.421,2.421,0,0,1,.42-2.231c.963-1.046,2.717-.585,3.9.206a13.716,13.716,0,0,1,5.039,7.064,41,41,0,0,1,1.647,8.653" transform="translate(-64.715 -169.395)"/><path class="j" d="M126.363,397.8h-3.721a7.294,7.294,0,0,0-3.293-1.877,2.585,2.585,0,0,0-2.47.963c1.647-2.742,3.458-5.763,3.8-6.587.667-1.605-.823-2.808-3.219-2.808s-13,15.009-13,15.009,6.587-12.078,7.221-13.922c1.6-4.611-3.45-4.94-5.278-2.725-2.272,2.758-11.452,16.648-11.452,16.648s-1.745,2.816-.543,5.492,4.693,1.647,4.693,1.647a4.5,4.5,0,0,0,2.47,3.721c2.684,1.5,6.224-.239,6.224-.239l13.725,3.079,4.94-.494A15.215,15.215,0,0,0,140,402.8h0Z" transform="translate(-65.132 -168.518)"/><path class="l" d="M120.273,399.28c.156.1-1.647,2.964-4.034,6.405-1.186,1.721-2.281,3.293-3.1,4.364a10.924,10.924,0,0,1-1.383,1.729,11.177,11.177,0,0,1,1.136-1.9c.749-1.144,1.8-2.717,2.989-4.438s2.272-3.293,3.063-4.38l.955-1.309a3.346,3.346,0,0,1,.37-.469Z" transform="translate(-68.272 -171.124)"/><path class="l" d="M121.1,414.605a13.555,13.555,0,0,1,1.219-2.239c.823-1.35,1.96-3.186,3.227-5.228.634-1.013,1.243-1.984,1.737-2.882a3.334,3.334,0,0,0,.3-2.544,6.323,6.323,0,0,0-1.169-2.182,2.21,2.21,0,0,1,.527.445,4.266,4.266,0,0,1,.93,1.647,3.565,3.565,0,0,1-.239,2.808c-.494.93-1.095,1.91-1.721,2.931-1.276,2.042-2.47,3.853-3.343,5.162A17.988,17.988,0,0,1,121.1,414.605Z" transform="translate(-69.922 -171.168)"/><path class="l" d="M129.474,417.118a7.674,7.674,0,0,1,.733-2.132l.98-2.239a18.317,18.317,0,0,0,1-2.758,3.244,3.244,0,0,0-.436-2.676,2.528,2.528,0,0,0-.98-.7,2.708,2.708,0,0,0-1.021-.288,4.118,4.118,0,0,0-1.474.519,1.753,1.753,0,0,1-.56.23,3.765,3.765,0,0,1,.477-.379,6.764,6.764,0,0,1,.618-.37,2.42,2.42,0,0,1,.939-.3,3.037,3.037,0,0,1,1.169.263,2.782,2.782,0,0,1,1.136.774,3.532,3.532,0,0,1,.543,3.022,15.762,15.762,0,0,1-1.062,2.832c-.387.823-.757,1.573-1.062,2.2A21.22,21.22,0,0,1,129.474,417.118Z" transform="translate(-71.092 -172.315)"/><path class="l" d="M132.92,403.76a1.464,1.464,0,0,1,.576.173,6.724,6.724,0,0,1,1.433.823,7.805,7.805,0,0,1,2.215,9.929,6.71,6.71,0,0,1-.93,1.375c-.263.288-.436.42-.453.4a12,12,0,0,0,1.111-1.91,7.937,7.937,0,0,0-2.132-9.559A19.809,19.809,0,0,0,132.92,403.76Z" transform="translate(-72.011 -171.915)"/><path class="l" d="M102.214,394.19a40.211,40.211,0,0,1-3.1,4.94,39.523,39.523,0,0,1-3.45,4.783,39.516,39.516,0,0,1,3.1-4.94,40.079,40.079,0,0,1,3.458-4.784Z" transform="translate(-65.428 -170.225)"/><path class="j" d="M200.737,380.874l-8.563-1.935-8.233-7.747a5.887,5.887,0,0,0-3.672-1.581l-14.96-.823a5.813,5.813,0,0,0-4.117,1.367l-10.7,9.057,46.691,22.683,6.405.568Z" transform="translate(-75.115 -165.735)"/><path class="l" d="M176.844,378.432c0,.066-1.1-.132-2.882-.362a12.084,12.084,0,0,0-6.776.708,17.492,17.492,0,0,0-3.227,2.017c-.947.708-1.795,1.367-2.544,1.869a13.535,13.535,0,0,1-1.852,1.078,2.664,2.664,0,0,1-.733.272c0-.066.98-.519,2.412-1.6.716-.527,1.54-1.21,2.47-1.943a16.986,16.986,0,0,1,3.293-2.091,9.692,9.692,0,0,1,3.82-.823,17.027,17.027,0,0,1,3.17.247,19.847,19.847,0,0,1,2.091.428,2.3,2.3,0,0,1,.757.2Z" transform="translate(-76.588 -167.286)"/><path class="l" d="M182.193,388.591c0,.066-.609-.206-1.647-.3a8.522,8.522,0,0,0-3.845.535,19.766,19.766,0,0,0-3.524,1.8,7.359,7.359,0,0,1-1.457.823,6,6,0,0,1,1.284-1.07,15.2,15.2,0,0,1,3.549-1.951,7.87,7.87,0,0,1,4.034-.436,3.054,3.054,0,0,1,1.605.6Z" transform="translate(-78.866 -169.113)"/><path class="l" d="M206.592,388.761c-.107.066-1.309-1.729-2.9-3.853a46.876,46.876,0,0,1-2.865-3.878,19.225,19.225,0,0,1,3.2,3.623,18.887,18.887,0,0,1,2.561,4.108Z" transform="translate(-84.008 -167.9)"/><path class="n" d="M177.979,365.356l18.936-17.66a1.811,1.811,0,0,0-.132-2.766h0a1.811,1.811,0,0,0-2.314.091l-22.23,19.941" transform="translate(-78.957 -161.455)"/><g class="h" transform="translate(93.283 183.1)"><path d="M177.979,365.356l18.936-17.66a1.811,1.811,0,0,0-.132-2.766h0a1.811,1.811,0,0,0-2.314.091l-22.23,19.941" transform="translate(-172.24 -344.556)"/></g></g><g transform="translate(201.532 56.151)"><path class="q" d="M365.054,162.987c-.3-.115-11.782-3.129-11.09,8.488s12.21,8.521,12.218,8.184S365.054,162.987,365.054,162.987Z" transform="translate(-295.846 -121.492)"/><path class="r" d="M363,176.313c-.058-.041-.2.148-.527.329a2.009,2.009,0,0,1-1.515.115c-1.251-.37-2.4-2.256-2.585-4.347a6.784,6.784,0,0,1,.362-2.89,2.338,2.338,0,0,1,1.433-1.647,1.029,1.029,0,0,1,1.227.486c.173.313.115.552.173.568s.239-.214.115-.683a1.252,1.252,0,0,0-.5-.7,1.5,1.5,0,0,0-1.136-.231,2.841,2.841,0,0,0-2,1.927,6.769,6.769,0,0,0-.51,3.293c.214,2.338,1.548,4.454,3.252,4.841a2.173,2.173,0,0,0,1.836-.42C362.992,176.593,363.042,176.329,363,176.313Z" transform="translate(-296.477 -122.329)"/><path class="i" d="M402.66,112.69c5.9,0,11.914,0,19.3,3.861,4.66,2.47,7.558,6.282,9.987,10.942a25.193,25.193,0,0,1,2.75,12.259c-.214,4.018-.23,6.825-1.836,10.514" transform="translate(-304.455 -112.683)"/><path class="j" d="M393.543,113.783a31.286,31.286,0,0,1,33.468,29.59c.757,14.548,1.424,30.282,1.268,38.2-.346,17.01-17.38,19.521-17.38,19.521s.379,5.039.823,11.3a22.411,22.411,0,0,1-21.505,23.876h0a22.394,22.394,0,0,1-23.234-21.555l-2.528-68.55a31.286,31.286,0,0,1,29.113-32.4Z" transform="translate(-297.701 -112.862)"/><path class="r" d="M416.188,218.407s-10.456.543-21.818-6.727c0,0,5.146,12.35,22.123,10.983Z" transform="translate(-302.991 -130.172)"/><path class="i" d="M431.485,160.755a2.42,2.42,0,0,1-2.355,2.47,2.313,2.313,0,0,1-2.47-2.206,2.47,2.47,0,0,1,2.355-2.47,2.322,2.322,0,0,1,2.47,2.206Z" transform="translate(-308.696 -120.784)"/><path class="i" d="M433.33,156.495c-.3.313-2.132-1.062-4.751-1.079s-4.536,1.284-4.816.963c-.14-.148.173-.716,1.013-1.317a6.587,6.587,0,0,1,3.861-1.153,6.324,6.324,0,0,1,3.771,1.251C433.207,155.779,433.478,156.355,433.33,156.495Z" transform="translate(-308.178 -119.965)"/><path class="i" d="M400.353,160.756a2.421,2.421,0,0,1-2.363,2.47,2.322,2.322,0,0,1-2.47-2.206,2.47,2.47,0,0,1,2.363-2.47,2.33,2.33,0,0,1,2.47,2.206Z" transform="translate(-303.194 -120.784)"/><path class="i" d="M402.119,156.843c-.3.313-2.141-1.062-4.751-1.079s-4.536,1.276-4.825.955c-.132-.14.173-.716,1.021-1.317a6.661,6.661,0,0,1,3.861-1.153A6.438,6.438,0,0,1,401.2,155.5C401.971,156.127,402.267,156.7,402.119,156.843Z" transform="translate(-302.663 -120.025)"/><path class="i" d="M415.284,176.325c0-.148,1.647-.412,4.248-.733.667-.066,1.3-.189,1.416-.642a3.343,3.343,0,0,0-.428-1.984c-.609-1.647-1.26-3.293-1.935-5.1-2.684-7.262-4.619-13.223-4.323-13.33s2.709,5.689,5.385,12.951c.65,1.787,1.268,3.491,1.852,5.129a3.861,3.861,0,0,1,.329,2.618,1.721,1.721,0,0,1-1.112.971,5.064,5.064,0,0,1-1.128.148C416.939,176.5,415.293,176.5,415.284,176.325Z" transform="translate(-306.5 -120.077)"/><path class="i" d="M406.056,183.15c.428,0,.4,2.816,2.816,4.849s5.442,1.745,5.459,2.141c0,.181-.683.552-1.96.576a7.08,7.08,0,0,1-4.553-1.647A6.2,6.2,0,0,1,405.636,185C405.537,183.85,405.858,183.133,406.056,183.15Z" transform="translate(-304.978 -125.132)"/><path class="i" d="M402.529,144.574c-.263.708-2.865.354-5.936.7s-5.557,1.161-5.961.519c-.173-.3.263-.971,1.268-1.647a10.4,10.4,0,0,1,9.057-.922C402.084,143.643,402.644,144.2,402.529,144.574Z" transform="translate(-302.324 -117.965)"/><path class="i" d="M433.031,145.161c-.461.593-2.256-.041-4.421-.082s-4,.362-4.421-.263c-.181-.3.107-.9.914-1.449a6.4,6.4,0,0,1,7.13.28C432.99,144.263,433.237,144.872,433.031,145.161Z" transform="translate(-308.25 -117.935)"/><path class="i" d="M364.534,151.311s.741,3.935.939,5.706c.074.65,0,7.855,1.737,8.233,1.507.313,4.5-1.062,5.829-4.043s3.87-10.135,3.59-13.387a47.058,47.058,0,0,1,.313-13.3,19.159,19.159,0,0,1,6.471-11.362c3.5-2.75,8.563-3.7,12.548-1.7,2.47,1.235,4.289,3.417,6.587,4.94a10.218,10.218,0,0,0,7.015,1.82,6.586,6.586,0,0,0,5.426-4.446c.724-2.593-.609-5.434-2.692-7.155a16.441,16.441,0,0,0-7.41-3.038,39.841,39.841,0,0,0-22.082,1.548c-6.974,2.709-13.173,7.912-16.137,14.77-3.442,7.929-3.046,12.794-2.132,21.406" transform="translate(-297.607 -112.681)"/><path class="i" d="M406.888,158.841a19.99,19.99,0,0,0-.445-2.8,11.526,11.526,0,0,0-4.207-6.265,11.312,11.312,0,0,0-4.8-2.108,11.469,11.469,0,0,0-5.977.5,10.57,10.57,0,0,0-2.865,1.556,10.445,10.445,0,0,0-2.4,2.412,11.329,11.329,0,0,0,0,13.412,10.778,10.778,0,0,0,2.4,2.412,10.537,10.537,0,0,0,2.865,1.548,11.477,11.477,0,0,0,5.977.51,11.28,11.28,0,0,0,4.8-2.116,11.526,11.526,0,0,0,4.215-6.257,20.536,20.536,0,0,0,.436-2.807.5.5,0,0,1,0,.189v.552a4.733,4.733,0,0,1-.074.9,7.614,7.614,0,0,1-.214,1.2,11.527,11.527,0,0,1-4.191,6.471,11.666,11.666,0,0,1-11.09,1.729,10.869,10.869,0,0,1-2.98-1.589,11.031,11.031,0,0,1-2.47-2.47,11.716,11.716,0,0,1,0-13.914,11.67,11.67,0,0,1,11.642-4.6,11.628,11.628,0,0,1,9.131,8.686,7.691,7.691,0,0,1,.214,1.21,4.64,4.64,0,0,1,.074.889v.552A.8.8,0,0,1,406.888,158.841Z" transform="translate(-301.084 -118.763)"/><path class="i" d="M443.248,158.839a21.7,21.7,0,0,0-.445-2.8,11.527,11.527,0,0,0-4.215-6.265,11.271,11.271,0,0,0-4.8-2.108,11.357,11.357,0,0,0-11.238,4.471,11.3,11.3,0,0,0,0,13.412,10.746,10.746,0,0,0,2.4,2.412,10.465,10.465,0,0,0,2.873,1.548,11.444,11.444,0,0,0,5.969.51,11.28,11.28,0,0,0,4.8-2.116,11.527,11.527,0,0,0,4.215-6.257,21.679,21.679,0,0,0,.445-2.808,1.7,1.7,0,0,1,0,.189v.552a5.4,5.4,0,0,1-.066.9,7.713,7.713,0,0,1-.222,1.2,11.445,11.445,0,0,1-4.191,6.471,11.746,11.746,0,0,1-16.582-16.3,10.959,10.959,0,0,1,2.47-2.47,11.123,11.123,0,0,1,2.981-1.6,11.864,11.864,0,0,1,6.175-.486,11.592,11.592,0,0,1,4.94,2.223,11.452,11.452,0,0,1,4.191,6.463,7.776,7.776,0,0,1,.222,1.21,5.315,5.315,0,0,1,.066.889c0,.222,0,.4,0,.552A1.525,1.525,0,0,1,443.248,158.839Z" transform="translate(-307.499 -118.761)"/><path class="i" d="M418.949,159.613a5.879,5.879,0,0,1-1.07-.362,6.9,6.9,0,0,0-2.643-.346,7.2,7.2,0,0,0-2.552.675c-.617.3-.963.568-1,.51s.247-.387.823-.774a5.944,5.944,0,0,1,5.434-.362C418.653,159.268,418.982,159.58,418.949,159.613Z" transform="translate(-306.048 -120.77)"/><path class="i" d="M425.8,124.026c.173-.881-.123-1.375.379-1.737s1.647.675,2.025,1.1c.132.14.527-.4.683-.5a3.008,3.008,0,0,0,.3-1.128c-.074-.617-1.037-.823-1.49-1.2a4.578,4.578,0,0,0-1.606-.914,1.548,1.548,0,0,0-1.531.091,1.507,1.507,0,0,0-.346,1.153,3.152,3.152,0,0,0,.231,1.2,1.646,1.646,0,0,0,.823.873" transform="translate(-308.26 -113.883)"/><path class="c" d="M363.9,147.726s8.34,3.055,12.679,4.9l-.247-4.265-12.128-4.8S363.892,146.73,363.9,147.726Z" transform="translate(-297.607 -118.137)"/><path class="c" d="M364.85,140.57a48,48,0,0,1,5.9,2.264,46.522,46.522,0,0,1,5.763,2.659,48,48,0,0,1-5.9-2.264A46.529,46.529,0,0,1,364.85,140.57Z" transform="translate(-297.775 -117.609)"/><path class="o" d="M367.149,245.36l-.642-20.18s4.01,18.467,25.013,18.228c20.064-.23,19.7-16.269,19.7-16.269l.716,8.134v32.859l-13.091,53.607-16.722,2.091L363.65,250.555Z" transform="translate(-297.563 -132.557)"/><path class="i" d="M410.105,241.38a2.053,2.053,0,0,1-.239.428,12.112,12.112,0,0,1-.823,1.169,17.288,17.288,0,0,1-3.738,3.623,21.505,21.505,0,0,1-6.982,3.293,24.6,24.6,0,0,1-9.427.65,30.546,30.546,0,0,1-9.057-2.725,39.42,39.42,0,0,1-6.587-3.985,46.58,46.58,0,0,1-4-3.293c-.453-.412-.782-.757-1.013-.988a2.217,2.217,0,0,1-.329-.362,2.27,2.27,0,0,1,.387.3l1.07.922a50.659,50.659,0,0,0,4.067,3.195,41.063,41.063,0,0,0,6.587,3.87,30.716,30.716,0,0,0,8.933,2.651,24.618,24.618,0,0,0,9.262-.6,22.1,22.1,0,0,0,6.916-3.145,18.541,18.541,0,0,0,3.779-3.474C409.7,241.923,410.072,241.355,410.105,241.38Z" transform="translate(-298.316 -135.033)"/><path class="c" d="M386.59,411.266l-.3-95.259-27.054-69.5-.906-20.921-16.466,12.465s-23.983,82.555-24.387,79.706,0,93.5,0,93.5Z" transform="translate(-289.373 -132.63)"/><path class="i" d="M400.624,430.214c-.115,0-.214-21.464-.214-47.942s.1-47.942.214-47.942.214,21.464.214,47.942S400.739,430.214,400.624,430.214Z" transform="translate(-304.058 -151.842)"/><path class="b" d="M309.36,212.59l3.343,2.536-2.347,15.4,39.487,41.364L313.979,224.8l3.055-12.21Z" transform="translate(-256.652 -93.596)"/><path class="c" d="M382.124,365.135l-60.6-17.767-2.009-46.032,16.623-60.646s-39.618,19.768-42.319,32.365-9.2,43.159-9.88,65.265c-.617,19.76-.708,32.933,3.8,39.281,12.926,18.064,98.091,21.291,132.11,0" transform="translate(-283.425 -135.298)"/><path class="i" d="M388.6,311.916a1.9,1.9,0,0,1-.2-.222c-.123-.156-.321-.4-.543-.675l-2.058-2.635c-1.795-2.322-4.355-5.648-7.509-9.748l-24.642-32.25-1.852-2.47-.066-.082v-.1c1.054-4.215,2.083-8.307,3.063-12.21l.2.264H347.12V237.907l.066-.049L359.1,228.8l3.293-2.47.823-.634a1.561,1.561,0,0,1,.3-.2l-.272.239-.823.667-3.219,2.519L347.384,238.1l.066-.132v13.6l-.2-.189h8l-.066.263-3.046,12.21-.041-.181,1.861,2.429L378.5,298.43l7.41,9.822c.823,1.153,1.523,2.05,1.992,2.684.214.3.379.535.51.708Z" transform="translate(-294.643 -132.614)"/><path class="c" d="M425.146,234.7c-4.833-8.447-7.344-7.575-7.344-7.575l.255,3.013v6.331l-2.3,27.17-14.68,59.024.3,88.87h55.5l6.908-108.481-.626-46.74Z" transform="translate(-304.176 -132.896)"/><path class="c" d="M457.3,262.58s14.367,10.6,15.643,27.672c1.013,13.857,3.293,51.8,3.746,60.061.659,12.86-9.361,42.986-35.444,34.456-15.643-5.121-73.424-24.757-73.424-24.757l3.845-24.543,68.583,4.117,1.367-57.2Z" transform="translate(-298.3 -139.165)"/><path class="j" d="M364.129,354.256s-19.414-2.1-23.876-1.013c-4.322,1.046-10.473,6.331-10.473,6.331l.091,7.665,31.229,8.735Z" transform="translate(-291.579 -155.128)"/><path class="i" d="M401.09,313.8a1.391,1.391,0,0,1,.091-.264c.066-.189.165-.445.288-.757.272-.692.667-1.647,1.161-2.9l4.347-10.637,6.488-15.758c.618-1.474,1.227-3.013,1.992-4.52s1.6-3.013,2.47-4.52a100.858,100.858,0,0,1,6.158-8.892c1.12-1.441,2.248-2.849,3.417-4.2v.222l-2.421-6.15-.082-.206.206-.074,10.1-3.417-.107.28c-4.693-7.838-8.653-14.458-11.469-19.15-1.383-2.322-2.569-4.182-3.828-4.94a5.2,5.2,0,0,0-1.531-.617,5.245,5.245,0,0,1-.568-.14,4.757,4.757,0,0,1,.576.074,4.881,4.881,0,0,1,1.589.585,7.024,7.024,0,0,1,1.943,1.885,33.3,33.3,0,0,1,2.017,3.03l11.609,19.085.123.206-.231.074-10.1,3.466.123-.272,2.429,6.15.049.115-.091.1c-1.153,1.334-2.28,2.742-3.392,4.182a101.439,101.439,0,0,0-6.142,8.826c-.881,1.5-1.745,2.972-2.47,4.479s-1.367,3.005-1.984,4.487c-2.47,5.911-4.709,11.238-6.587,15.725s-3.409,8.06-4.471,10.58c-.527,1.227-.947,2.19-1.235,2.873-.14.313-.247.552-.338.741a1.04,1.04,0,0,1-.132.247Z" transform="translate(-304.178 -132.907)"/><path class="i" d="M458.512,399.031a1.58,1.58,0,0,1-.239.255l-.741.716a21.319,21.319,0,0,1-3.153,2.388,21.045,21.045,0,0,1-5.763,2.421,23.193,23.193,0,0,1-8.233.527,26.029,26.029,0,0,1-4.734-1c-1.647-.51-3.227-1.144-4.94-1.737-3.384-1.235-7.023-2.47-10.843-3.853-7.657-2.684-16.1-5.549-24.988-8.472-17.784-5.837-34-10.761-45.76-14.276l-13.931-4.117L331.4,370.75l-.98-.3a1.911,1.911,0,0,1-.329-.124l.346.074.988.263,3.812,1.046c3.293.922,8.077,2.281,14,3.993,11.773,3.433,27.993,8.316,45.8,14.161,8.9,2.914,17.339,5.763,24.988,8.5,3.82,1.358,7.451,2.651,10.835,3.894,1.7.609,3.293,1.251,4.94,1.762a25.521,25.521,0,0,0,4.668,1.013,23.179,23.179,0,0,0,8.167-.453,21.659,21.659,0,0,0,5.763-2.33,23.34,23.34,0,0,0,3.178-2.313l.766-.683a1.877,1.877,0,0,1,.173-.222Z" transform="translate(-291.634 -158.202)"/><path class="i" d="M326.567,370.4c0,.091-1.1-.148-2.832-.074a12.452,12.452,0,0,0-3,.494,13.638,13.638,0,0,0-3.376,1.54,15.775,15.775,0,0,0-4.7,4.825c-.914,1.482-1.317,2.47-1.391,2.47a2.9,2.9,0,0,1,.23-.733,12.684,12.684,0,0,1,.906-1.894,14.705,14.705,0,0,1,4.726-5.03,13.28,13.28,0,0,1,3.5-1.556,12.1,12.1,0,0,1,3.1-.42,10.108,10.108,0,0,1,2.091.189,2.818,2.818,0,0,1,.749.189Z" transform="translate(-288.309 -158.147)"/><path class="i" d="M306.66,362.757a.536.536,0,0,1,.074-.222,2.177,2.177,0,0,1,.379-.535,3.9,3.9,0,0,1,2.157-1.07,10.941,10.941,0,0,1,3.557,0,20.164,20.164,0,0,1,4.224,1.029,18.542,18.542,0,0,1,6.694,4.117,13.994,13.994,0,0,1,1.556,1.819,3.607,3.607,0,0,1,.453.749c-.074.058-.749-1-2.215-2.347a19.652,19.652,0,0,0-6.636-3.911,22.3,22.3,0,0,0-4.117-1.046,11.586,11.586,0,0,0-3.458-.1,3.969,3.969,0,0,0-2.083.889A8.064,8.064,0,0,0,306.66,362.757Z" transform="translate(-287.494 -156.515)"/><path class="i" d="M328.87,295.124a6.464,6.464,0,0,1-.28-1.243c-.123-.4-.3-.864-.486-1.408a9.9,9.9,0,0,0-.9-1.762,25.2,25.2,0,0,0-3.087-4.117,33.582,33.582,0,0,0-4.734-4.166,28.538,28.538,0,0,0-10.349-4.75,21.6,21.6,0,0,0-3.45-.445,7.733,7.733,0,0,1-1.276-.1,7.183,7.183,0,0,1,1.284-.066,17.533,17.533,0,0,1,3.5.313,27.169,27.169,0,0,1,10.539,4.7,31.176,31.176,0,0,1,4.775,4.24,23.672,23.672,0,0,1,3.063,4.232,13.968,13.968,0,0,1,.823,1.82,10.4,10.4,0,0,1,.428,1.457A8.682,8.682,0,0,1,328.87,295.124Z" transform="translate(-287.079 -141.724)"/><path class="i" d="M455.514,378.642a1.462,1.462,0,0,1,0-.3v-.865c0-.757-.058-1.869-.165-3.293a46.192,46.192,0,0,0-2.47-11.864,16.79,16.79,0,0,0-1.647-3.623,7.106,7.106,0,0,0-3.211-2.725c-2.758-1.186-6.076-1.029-9.452-1.219l-22.1-.93c-18.261-.823-34.505-1.482-44.715-2.025l.14-.115c-.618,3.754-1.112,6.727-1.449,8.793-.173,1-.3,1.77-.4,2.322-.041.247-.082.445-.107.6l-.049.2a.963.963,0,0,1,0-.206l.082-.6c.074-.552.189-1.334.329-2.338.313-2.067.757-5.047,1.326-8.81v-.115h.123l44.715,1.861,22.1,1c1.7.082,3.351.124,4.94.255a14.317,14.317,0,0,1,4.611,1.037,7.467,7.467,0,0,1,3.376,2.824,16.762,16.762,0,0,1,1.647,3.7,44.458,44.458,0,0,1,2.338,11.938c.091,1.433.091,2.552.082,3.293v.865C455.523,378.535,455.514,378.642,455.514,378.642Z" transform="translate(-298.664 -154.88)"/><path class="i" d="M457.954,319.24c.115,0,.214,6.644.214,14.82s-.1,14.82-.214,14.82-.214-6.644-.214-14.82S457.839,319.24,457.954,319.24Z" transform="translate(-314.187 -149.176)"/><path class="i" d="M294.248,278.17s-.049.189-.165.543a15.726,15.726,0,0,0-.494,1.647c-.4,1.424-.914,3.548-1.482,6.323-1.145,5.549-2.552,13.667-4.117,23.827-.782,5.088-1.647,10.7-2.47,16.722-.42,3.022-.683,6.167-.9,9.427s-.387,6.587-.519,10.077c-.247,6.924-.4,14.235-.2,21.851.066,1.9.132,3.828.288,5.763.049.971.214,1.927.329,2.89a24.362,24.362,0,0,0,.7,2.849,16.227,16.227,0,0,0,2.733,5.212,11.692,11.692,0,0,0,4.676,3.606h0a71.594,71.594,0,0,0,12.21,4.66c4.257,1.276,8.653,2.305,13.116,3.219a180.354,180.354,0,0,0,29.475,3.59,136.882,136.882,0,0,0,14.071-.362c4.586-.321,9.056-.823,13.379-1.441a140.737,140.737,0,0,0,24.008-5.582,122.337,122.337,0,0,0,19.414-8.332v.272l-26.56-9.444-7.171-2.56-1.853-.675c-.42-.156-.626-.247-.626-.247l.634.206,1.869.634,7.2,2.47,26.676,9.3.321.107-.3.165a122.6,122.6,0,0,1-19.455,8.406,140.561,140.561,0,0,1-24.066,5.64c-4.331.65-8.81,1.136-13.4,1.457a137.6,137.6,0,0,1-14.112.379,180.1,180.1,0,0,1-29.549-3.59c-4.479-.922-8.884-1.951-13.173-3.227a72.858,72.858,0,0,1-12.284-4.7h0a12.119,12.119,0,0,1-4.874-3.738,16.647,16.647,0,0,1-2.791-5.352,24.006,24.006,0,0,1-.716-2.9c-.123-.988-.28-1.96-.329-2.931-.156-1.943-.222-3.878-.28-5.763-.2-7.64,0-14.952.23-21.884q.2-5.187.535-10.086c.222-3.293.494-6.422.922-9.444.823-6.051,1.7-11.642,2.47-16.722,1.647-10.16,3.079-18.27,4.273-23.81.593-2.775,1.12-4.9,1.548-6.323.181-.716.412-1.243.527-1.6A1.57,1.57,0,0,1,294.248,278.17Z" transform="translate(-283.381 -141.919)"/><path class="b" d="M329.74,353.844c10.135-11.222,9.69-31.171,3.87-45.324-.535,15.33-2.346,28.932-3.73,43.834" transform="translate(-291.572 -147.282)"/><path class="i" d="M333.652,312a2.278,2.278,0,0,1,0,.494c0,.371-.049.823-.09,1.4-.1,1.276-.231,3.022-.4,5.146-.362,4.4-.823,10.366-1.391,16.969l-1.334,16.977c-.156,2.124-.288,3.87-.387,5.146l-.124,1.391a3.276,3.276,0,0,1-.066.486,1.649,1.649,0,0,1,0-.486c0-.37,0-.823.041-1.408.041-1.219.132-2.98.247-5.154.255-4.347.667-10.358,1.21-16.985s1.087-12.622,1.523-16.96c.222-2.124.4-3.861.535-5.137.074-.568.132-1.029.173-1.391A1.816,1.816,0,0,1,333.652,312Z" transform="translate(-291.589 -147.896)"/><path class="i" d="M364.764,287.38a86.649,86.649,0,0,1,.214,8.7,86.791,86.791,0,0,1-.214,8.7c-.115,0-.214-3.9-.214-8.7S364.649,287.38,364.764,287.38Z" transform="translate(-297.722 -143.547)"/><path class="b" d="M356.79,319.477a8.909,8.909,0,0,0,1.869,4.611,6.006,6.006,0,0,0,4.446,2.363,6.784,6.784,0,0,0,5.986-3.005c1.894-3.013,2.363-9.3.823-13.009-1.046-2.552-3.392-4.94-6.15-5a6.811,6.811,0,0,0-6.669,5.187" transform="translate(-296.351 -146.737)"/><path class="i" d="M357.109,310.592a5.615,5.615,0,0,1,.667-1.778,7.326,7.326,0,0,1,1.358-1.787,6.356,6.356,0,0,1,2.569-1.5,6.433,6.433,0,0,1,1.721-.28,5.179,5.179,0,0,1,1.885.247,7.41,7.41,0,0,1,3.359,2.412,9.707,9.707,0,0,1,1.984,4.117,18.066,18.066,0,0,1,.362,4.882,13.482,13.482,0,0,1-2.1,7.105,6.423,6.423,0,0,1-2.733,2.058,7.342,7.342,0,0,1-3.1.519h0a4.618,4.618,0,0,1-2.215-.543,7.447,7.447,0,0,1-1.647-1.169,8.339,8.339,0,0,1-1.811-2.7,7.685,7.685,0,0,1-.576-2,4.343,4.343,0,0,1-.049-.543.559.559,0,0,1,0-.189,11.621,11.621,0,0,0,.823,2.651,8.357,8.357,0,0,0,1.828,2.577,7.277,7.277,0,0,0,1.647,1.087,4.364,4.364,0,0,0,2.058.486h0a6.586,6.586,0,0,0,5.475-2.47,13.265,13.265,0,0,0,1.992-6.883c.181-3.293-.371-6.537-2.223-8.727a7.131,7.131,0,0,0-3.195-2.3,5.1,5.1,0,0,0-1.77-.255,6.269,6.269,0,0,0-1.647.239,6.158,6.158,0,0,0-2.47,1.392,7.463,7.463,0,0,0-1.375,1.688A16.509,16.509,0,0,0,357.109,310.592Z" transform="translate(-296.349 -146.702)"/><path class="b" d="M354.45,319.678a8.933,8.933,0,0,0,1.869,4.611,5.992,5.992,0,0,0,4.446,2.363,6.792,6.792,0,0,0,5.986-3.005c1.894-3.022,2.363-9.3.823-13.009-1.046-2.56-3.392-4.94-6.15-5a6.809,6.809,0,0,0-6.669,5.179" transform="translate(-295.938 -146.773)"/><path class="i" d="M354.768,310.784a5.614,5.614,0,0,1,.667-1.77,7.327,7.327,0,0,1,1.358-1.787,6.356,6.356,0,0,1,4.29-1.778,5.2,5.2,0,0,1,1.885.247,7.409,7.409,0,0,1,3.359,2.412,9.6,9.6,0,0,1,1.976,4.117,17.735,17.735,0,0,1,.371,4.882,13.505,13.505,0,0,1-2.1,7.105,6.422,6.422,0,0,1-2.734,2.058,7.342,7.342,0,0,1-3.1.519h0a4.619,4.619,0,0,1-2.215-.552,7.172,7.172,0,0,1-1.647-1.161,8.151,8.151,0,0,1-1.811-2.709,7.639,7.639,0,0,1-.576-1.992,4.748,4.748,0,0,0-.058-.543.681.681,0,0,1,0-.189,11.644,11.644,0,0,0,.823,2.643,8.151,8.151,0,0,0,1.828,2.585,7.279,7.279,0,0,0,1.647,1.087,4.463,4.463,0,0,0,2.058.486h0a6.587,6.587,0,0,0,5.467-2.47,13.217,13.217,0,0,0,2-6.883c.181-3.293-.37-6.537-2.223-8.727a7.047,7.047,0,0,0-3.17-2.322,5.057,5.057,0,0,0-1.762-.255,6.208,6.208,0,0,0-4.117,1.647,7.464,7.464,0,0,0-1.375,1.688,14.851,14.851,0,0,0-.848,1.663Z" transform="translate(-295.934 -146.738)"/><path class="b" d="M357.641,310.8a4.224,4.224,0,0,0-4.421,2.544,7.3,7.3,0,0,0,0,5.376,6.677,6.677,0,0,0,1.375,2.42,3.623,3.623,0,0,0,2.47,1.194,4.3,4.3,0,0,0,3.4-2.009,7.69,7.69,0,0,0,1.161-6.315c-.379-1.433-1.433-2.89-2.906-2.931" transform="translate(-295.63 -147.679)"/><path class="i" d="M358.669,311.072H359a2.24,2.24,0,0,1,.9.3,4.388,4.388,0,0,1,1.877,2.832,7.714,7.714,0,0,1-.51,5.039,6.39,6.39,0,0,1-1.844,2.421,3.573,3.573,0,0,1-3.178.766,4.446,4.446,0,0,1-2.536-2.075,9.3,9.3,0,0,1-1.054-2.849,6.331,6.331,0,0,1,.823-4.94,4.429,4.429,0,0,1,2.865-1.828,3.234,3.234,0,0,1,.947,0c.206.041.313.074.313.091a6.48,6.48,0,0,0-1.227.074,4.372,4.372,0,0,0-2.651,1.836,6.067,6.067,0,0,0-.683,4.718,8.866,8.866,0,0,0,1.029,2.709,4.026,4.026,0,0,0,2.289,1.877,3.153,3.153,0,0,0,2.808-.675,6.281,6.281,0,0,0,1.745-2.256,7.541,7.541,0,0,0,.568-4.808,4.314,4.314,0,0,0-1.647-2.758A3.409,3.409,0,0,0,358.669,311.072Z" transform="translate(-295.587 -147.668)"/><path class="i" d="M362.812,326.8c-.066,0-.156-.263-.436-.593a3.063,3.063,0,0,0-1.408-.9,7.068,7.068,0,0,0-1.729-.272c-.453,0-.749-.074-.749-.132s.28-.123.749-.173a4.832,4.832,0,0,1,1.861.165,2.692,2.692,0,0,1,1.523,1.136C362.878,326.463,362.862,326.793,362.812,326.8Z" transform="translate(-296.651 -150.142)"/><path class="i" d="M363.494,309.45a1.852,1.852,0,0,1-.51.593,3.96,3.96,0,0,1-1.737.758,4.117,4.117,0,0,1-1.894-.1c-.461-.156-.708-.337-.683-.387a9.674,9.674,0,0,0,2.47.066A10.281,10.281,0,0,0,363.494,309.45Z" transform="translate(-296.683 -147.446)"/><path class="i" d="M433.24,237.82a.622.622,0,0,1,.272.1,7.167,7.167,0,0,1,.733.379,14.489,14.489,0,0,1,2.47,1.762,17.66,17.66,0,0,1,5.3,8.381,53.6,53.6,0,0,1,2.017,9.765c.148,1.268.222,2.3.272,3.005a4.987,4.987,0,0,1,0,1.111,6.271,6.271,0,0,1-.181-1.095c-.107-.782-.247-1.787-.4-2.98a63.054,63.054,0,0,0-2.132-9.682,18.244,18.244,0,0,0-5.088-8.283A27.612,27.612,0,0,0,433.24,237.82Z" transform="translate(-309.858 -134.791)"/><path class="i" d="M420.715,347.387c2.388-.091,4.3-2.47,6.685-2.338a3.305,3.305,0,1,1-.56,6.586c-2.511-.288-3.977-3.227-6.43-3.787" transform="translate(-307.591 -153.735)"/><path class="i" d="M439.652,335.631a14.112,14.112,0,0,1-2.231-.181l.132-.823a9.418,9.418,0,0,0,7.361-1.441c2.47-1.787,4.01-4.989,4.668-9.518V323.5c.272-1.795.642-37.008.642-43.694,0-10.448-9.164-11.872-9.559-11.93s-8.7-1.457-13.124,9.946c-4.627,11.946-12.029,34.967-12.514,37.667-.066.329-.156.741-.255,1.21-.774,3.458-2.371,10.646,2.421,14.779,5.343,4.619,9.559,2.832,9.732,2.758l.338.749c-.2.082-4.841,2.1-10.6-2.882-5.17-4.462-3.5-11.971-2.692-15.586.107-.461.189-.823.247-1.177.494-2.717,7.92-25.836,12.564-37.815s13.931-10.481,14-10.456,10.242,1.564,10.242,12.737c0,5.508-.362,41.907-.65,43.817v.165c-.692,4.759-2.371,8.143-5,10.069A9.476,9.476,0,0,1,439.652,335.631Z" transform="translate(-306.291 -139.945)"/><path class="i" d="M453.514,288.4a15.163,15.163,0,0,0-1.712-4.117,14.168,14.168,0,0,0-3.252-3.524,14,14,0,0,0-5.294-2.47,15.47,15.47,0,0,0-10.415,1.359,18.62,18.62,0,0,0-3.631,2.593A1.185,1.185,0,0,1,429.4,282a5.715,5.715,0,0,1,.617-.659,12.347,12.347,0,0,1,2.676-1.951,15.3,15.3,0,0,1,10.662-1.515,14.144,14.144,0,0,1,5.434,2.6,13.668,13.668,0,0,1,3.293,3.68,10.7,10.7,0,0,1,1.268,3.063,6.733,6.733,0,0,1,.173.889A1.086,1.086,0,0,1,453.514,288.4Z" transform="translate(-309.146 -141.802)"/><path class="i" d="M480.136,367.972A28.978,28.978,0,0,0,479,364.465a15.281,15.281,0,0,0-5.582-6.7,12.128,12.128,0,0,0-4.528-1.647,38.951,38.951,0,0,0-3.993-.412l-2.709-.189a4.741,4.741,0,0,1-.988-.132,4.12,4.12,0,0,1,1,0l2.717.049a34.168,34.168,0,0,1,4.034.329,12.11,12.11,0,0,1,4.7,1.647,14.894,14.894,0,0,1,5.632,6.949,13.17,13.17,0,0,1,.757,2.626A3.76,3.76,0,0,1,480.136,367.972Z" transform="translate(-314.798 -155.556)"/><path class="j" d="M433.75,349.212s8.1-12.259,10.168-13.865,19.76-9.592,21.81-8.307.823,4.067.823,4.067,7.476-2.618,8.274-1.589a3.7,3.7,0,0,1,0,4.216s4.117-.634,4.117.642a5.245,5.245,0,0,1-2.388,4.3c-1.91,1.433-14.334,9.7-15.33,11.988l-4.026-.247Z" transform="translate(-309.948 -150.529)"/><path class="r" d="M462.05,347.161a3.51,3.51,0,0,1,.371-.774,14.98,14.98,0,0,1,1.334-1.91,22.231,22.231,0,0,1,5.87-4.94,44.4,44.4,0,0,1,6.949-3.293c.914-.354,1.647-.617,2.182-.823a3.6,3.6,0,0,1,.823-.231,3.126,3.126,0,0,1-.766.387l-2.132.914a56.433,56.433,0,0,0-6.834,3.351,24.547,24.547,0,0,0-5.862,4.767C462.7,346.132,462.124,347.2,462.05,347.161Z" transform="translate(-314.948 -151.994)"/><path class="r" d="M449.58,346.375a4.178,4.178,0,0,1,.4-.9c.28-.568.683-1.383,1.243-2.371a22.674,22.674,0,0,1,2.231-3.293,10.283,10.283,0,0,1,1.7-1.688c.683-.461,1.4-.889,2.149-1.334a58.519,58.519,0,0,1,7.9-3.935,21.309,21.309,0,0,1,2.536-.823,4.718,4.718,0,0,1,.972-.173c0,.074-1.342.387-3.392,1.309a74.4,74.4,0,0,0-7.805,4.026c-.741.436-1.457.873-2.124,1.309a10.283,10.283,0,0,0-1.647,1.589,24.018,24.018,0,0,0-2.272,3.211l-1.367,2.289A4.379,4.379,0,0,1,449.58,346.375Z" transform="translate(-312.745 -151.405)"/></g><g transform="translate(0.02 334.795)"><path class="i" d="M592.06,451.334c0,.115-124.02.214-276.975.214s-277.025-.1-277.025-.214,124-.214,277.025-.214S592.06,451.219,592.06,451.334Z" transform="translate(-38.06 -451.12)"/></g></g></svg>