<svg xmlns="http://www.w3.org/2000/svg" xmlns:xlink="http://www.w3.org/1999/xlink" width="302.533" height="229.773" viewBox="0 0 302.533 229.773">
  <defs>
    <linearGradient id="linear-gradient" x1="0.5" y1="-0.026" x2="0.5" y2="1.604" gradientUnits="objectBoundingBox">
      <stop offset="0" stop-color="#ffd8a0"/>
      <stop offset="1" stop-color="#96732b"/>
    </linearGradient>
    <linearGradient id="linear-gradient-2" x1="0.699" y1="1.412" x2="1.23" y2="-0.505" gradientUnits="objectBoundingBox">
      <stop offset="0" stop-color="#30944c"/>
      <stop offset="0.41" stop-color="#8aba62"/>
      <stop offset="0.816" stop-color="#dede76"/>
      <stop offset="1" stop-color="#ffed7f"/>
    </linearGradient>
    <linearGradient id="linear-gradient-3" x1="0.901" y1="1.099" x2="2.804" y2="0.975" xlink:href="#linear-gradient-2"/>
    <linearGradient id="linear-gradient-4" x1="0.689" y1="1.571" x2="1.624" y2="0.352" xlink:href="#linear-gradient-2"/>
    <linearGradient id="linear-gradient-5" x1="-0.015" y1="0.5" x2="1.03" y2="0.5" gradientUnits="objectBoundingBox">
      <stop offset="0" stop-color="#44a552"/>
      <stop offset="0.434" stop-color="#58bc61"/>
      <stop offset="1" stop-color="#79e27a"/>
    </linearGradient>
    <linearGradient id="linear-gradient-6" x1="1.03" y1="0.523" x2="-0.104" y2="0.474" xlink:href="#linear-gradient-5"/>
    <linearGradient id="linear-gradient-7" x1="1.024" y1="1.021" x2="-0.218" y2="-0.081" gradientUnits="objectBoundingBox">
      <stop offset="0" stop-color="#be73de"/>
      <stop offset="1" stop-color="#514eb7"/>
    </linearGradient>
    <linearGradient id="linear-gradient-8" x1="0" y1="0.5" x2="1" y2="0.5" xlink:href="#linear-gradient-7"/>
    <linearGradient id="linear-gradient-9" x1="0.959" y1="-2.894" x2="0.343" y2="1.658" xlink:href="#linear-gradient-7"/>
    <linearGradient id="linear-gradient-10" x1="0.504" y1="-0.774" x2="0.487" y2="4.338" xlink:href="#linear-gradient-7"/>
    <linearGradient id="linear-gradient-11" x1="0.071" y1="1.29" x2="1.121" y2="-0.643" xlink:href="#linear-gradient-2"/>
    <linearGradient id="linear-gradient-12" x1="-0.4" y1="0.49" x2="1.758" y2="0.523" xlink:href="#linear-gradient-2"/>
    <linearGradient id="linear-gradient-13" x1="1.284" y1="0.401" x2="-0.911" y2="0.627" xlink:href="#linear-gradient-2"/>
    <linearGradient id="linear-gradient-14" x1="-0.332" y1="-0.432" x2="1.746" y2="1.602" xlink:href="#linear-gradient-2"/>
    <linearGradient id="linear-gradient-15" x1="1.213" y1="1.281" x2="-0.308" y2="-0.647" xlink:href="#linear-gradient-2"/>
    <linearGradient id="linear-gradient-16" x1="1.188" y1="0.058" x2="-0.504" y2="1.145" xlink:href="#linear-gradient-7"/>
    <linearGradient id="linear-gradient-17" x1="1.206" y1="0.466" x2="-0.576" y2="0.551" xlink:href="#linear-gradient-2"/>
    <clipPath id="clip-path">
      <rect id="Rectangle_7416" data-name="Rectangle 7416" width="109" height="65" rx="5" transform="translate(48.198 -19.24)" fill="url(#linear-gradient)"/>
    </clipPath>
    <linearGradient id="linear-gradient-19" x1="0.627" y1="0.634" x2="0.193" y2="0.29" gradientUnits="objectBoundingBox">
      <stop offset="0" stop-color="#312a6c"/>
      <stop offset="1" stop-color="#852d91"/>
    </linearGradient>
    <linearGradient id="linear-gradient-20" x1="1.65" y1="0.5" x2="-0.081" y2="0.5" gradientUnits="objectBoundingBox">
      <stop offset="0" stop-color="#ff6c91"/>
      <stop offset="0.323" stop-color="#ff4486"/>
      <stop offset="0.699" stop-color="#a10068"/>
      <stop offset="1" stop-color="#580055"/>
    </linearGradient>
    <linearGradient id="linear-gradient-21" x1="1.153" y1="0.5" x2="-0.192" y2="0.5" xlink:href="#linear-gradient-20"/>
    <linearGradient id="linear-gradient-22" x1="0.811" y1="0.93" x2="-0.106" y2="-0.327" xlink:href="#linear-gradient-2"/>
    <linearGradient id="linear-gradient-23" x1="0.22" y1="0.972" x2="0.979" y2="-0.16" xlink:href="#linear-gradient-2"/>
    <linearGradient id="linear-gradient-24" x1="0" y1="0.5" x2="1" y2="0.5" xlink:href="#linear-gradient-2"/>
    <linearGradient id="linear-gradient-25" x1="0.78" y1="0.951" x2="0.169" y2="-0.58" gradientUnits="objectBoundingBox">
      <stop offset="0" stop-color="gray"/>
      <stop offset="0.639" stop-color="#51514c"/>
      <stop offset="1" stop-color="#3c3c35"/>
    </linearGradient>
    <linearGradient id="linear-gradient-26" x1="0.597" y1="3.913" x2="0.325" y2="-5.663" xlink:href="#linear-gradient-25"/>
    <linearGradient id="linear-gradient-27" x1="0.31" y1="1.056" x2="1.03" y2="-0.162" xlink:href="#linear-gradient-2"/>
    <linearGradient id="linear-gradient-28" x1="0.839" y1="1.184" x2="-0.16" y2="-0.165" xlink:href="#linear-gradient-2"/>
    <linearGradient id="linear-gradient-29" x1="0.859" y1="1.085" x2="-0.26" y2="-0.073" xlink:href="#linear-gradient-2"/>
    <linearGradient id="linear-gradient-30" x1="0.141" y1="1.072" x2="1.175" y2="0.034" xlink:href="#linear-gradient-2"/>
    <linearGradient id="linear-gradient-35" y1="0.5" x2="1" y2="0.5" gradientUnits="objectBoundingBox">
      <stop offset="0" stop-color="#ffd571"/>
      <stop offset="0.251" stop-color="#ffbc60"/>
      <stop offset="0.778" stop-color="#ff7f34"/>
      <stop offset="1" stop-color="#ff6421"/>
    </linearGradient>
    <linearGradient id="linear-gradient-38" y1="0.5" x2="1" y2="0.5" gradientUnits="objectBoundingBox">
      <stop offset="0" stop-color="#7de1f6"/>
      <stop offset="0.069" stop-color="#73d8f3"/>
      <stop offset="0.708" stop-color="#208be2"/>
      <stop offset="1" stop-color="#006ddb"/>
    </linearGradient>
  </defs>
  <g id="Object" transform="translate(-755.184 -97)">
    <g id="Group_4035" data-name="Group 4035" transform="translate(755.184 97)">
      <g id="Group_3904" data-name="Group 3904" transform="translate(63.618 61.15)">
        <g id="Group_3899" data-name="Group 3899" transform="translate(0 34.274)">
          <g id="Group_3898" data-name="Group 3898">
            <path id="Path_12268" data-name="Path 12268" d="M1204.713,684.2s-39.317,6.939-59.251-8.231c-24.442-18.6-29.7-34.585-29.7-34.585S1170.246,619.608,1204.713,684.2Z" transform="translate(-1115.766 -637.855)" fill="url(#linear-gradient-2)"/>
            <path id="Path_12269" data-name="Path 12269" d="M1129.182,669.7l.826-.438,8.69-4.622c-15.275-6.53-22.931-7.977-22.931-7.977a116.192,116.192,0,0,1,22.942,5.773l-3.741-6.034,6.666,7.092c3.529,1.314,7.033,2.75,10.475,4.264l-6.956-8.62,9.747,9.869c2.807,1.281,5.563,2.606,8.249,3.953l-8.763-12.8,12.789,14.859c3.686,1.923,7.2,3.861,10.5,5.748l-5.451-11.1,10.412,13.994c3.33,1.984,6.351,3.862,8.981,5.541l-7.767-11.821,12.522,14.285c3.6,2.631,7.246,5.8,7.246,5.8l1.1,2.007-3.2.469a61.21,61.21,0,0,0-7.538-5.78l-15.115.309,10.879-2.682q-4.349-2.69-8.441-5.114l-17.644,3.245,13.788-5.511q-5.771-3.353-11-6.192l-16.249,3.566,12.907-5.364q-4.579-2.437-8.717-4.5l-17.073,2.517,13.2-4.419q-5.372-2.594-9.916-4.568Z" transform="translate(-1115.766 -653.129)" fill="#149173"/>
          </g>
        </g>
        <g id="Group_3901" data-name="Group 3901" transform="translate(60.089)">
          <g id="Group_3900" data-name="Group 3900">
            <path id="Path_12270" data-name="Path 12270" d="M1482.81,525.972s13.7-31.185,5.155-50.774c-10.479-24.02-22.663-31.6-22.663-31.6S1436.236,484.346,1482.81,525.972Z" transform="translate(-1456.343 -443.593)" fill="url(#linear-gradient-3)"/>
            <path id="Path_12271" data-name="Path 12271" d="M1492.3,457.348l-.53.6-5.588,6.268c-2.325-13.981-1.976-20.619-1.976-20.619a99.127,99.127,0,0,0,.147,20.182l-4.245-4.32,4.531,6.958c.376,3.191.858,6.385,1.417,9.544l-5.739-7.508,6.209,10.074c.494,2.586,1.036,5.137,1.609,7.636l-8.839-9.851,9.731,13.6c.849,3.444,1.744,6.752,2.642,9.864l-8.1-6.761,9.494,11.459c.971,3.161,1.917,6.045,2.778,8.564l-8.228-8.828,9.309,13.267c1.454,3.513,3.346,7.179,3.346,7.179l1.442,1.315,1.035-2.556A52.224,52.224,0,0,1,1499.48,516l3.312-12.466-4.422,8.475q-1.35-4.148-2.532-8.03l6.256-13.968-7.355,10.314q-1.613-5.461-2.909-10.37l6.24-12.747-7.055,9.614q-1.094-4.288-1.965-8.134l5.538-13.642-6.331,10.045c-.709-3.318-1.3-6.365-1.782-9.142Z" transform="translate(-1475.245 -443.593)" fill="#149173"/>
          </g>
        </g>
        <g id="Group_3903" data-name="Group 3903" transform="translate(40.868 23.84)">
          <g id="Group_3902" data-name="Group 3902">
            <path id="Path_12272" data-name="Path 12272" d="M1394.016,636.364s-1.61-29.872-16.065-41.845c-17.727-14.68-30.282-15.8-30.282-15.8S1341.021,622.174,1394.016,636.364Z" transform="translate(-1347.401 -578.717)" fill="url(#linear-gradient-4)"/>
            <path id="Path_12273" data-name="Path 12273" d="M1360.708,586.295l-.179.677-1.9,7.126c-7.359-10.039-9.714-15.381-9.714-15.381a87.057,87.057,0,0,0,8.107,15.763l-5.038-1.706,6.307,3.661c1.558,2.352,3.2,4.666,4.89,6.921l-7.472-3.613,8.857,5.439c1.411,1.831,2.846,3.617,4.285,5.349l-10.83-4.222,13.016,6.812c2.029,2.364,4.041,4.6,5.977,6.686l-9.024-2.094,11.981,5.223c2.013,2.094,3.9,3.98,5.569,5.614l-9.946-3.662,12.552,6.714c2.531,2.179,5.466,4.3,5.466,4.3l1.651.46-.2-2.414a45.858,45.858,0,0,1-5.5-4.52l-2.34-11.084-.11,8.395q-2.7-2.717-5.165-5.292l-.627-13.428-1.681,11q-3.427-3.642-6.387-6.978l-.156-12.464-1.723,10.33q-2.556-2.929-4.761-5.6l-1.061-12.887-.985,10.382q-2.8-3.48-5.017-6.461Z" transform="translate(-1348.65 -578.717)" fill="#149173"/>
          </g>
        </g>
      </g>
      <g id="Group_3908" data-name="Group 3908" transform="translate(0 213.704)">
        <g id="Group_3907" data-name="Group 3907" style="isolation: isolate">
          <g id="Group_3905" data-name="Group 3905" transform="translate(0 6.581)" style="isolation: isolate">
            <path id="Path_12274" data-name="Path 12274" d="M2468.922,1345.555v2.907a.478.478,0,0,1-.211.351v-2.907a.478.478,0,0,0,.211-.351" transform="translate(-2166.39 -1345.555)" fill="#21692b"/>
            <path id="Path_12275" data-name="Path 12275" d="M1057.716,1345.555a.5.5,0,0,1-.237.37c-.031.025-.066.049-.1.074l-.052.033q-.056.034-.121.068l-.058.031c-.059.03-.123.06-.191.089l-.016.007c-.075.032-.156.064-.241.1l-.1.036-.137.048-.116.038-.149.047-.128.038-.162.047-.139.038-.175.046-.151.038-.188.046-.161.038-.2.046-.171.038-.218.046-.18.037-.234.046-.195.038-.149.028-.258.047-.163.029-.267.046-.167.028-.295.049-.156.025-.37.058-.1.016-.488.073-.132.019-.376.054-.188.026-.34.047-.21.028-.34.045-.218.028-.364.046-.207.026-.44.053-.147.018-.61.071-.114.013-.51.057-.22.024-.425.046-.252.027-.414.043-.263.027-.433.044-.256.026-.491.048-.212.021-.72.068-.086.008-.65.06-.256.023-.5.045-.295.026-.482.041-.311.026-.49.041-.311.026-.553.045-.255.021-.822.065h-.007l-.845.065-.281.021-.582.044-.331.024-.553.04-.353.025-.553.039-.351.025-.6.041-.314.022-.774.052-.157.01-.943.062-.293.019-.676.043-.36.022-.623.039-.388.024-.622.038-.385.023-.655.038-.372.022-.762.044-.266.015-1.043.058-.255.014-.8.044-.386.021-.691.037-.425.022-.688.036-.414.021-.718.036-.4.02-.82.041-.3.015-1.138.055-.218.01-.933.044-.413.019-.752.035-.464.021-.731.033-.469.021-.753.033-.449.02-.844.036-.372.016-1.219.051-.153.006-1.094.045-.4.016-.852.034-.493.019-.774.03-.514.02-.8.031-.481.018-.871.033-.431.016-1.2.044-.1,0-1.312.047-.443.015-.9.031-.506.017-.846.029-.545.018-.827.027-.537.018-.91.029-.461.015-1.162.036-.223.007-1.389.042-.443.013-.974.029-.527.015-.9.026-.567.016-.883.025-.567.016-.905.025-.551.015-1.08.029-.369.01-1.472.038-.328.009-1.138.029-.563.014-.933.023-.6.015-.92.022-.591.014-.974.023-.549.012-1.088.025-.444.01-1.53.034-.279.006-1.257.027-.563.012-1,.021-.626.013-.953.019-.62.012-.991.019-.607.012-1.041.019-.552.01-1.589.029h-.02l-1.585.028-.512.009-1.1.019-.629.01-1.009.016-.634.01-1.034.016-.619.01-1.1.016-.548.008-1.48.021-.172,0-1.658.023-.522.007-1.149.015-.653.008-1.017.013-.7.009-1.034.012-.646.008-1.109.013-.6.007-1.346.015-.357,0-1.7.018-.506,0-1.222.012-.643.006-1.086.01-.678.006-1.1.009-.653.005-1.135.009-.623.005-1.334.01-.414,0-1.762.012-.389,0-1.38.009-.637,0-1.12.006-.728,0-1.066.006-.733,0-1.1.005-.689,0-1.263.005-.52,0-1.8.006h-.268l-1.538,0-.607,0-1.215,0H913.8l-1.123,0h-.734l-1.146,0H906.45c-83.542,0-151.266-2.946-151.266-6.581v2.907c0,3.635,67.724,6.581,151.266,6.581H910.8l1.146,0h.734l1.123,0,.686,0,1.215,0h.607l1.538,0h.268l1.8-.006.52,0,1.263-.005.689,0,1.1-.005.733,0,1.066-.005.728,0,1.12-.007.637,0,1.38-.009.389,0,1.762-.012.414,0,1.334-.01.623,0,1.135-.009.653-.005,1.1-.01.678-.006,1.086-.01.643-.006,1.222-.012.506-.005,1.7-.018.357,0,1.346-.015.6-.007,1.109-.013.646-.008,1.034-.012.7-.009,1.017-.013.653-.008,1.149-.015.522-.007,1.658-.023.172,0,1.48-.021.548-.008,1.1-.017.619-.01,1.034-.016.634-.01,1.009-.016.629-.01,1.1-.018.512-.009,1.585-.028h.02l1.589-.029.552-.01,1.041-.02.607-.011.991-.019.62-.012.953-.019.626-.013,1-.021.563-.012,1.257-.027.279-.006,1.53-.033.444-.01,1.088-.025.549-.013.974-.023.591-.014.92-.022.6-.015.933-.023.563-.014,1.138-.029.328-.008,1.472-.038.369-.01,1.08-.029.551-.015.905-.025.567-.016.883-.025.567-.016.9-.026.527-.016.974-.029.443-.013,1.389-.042.223-.007,1.162-.036.461-.015.91-.029.537-.017.827-.027.545-.018.846-.029.506-.017.9-.031.443-.015,1.313-.047.1,0,1.2-.044.431-.016.871-.032.481-.018.8-.031.514-.02.774-.03.493-.019.852-.034.4-.016,1.094-.045.153-.006,1.219-.051.372-.016.844-.036.449-.02.753-.033.469-.021.731-.033.464-.021.752-.035.413-.019.933-.044.218-.01,1.138-.055.3-.015.82-.041.4-.02.718-.036.414-.021.688-.036.425-.022.691-.037.386-.021.8-.044.255-.014,1.043-.059.266-.015.762-.044.372-.022.655-.039.385-.023.622-.037.388-.024.623-.039.36-.022.676-.043.293-.019.943-.061.157-.011.774-.052.314-.021.6-.042.351-.025.553-.039.353-.025.553-.04.331-.024.582-.043.281-.021.845-.065h.007l.822-.065.255-.021.553-.045.311-.026.49-.041.311-.026.482-.042.295-.026.5-.045.256-.023.65-.06.086-.008.72-.068.212-.021.491-.048.256-.026.433-.044.263-.027.414-.043.252-.027.425-.046.22-.024.51-.057.114-.013.61-.071.147-.018.44-.053.207-.026.364-.046.218-.028.34-.044.21-.028.34-.047.188-.026.376-.054.132-.019.488-.073.1-.016.37-.058.156-.025.295-.048.167-.029.267-.046.163-.029.258-.047.149-.028.059-.011.135-.027.234-.046.18-.037.218-.046.171-.038.2-.046.161-.038.188-.046.151-.038.175-.046.139-.038.162-.047.128-.038.149-.047.116-.038.137-.048.078-.027.022-.009c.085-.032.166-.064.241-.1l.016-.007c.068-.03.132-.059.191-.089l.058-.03c.043-.023.083-.046.121-.068l.052-.032c.038-.025.072-.049.1-.074l.026-.019h0a.479.479,0,0,0,.211-.35Z" transform="translate(-755.184 -1345.555)" fill="url(#linear-gradient-5)"/>
          </g>
          <g id="Group_3906" data-name="Group 3906" transform="translate(0)">
            <ellipse id="Ellipse_669" data-name="Ellipse 669" cx="151.266" cy="6.581" rx="151.266" ry="6.581" fill="url(#linear-gradient-6)"/>
          </g>
        </g>
      </g>
      <g id="Group_3912" data-name="Group 3912" transform="translate(59.521 103.961)">
        <path id="Path_12276" data-name="Path 12276" d="M1378.409,894.648h-37.488l-17.166,8.838a1.447,1.447,0,0,0-.8,1.313v65.655a1.482,1.482,0,0,0,1.48,1.476h107.951a1.481,1.481,0,0,0,1.478-1.476V904.8a1.446,1.446,0,0,0-.8-1.313l-17.165-8.838Z" transform="translate(-1282.302 -857.878)" fill-rule="evenodd" fill="url(#linear-gradient-7)"/>
        <path id="Path_12277" data-name="Path 12277" d="M1393.165,896.176v8.274h-51.6l15.31-8.274Z" transform="translate(-1297.629 -859.136)" fill-rule="evenodd" fill="url(#linear-gradient-8)"/>
        <path id="Path_12278" data-name="Path 12278" d="M1640.506,896.176v8.274h51.6l-15.309-8.274Z" transform="translate(-1543.828 -859.136)" fill-rule="evenodd" fill="url(#linear-gradient-9)"/>
        <path id="Path_12279" data-name="Path 12279" d="M1431.577,896.176h72.581v8.274h-72.581Z" transform="translate(-1371.76 -859.136)" fill-rule="evenodd" fill="url(#linear-gradient-10)"/>
        <rect id="Rectangle_7407" data-name="Rectangle 7407" width="20.422" height="68.71" transform="translate(85.736 45.343)" fill="url(#linear-gradient-11)"/>
        <path id="Path_12280" data-name="Path 12280" d="M1322.591,976.879l17.9-33.641h-17.979Z" transform="translate(-1281.939 -897.895)" opacity="0.1"/>
        <g id="Group_3911" data-name="Group 3911">
          <g id="Group_3909" data-name="Group 3909" transform="translate(0.564 47.86)">
            <path id="Path_12281" data-name="Path 12281" d="M1114.135,1004.9c.656,5.718,13.389,3.673,17.415.749l-2.161,4.123s-14.023,8.753-19.024.412C1110.309,1008.208,1114.135,1004.9,1114.135,1004.9Z" transform="translate(-1107.785 -996.54)" fill="url(#linear-gradient-12)"/>
            <path id="Path_12282" data-name="Path 12282" d="M1123.375,961.024c-6.475-4.494-21.858-5.634-27.133,2.3-2.214,4.821,3.656,9.717,3.656,9.717s2.341-12.815,22.04-10.165A2.637,2.637,0,0,0,1123.375,961.024Z" transform="translate(-1095.743 -957.503)" fill="url(#linear-gradient-13)"/>
          </g>
          <g id="Group_3910" data-name="Group 3910" transform="translate(14.446 23.737)">
            <path id="Path_12283" data-name="Path 12283" d="M1209.381,828.126c5.075-2.716,10.64,8.918,10.528,13.892l2.161-4.123s-.784-16.512-10.49-15.876C1209.92,823.1,1209.381,828.126,1209.381,828.126Z" transform="translate(-1203.213 -821.785)" fill="url(#linear-gradient-14)"/>
            <path id="Path_12284" data-name="Path 12284" d="M1188.721,847.373c-7.381-2.766-17.074-14.765-13.556-23.615,2.7-4.564,10.07-2.525,10.07-2.525s-9.2,9.219,4.187,23.907A2.637,2.637,0,0,1,1188.721,847.373Z" transform="translate(-1174.421 -820.779)" fill="url(#linear-gradient-15)"/>
          </g>
          <path id="Path_12285" data-name="Path 12285" d="M1111.475,799.823a1.446,1.446,0,0,1-1.535.1l-16.6-8.7a1.48,1.48,0,0,1-.622-2l26.775-51.1,26.775-51.1a1.48,1.48,0,0,1,1.995-.623l16.6,8.7a1.447,1.447,0,0,1,.791,1.319Z" transform="translate(-1092.544 -686.239)" fill-rule="evenodd" fill="url(#linear-gradient-16)"/>
          <path id="Path_12286" data-name="Path 12286" d="M1245.258,980.351" transform="translate(-1218.314 -928.46)" fill="#ededed" fill-rule="evenodd"/>
          <path id="Path_12287" data-name="Path 12287" d="M1219.782,947.089l4.6-8.771,4.6-8.77,19.075,10-9.191,17.542Z" transform="translate(-1197.333 -886.62)" fill-rule="evenodd" fill="url(#linear-gradient-17)"/>
          <path id="Path_12288" data-name="Path 12288" d="M1187.736,839.539l27.462-52.412,27.459-52.406,1.743.913-54.922,104.818Z" transform="translate(-1170.941 -726.167)" fill-rule="evenodd" opacity="0.1"/>
        </g>
        <g id="Mask_Group_3" data-name="Mask Group 3" clip-path="url(#clip-path)">
          <g id="Group_4058" data-name="Group 4058" transform="translate(44.953 -8.541)">
            <path id="Path_12413" data-name="Path 12413" d="M553.8,529.878,532.047,507.31a9,9,0,0,0-.107-12.715l70.711-68.165a9,9,0,0,0,12.7.573l21.755,22.568a9,9,0,0,0,.107,12.715L566.5,530.451A9,9,0,0,0,553.8,529.878Z" transform="translate(-531.94 -426.43)" fill="url(#linear-gradient)"/>
            <g id="Group_4047" data-name="Group 4047" transform="translate(5.295 5.486)">
              <path id="Path_12414" data-name="Path 12414" d="M600.62,559.214,664.747,497.4l-.5-.52a7.074,7.074,0,0,1,.208-9.99l.52-.5-19.32-20.042-.52.5a7.074,7.074,0,0,1-9.991-.158l-.5-.52-64.127,61.819.5.52a7.073,7.073,0,0,1-.208,9.99l-.52.5,19.32,20.042.52-.5a7.073,7.073,0,0,1,9.991.159Zm62.107-61.877-62.092,59.857a8.525,8.525,0,0,0-10.969-.177L572.309,539.01a8.524,8.524,0,0,0,.225-10.968l62.092-59.857a8.524,8.524,0,0,0,10.969.177l17.358,18.006A8.525,8.525,0,0,0,662.727,497.337Z" transform="translate(-570.288 -466.165)" fill="#fff"/>
            </g>
          </g>
          <g id="Icon" transform="matrix(0.695, -0.719, 0.719, 0.695, 80.274, 36.596)">
            <path id="Path_2463" data-name="Path 2463" d="M319.7,254.168a12.437,12.437,0,0,1,10.739-13.938c2.79-.371,6.105.438,6.8,3.59,3.23-5.68-6.494-9.151-11.551-7.466a17.4,17.4,0,0,0-10.925,18.471,17.71,17.71,0,0,0,.423,2.14c1.387,3.607,3.906,3.573,5.716,1.129a12.651,12.651,0,0,1-1.2-3.927Z" transform="translate(-314.609 -235.159)" fill-rule="evenodd" fill="url(#linear-gradient-19)"/>
            <path id="Path_2464" data-name="Path 2464" d="M506.278,228.979a7.215,7.215,0,0,1,1.032,3c.135,1.314.236,2.157.287,2.494.592,4.585,10.316-3.707,4.887-7.769a17.423,17.423,0,0,0-12.633-3.236,17.154,17.154,0,0,0-4.093,1.045,10.314,10.314,0,0,1,10.519,4.466Z" transform="translate(-484.684 -223.317)" fill-rule="evenodd" fill="url(#linear-gradient-20)"/>
            <path id="Path_2465" data-name="Path 2465" d="M337.5,443.891l-7.441,5.8c-2.469,1.921-4.5,2.461-6.071-.86a16.912,16.912,0,0,0,1.64,4.062c1.268,2.107,3.687,4.045,6.054,2.376l4.583-3.185c1.336-.927,2.4-1.534,2.858.607l1.133,5.409c.423,2.056,2.588,2.309,3.975.708l8.794-10.045c1.285-1.466,2.486-1.2,2.486.759a12.766,12.766,0,0,1-2.909,7.769,17.462,17.462,0,0,0,5.682-11.679c0-.185.017-.371.017-.556h0c.067-3.438-2.114-6.371-4.735-3.893-.913.86-3.924,4.112-9.132,9.607-1.116,1.162-2,.758-2.266-.759l-.879-5.022c-.423-2.393-2.182-2.342-3.788-1.1Z" transform="translate(-323.413 -427.022)" fill-rule="evenodd" fill="url(#linear-gradient-21)"/>
          </g>
        </g>
      </g>
      <g id="Group_4007" data-name="Group 4007" transform="translate(256.099 157.754)">
        <g id="Group_4006" data-name="Group 4006">
          <g id="Group_4003" data-name="Group 4003" transform="translate(0 10.054)">
            <path id="Path_12368" data-name="Path 12368" d="M2225.183,1065.061c-1.344-.71-2.878-1.16-3.941-2.246-1.909-1.948-1.658-5.234-3.32-7.4-1.539-2-4.381-2.614-6-4.553-.9-1.079-1.605-2.662-3.009-2.743-1.44-.083-2.386,1.671-2.145,3.093a11.09,11.09,0,0,0,1.99,3.805c1.287,2.049-.057,3.641.046,6.059.122,2.842,3.842,3.634,5.2,6.133,1.53,2.814-1.3,4.573,1.147,8.167,1.871,2.748,4.061,3.135,5.229,6.444.961,2.72,5.264,2.988,7.794,1.6C2235.094,1079.64,2230.575,1067.911,2225.183,1065.061Z" transform="translate(-2206.73 -1048.12)" fill="url(#linear-gradient-22)"/>
            <path id="Path_12369" data-name="Path 12369" d="M2243.829,1104.653q-1.865-2.589-3.671-5.218-.11-2.2-.239-4.409a10.4,10.4,0,0,0-.3-3.3.257.257,0,0,0-.291-.119l-.085.031a.263.263,0,0,0-.189.249l.009.073a9.867,9.867,0,0,0,.22,1.071q.031.5.062,1,.053.871.1,1.743c.054.948.1,1.9.152,2.845q-3.671-5.351-7.13-10.841.019-3.063-.144-6.121c-.018-.33-.534-.332-.516,0q.142,2.644.145,5.289-3.016-4.835-5.865-9.775a.258.258,0,0,0-.446.26q2.769,4.811,5.707,9.519l-2.8-2.073c-.267-.2-.524.25-.26.446l3.787,2.809,0,0q3.32,5.281,6.851,10.426a36.423,36.423,0,0,0-4.662-2.541c-.3-.136-.562.309-.26.446a36.425,36.425,0,0,1,5.694,3.224q1.815,2.628,3.676,5.225C2243.576,1105.181,2244.024,1104.923,2243.829,1104.653Z" transform="translate(-2222.277 -1071.943)" fill="#2d9678"/>
          </g>
          <g id="Group_4004" data-name="Group 4004" transform="translate(12.098 8.551)">
            <path id="Path_12370" data-name="Path 12370" d="M2292.625,1063.131c-.108-1.506-.536-3.034-.18-4.5.638-2.632,3.538-4.148,4.486-6.684.878-2.349-.1-5.064.683-7.447.436-1.326,1.4-2.751.729-3.976-.687-1.257-2.662-1.132-3.733-.182a11.014,11.014,0,0,0-2.16,3.676c-1.05,2.161-3.1,1.865-5.08,3.223-2.33,1.6-1.042,5.146-2.433,7.6-1.566,2.768-4.536,1.308-6.277,5.259-1.332,3.021-.507,5.069-2.68,7.792-1.786,2.239.249,6,2.746,7.408C2285.552,1079.142,2293.058,1069.171,2292.625,1063.131Z" transform="translate(-2275.302 -1039.604)" fill="url(#linear-gradient-23)"/>
            <path id="Path_12371" data-name="Path 12371" d="M2305.215,1095.817c.8-1.954,1.628-3.9,2.467-5.835q1.8-1.251,3.588-2.518a10.346,10.346,0,0,0,2.618-1.986.255.255,0,0,0-.053-.307l-.071-.056a.261.261,0,0,0-.309-.029l-.057.046a9.837,9.837,0,0,0-.786.748l-.806.576q-.706.5-1.414,1-1.155.816-2.317,1.623,2.579-5.9,5.385-11.7,2.59-1.593,5.08-3.338c.269-.188,0-.624-.271-.434q-2.152,1.509-4.38,2.9,2.488-5.082,5.152-10.078a.256.256,0,0,0-.453-.238q-2.6,4.861-5.02,9.81l.277-3.445c.027-.329-.486-.311-.512.015q-.188,2.333-.375,4.667s0,0,0,0q-2.7,5.572-5.183,11.251a36.172,36.172,0,0,0-.31-5.262c-.043-.324-.556-.312-.512.015a36.2,36.2,0,0,1,.277,6.491q-1.261,2.91-2.47,5.842C2304.638,1095.881,2305.09,1096.123,2305.215,1095.817Z" transform="translate(-2299.547 -1061.391)" fill="#2d9678"/>
          </g>
          <g id="Group_4005" data-name="Group 4005" transform="translate(9.36)">
            <path id="Path_12372" data-name="Path 12372" d="M2261.248,1017.865c.872-1.51,2.086-2.882,2.457-4.586.665-3.057-1.583-6.094-1.289-9.208.272-2.884,2.659-5.211,3.047-8.081.216-1.6-.065-3.564,1.248-4.5,1.348-.959,3.336.166,3.97,1.694s.39,3.255.39,4.909c0,2.775,2.278,3.5,3.652,5.911,1.616,2.834-1.513,5.873-1.307,9.128.232,3.666,4.053,3.647,3.87,8.63-.14,3.81-2.03,5.522-1.146,9.448.727,3.227-3.288,6.113-6.59,6.312C2260.52,1038.068,2257.751,1023.922,2261.248,1017.865Z" transform="translate(-2259.784 -991.136)" fill="url(#linear-gradient-24)"/>
            <path id="Path_12373" data-name="Path 12373" d="M2287.819,1063.675c.154-2.434.275-4.87.38-7.307q-1.239-2.208-2.458-4.426c-.552-1.006-1.553-2.246-1.719-3.384a.3.3,0,0,1,.21-.293l.1-.022a.3.3,0,0,1,.335.126l.036.076a11.345,11.345,0,0,1,.439,1.174q.273.5.547,1,.48.879.963,1.755.788,1.431,1.589,2.855.3-7.435.309-14.876-1.887-2.962-3.594-6.031c-.184-.331.316-.648.5-.315q1.475,2.654,3.088,5.224-.022-6.536-.27-13.069a.3.3,0,0,1,.591-.019q.247,6.361.267,12.724l1.449-3.719c.138-.355.661-.078.525.274l-1.964,5.038,0,0q0,7.154-.291,14.3a41.8,41.8,0,0,1,2.976-5.311c.208-.315.735-.043.524.274a41.82,41.82,0,0,0-3.562,6.6c-.105,2.44-.226,4.879-.38,7.316C2288.386,1064.032,2287.795,1064.056,2287.819,1063.675Z" transform="translate(-2279.744 -1019.743)" fill="#2d9678"/>
          </g>
        </g>
        <path id="Path_12374" data-name="Path 12374" d="M2251.854,1249.7l4.26,16.854h13.335l3.7-16.854Z" transform="translate(-2243.893 -1204.077)" fill="url(#linear-gradient-25)"/>
        <path id="Path_12375" data-name="Path 12375" d="M2269.973,1247.843H2248.3a.648.648,0,0,1-.648-.648h0a.648.648,0,0,1,.648-.648h21.669a.648.648,0,0,1,.648.648h0a.648.648,0,0,1-.648.648Z" transform="translate(-2240.436 -1201.484)" fill="url(#linear-gradient-26)"/>
      </g>
      <g id="Group_4013" data-name="Group 4013" transform="translate(22.634 205.488)">
        <path id="Path_12376" data-name="Path 12376" d="M910.733,1344.519c0,.579-6.1,1.048-13.63,1.048s-13.63-.469-13.63-1.048,6.1-1.049,13.63-1.049S910.733,1343.939,910.733,1344.519Z" transform="translate(-883.474 -1329.041)" opacity="0.1"/>
        <g id="Group_4012" data-name="Group 4012" transform="translate(0.512)">
          <g id="Group_4008" data-name="Group 4008" transform="translate(11.589 3.377)">
            <path id="Path_12377" data-name="Path 12377" d="M957.573,1292.7a15.915,15.915,0,0,0,1.384-11.874s-5.154,1.134-6.893,11.863Z" transform="translate(-952.064 -1280.827)" fill="url(#linear-gradient-27)"/>
            <path id="Path_12378" data-name="Path 12378" d="M967.653,1312.052s1.358-6.437,2.112-7.723a23.628,23.628,0,0,0-2.613,7.722Z" transform="translate(-964.49 -1300.182)" fill="#00663e"/>
          </g>
          <g id="Group_4009" data-name="Group 4009" transform="translate(6.501 3.446)">
            <path id="Path_12379" data-name="Path 12379" d="M925.119,1293.1a15.914,15.914,0,0,1-1.335-11.88s5.149,1.156,6.844,11.891Z" transform="translate(-923.225 -1281.22)" fill="url(#linear-gradient-28)"/>
            <path id="Path_12380" data-name="Path 12380" d="M937.548,1312.492s-1.332-6.442-2.08-7.732a23.633,23.633,0,0,1,2.581,7.733Z" transform="translate(-933.308 -1300.607)" fill="#00663e"/>
          </g>
          <g id="Group_4010" data-name="Group 4010">
            <path id="Path_12381" data-name="Path 12381" d="M888.819,1277a20.515,20.515,0,0,1-1.721-15.314s6.638,1.489,8.823,15.329Z" transform="translate(-886.378 -1261.687)" fill="url(#linear-gradient-29)"/>
            <path id="Path_12382" data-name="Path 12382" d="M904.841,1302s-1.717-8.3-2.682-9.967c0,0,2.9,5.263,3.327,9.968Z" transform="translate(-899.375 -1286.677)" fill="#00663e"/>
          </g>
          <g id="Group_4011" data-name="Group 4011" transform="translate(17.156 0.052)">
            <path id="Path_12383" data-name="Path 12383" d="M990.721,1277.289a20.515,20.515,0,0,0,1.784-15.307s-6.644,1.462-8.886,15.292Z" transform="translate(-983.619 -1261.982)" fill="url(#linear-gradient-30)"/>
            <path id="Path_12384" data-name="Path 12384" d="M1003.713,1302.233s1.751-8.3,2.723-9.955c0,0-2.925,5.251-3.368,9.954Z" transform="translate(-999.636 -1286.933)" fill="#00663e"/>
          </g>
        </g>
      </g>
      <g id="Group_4019" data-name="Group 4019" transform="translate(168.369 213.59)">
        <ellipse id="Ellipse_682" data-name="Ellipse 682" cx="9.514" cy="0.732" rx="9.514" ry="0.732" transform="translate(0 10.072)" opacity="0.1"/>
        <g id="Group_4018" data-name="Group 4018" transform="translate(0.358)">
          <g id="Group_4014" data-name="Group 4014" transform="translate(8.09 2.357)">
            <path id="Path_12385" data-name="Path 12385" d="M1761.208,1329.256a11.11,11.11,0,0,0,.966-8.289s-3.6.792-4.812,8.281Z" transform="translate(-1757.362 -1320.967)" fill="url(#linear-gradient-27)"/>
            <path id="Path_12386" data-name="Path 12386" d="M1768.244,1342.764a37.812,37.812,0,0,1,1.474-5.391,16.492,16.492,0,0,0-1.824,5.391Z" transform="translate(-1766.036 -1334.479)" fill="#00663e"/>
          </g>
          <g id="Group_4015" data-name="Group 4015" transform="translate(4.538 2.406)">
            <path id="Path_12387" data-name="Path 12387" d="M1738.552,1329.535a11.109,11.109,0,0,1-.932-8.293s3.594.807,4.778,8.3Z" transform="translate(-1737.23 -1321.242)" fill="url(#linear-gradient-28)"/>
            <path id="Path_12388" data-name="Path 12388" d="M1747.229,1343.071a37.822,37.822,0,0,0-1.452-5.4,16.5,16.5,0,0,1,1.8,5.4Z" transform="translate(-1744.269 -1334.775)" fill="#00663e"/>
          </g>
          <g id="Group_4016" data-name="Group 4016">
            <path id="Path_12389" data-name="Path 12389" d="M1713.212,1318.3a14.321,14.321,0,0,1-1.2-10.69s4.633,1.04,6.159,10.7Z" transform="translate(-1711.508 -1307.607)" fill="url(#linear-gradient-29)"/>
            <path id="Path_12390" data-name="Path 12390" d="M1724.4,1335.746s-1.2-5.8-1.872-6.957a21.26,21.26,0,0,1,2.323,6.958Z" transform="translate(-1720.581 -1325.052)" fill="#00663e"/>
          </g>
          <g id="Group_4017" data-name="Group 4017" transform="translate(11.976 0.036)">
            <path id="Path_12391" data-name="Path 12391" d="M1784.346,1318.5a14.322,14.322,0,0,0,1.245-10.685s-4.638,1.021-6.2,10.675Z" transform="translate(-1779.389 -1307.812)" fill="url(#linear-gradient-30)"/>
            <path id="Path_12392" data-name="Path 12392" d="M1793.416,1335.909s1.222-5.792,1.9-6.949a21.261,21.261,0,0,0-2.351,6.948Z" transform="translate(-1790.57 -1325.229)" fill="#00663e"/>
          </g>
        </g>
      </g>
      <g id="Group_4034" data-name="Group 4034" transform="translate(12.889 0)">
        <g id="Group_4020" data-name="Group 4020" transform="translate(138.863 53.901)">
          <path id="Path_12393" data-name="Path 12393" d="M1615.3,406.058a6.8,6.8,0,0,0,3.263-3.552c.853,1.406,1.514,1.46,2.967,1.692a7.935,7.935,0,0,1-3.246,3.244A2.542,2.542,0,0,1,1615.3,406.058Z" transform="translate(-1615.299 -402.506)" fill="url(#linear-gradient-35)"/>
        </g>
        <g id="Group_4021" data-name="Group 4021" transform="translate(226.684 144.315)">
          <path id="Path_12394" data-name="Path 12394" d="M2113.059,918.516a6.8,6.8,0,0,0,3.263-3.552c.853,1.406,1.514,1.46,2.967,1.692a7.935,7.935,0,0,1-3.246,3.244A2.542,2.542,0,0,1,2113.059,918.516Z" transform="translate(-2113.059 -914.964)" fill="url(#linear-gradient-35)"/>
        </g>
        <g id="Group_4022" data-name="Group 4022" transform="translate(12.403 96.988)">
          <path id="Path_12395" data-name="Path 12395" d="M898.536,650.272a6.8,6.8,0,0,0,3.263-3.552c.853,1.406,1.514,1.46,2.967,1.692a7.936,7.936,0,0,1-3.246,3.244A2.542,2.542,0,0,1,898.536,650.272Z" transform="translate(-898.536 -646.72)" fill="url(#linear-gradient-35)"/>
        </g>
        <g id="Group_4023" data-name="Group 4023" transform="translate(87.594 39.739)">
          <path id="Path_12396" data-name="Path 12396" d="M1324.771,322.832a6.8,6.8,0,0,0,4.786-.6c-.26,1.625.21,2.093,1.167,3.21a7.935,7.935,0,0,1-4.574.373A2.542,2.542,0,0,1,1324.771,322.832Z" transform="translate(-1324.712 -322.235)" fill="url(#linear-gradient-38)"/>
        </g>
        <g id="Group_4024" data-name="Group 4024" transform="translate(176.064 91.687)">
          <path id="Path_12397" data-name="Path 12397" d="M1826.208,617.27a6.8,6.8,0,0,0,4.786-.6c-.26,1.625.21,2.093,1.167,3.21a7.935,7.935,0,0,1-4.574.373A2.542,2.542,0,0,1,1826.208,617.27Z" transform="translate(-1826.149 -616.673)" fill="url(#linear-gradient-38)"/>
        </g>
        <g id="Group_4025" data-name="Group 4025" transform="translate(249.536 68.047)">
          <path id="Path_12398" data-name="Path 12398" d="M2242.641,483.281a6.8,6.8,0,0,0,4.786-.6c-.26,1.624.21,2.093,1.167,3.21a7.933,7.933,0,0,1-4.574.373A2.542,2.542,0,0,1,2242.641,483.281Z" transform="translate(-2242.583 -482.684)" fill="url(#linear-gradient-38)"/>
        </g>
        <g id="Group_4026" data-name="Group 4026" transform="translate(269.952 116.345)">
          <path id="Path_12399" data-name="Path 12399" d="M2359.653,756.434a6.8,6.8,0,0,0,3.722,3.068c-1.359.927-1.377,1.59-1.531,3.053a7.933,7.933,0,0,1-3.414-3.067A2.542,2.542,0,0,1,2359.653,756.434Z" transform="translate(-2358.297 -756.434)" fill="url(#linear-gradient-24)"/>
        </g>
        <g id="Group_4027" data-name="Group 4027" transform="translate(224.658 8.125)">
          <path id="Path_12400" data-name="Path 12400" d="M2102.934,143.053a6.8,6.8,0,0,0,3.722,3.068c-1.359.928-1.377,1.591-1.53,3.053a7.935,7.935,0,0,1-3.414-3.067A2.542,2.542,0,0,1,2102.934,143.053Z" transform="translate(-2101.578 -143.053)" fill="url(#linear-gradient-24)"/>
        </g>
        <g id="Group_4028" data-name="Group 4028" transform="translate(113.845)">
          <path id="Path_12401" data-name="Path 12401" d="M1474.855,97a6.8,6.8,0,0,0,3.722,3.068c-1.359.927-1.377,1.59-1.531,3.053a7.934,7.934,0,0,1-3.414-3.067A2.542,2.542,0,0,1,1474.855,97Z" transform="translate(-1473.499 -97)" fill="url(#linear-gradient-24)"/>
        </g>
        <g id="Group_4029" data-name="Group 4029" transform="translate(80.653 86.784)">
          <path id="Path_12402" data-name="Path 12402" d="M1286.725,588.881a6.8,6.8,0,0,0,3.722,3.068c-1.359.927-1.377,1.59-1.53,3.053a7.933,7.933,0,0,1-3.414-3.067A2.542,2.542,0,0,1,1286.725,588.881Z" transform="translate(-1285.369 -588.881)" fill="url(#linear-gradient-24)"/>
        </g>
        <g id="Group_4030" data-name="Group 4030" transform="translate(179.05 33.537)">
          <path id="Path_12403" data-name="Path 12403" d="M1843.292,287.087a6.8,6.8,0,0,0,4.818.222c-.531,1.557-.148,2.1.607,3.361a7.933,7.933,0,0,1-4.571-.406A2.542,2.542,0,0,1,1843.292,287.087Z" transform="translate(-1843.073 -287.087)" fill="url(#linear-gradient-8)"/>
        </g>
        <g id="Group_4031" data-name="Group 4031" transform="translate(230.048 102.169)">
          <path id="Path_12404" data-name="Path 12404" d="M2132.346,676.085a6.8,6.8,0,0,0,4.818.222c-.531,1.557-.148,2.1.607,3.361a7.934,7.934,0,0,1-4.571-.406A2.541,2.541,0,0,1,2132.346,676.085Z" transform="translate(-2132.126 -676.085)" fill="url(#linear-gradient-8)"/>
        </g>
        <g id="Group_4032" data-name="Group 4032" transform="translate(40.403 20.745)">
          <path id="Path_12405" data-name="Path 12405" d="M1057.458,214.579a6.8,6.8,0,0,0,4.818.222c-.531,1.557-.148,2.1.607,3.361a7.936,7.936,0,0,1-4.571-.406A2.542,2.542,0,0,1,1057.458,214.579Z" transform="translate(-1057.239 -214.579)" fill="url(#linear-gradient-8)"/>
        </g>
        <g id="Group_4033" data-name="Group 4033" transform="translate(0 157.722)">
          <path id="Path_12406" data-name="Path 12406" d="M828.455,990.953a6.8,6.8,0,0,0,4.818.222c-.531,1.557-.147,2.1.607,3.361a7.935,7.935,0,0,1-4.571-.406A2.542,2.542,0,0,1,828.455,990.953Z" transform="translate(-828.236 -990.953)" fill="url(#linear-gradient-8)"/>
        </g>
      </g>
    </g>
  </g>
</svg>
