<svg xmlns="http://www.w3.org/2000/svg" width="474" height="320.927" viewBox="0 0 474 320.927"><defs><style>.a{fill:#fff;}.b,.i{fill:#e0e7ec;}.c{fill:#223542;}.d{fill:#f8b89c;}.e{fill:#fd906a;}.f{fill:#fdfefd;}.g{fill:#ff9413;}.h{fill:#f26802;}.i{opacity:0.54;}.j{fill:#bbd8e8;}.k{fill:#5b768f;}.l{fill:#7192ab;}.m{fill:#a6c6d1;}</style></defs><g transform="translate(0 0)"><path class="a" d="M968.822,336.257q-.532,1.415-1.1,2.831c-6.923,17.391-17.311,35.042-31.788,52.408A163.476,163.476,0,0,1,908,418.078a159.279,159.279,0,0,1-55.085,26.246c-33.753,8.894-70.091,7.806-105.193,1.429-28.393-5.157-55.978-13.775-80.732-23.366-18.852-7.3-36.062-15.175-50.736-22.512-36.178-18.089-62.938-49.311-80.69-82.394-29.369-54.731-24.234-115.561-16.02-128.464,23.215-36.464,56.046-16.718,80.91-1.735q1.074.649,2.146,1.317h0q1.289.8,2.574,1.635c14.677,9.49,29.018,21.534,43.629,31.757q.729.509,1.456,1.011.5.345,1,.685c24.7,16.874,50.258,27.868,79.6,11.986C791.1,203.059,835.8,160.65,891.318,166.595a78.181,78.181,0,0,1,23.315,6.335q2.935,1.3,5.8,2.831C965.293,199.754,995.479,265.589,968.822,336.257Z" transform="translate(-504.828 -166.032)"/><rect class="b" width="3.131" height="154.011" transform="translate(143.296 115.37)"/><g transform="translate(253.798 159.357)"><rect class="b" width="13.438" height="29.14" transform="translate(2.096 4.267)"/><path class="b" d="M2697.983,1605.639h-16.637a.5.5,0,0,1-.5-.5h0a.5.5,0,0,1,.5-.5h16.637a.5.5,0,0,1,.5.5h0A.5.5,0,0,1,2697.983,1605.639Z" transform="translate(-2680.85 -1601.091)"/><path class="b" d="M4.267,0h6.906A4.267,4.267,0,0,1,15.44,4.267v0a0,0,0,0,1,0,0H0a0,0,0,0,1,0,0v0A4.267,4.267,0,0,1,4.267,0Z" transform="translate(1.095)"/><rect class="a" width="8.946" height="17.255" transform="translate(4.342 11.042)"/></g><g transform="translate(232.712 166.151)"><rect class="b" width="13.438" height="22.973" transform="translate(2.096 4.267)"/><path class="b" d="M2511.784,1665.631h-16.638a.5.5,0,0,1-.5-.5h0a.5.5,0,0,1,.5-.5h16.638a.5.5,0,0,1,.5.5h0A.5.5,0,0,1,2511.784,1665.631Z" transform="translate(-2494.65 -1661.083)"/><path class="b" d="M4.267,0h6.906A4.267,4.267,0,0,1,15.44,4.267v0a0,0,0,0,1,0,0H0a0,0,0,0,1,0,0v0A4.267,4.267,0,0,1,4.267,0Z" transform="translate(1.095)"/><rect class="a" width="8.946" height="11.297" transform="translate(4.3 11.042)"/></g><rect class="b" width="3.131" height="154.011" transform="translate(282.086 115.37)"/><rect class="b" width="159.022" height="8.113" transform="translate(129.813 110.118)"/><rect class="b" width="159.022" height="8.113" transform="translate(129.813 192.672)"/><path class="b" d="M2645.738,864.88l-10.188-17.067V835.274a1.133,1.133,0,0,0-.228-2.244H2631.7a1.133,1.133,0,0,0-.227,2.244v12.539l-10.188,17.067a2.018,2.018,0,0,0,1.733,3.053h20.991A2.019,2.019,0,0,0,2645.738,864.88Z" transform="translate(-2373.973 -757.497)"/><path class="b" d="M2369.934,711.812V693.949a1.87,1.87,0,0,0,1.5-1.832h0a1.869,1.869,0,0,0-1.869-1.87h-5.983a1.87,1.87,0,0,0-1.87,1.87h0a1.871,1.871,0,0,0,1.5,1.832v17.863a17.577,17.577,0,1,0,6.731,0Z" transform="translate(-2132.774 -630.884)"/><path class="b" d="M2091.407,918.218c-1.585-2.038-3.737-2.717-3.737-3.624v-1.3h.454a.735.735,0,0,0,.735-.736v-.125a.735.735,0,0,0-.735-.735h-10.079a.736.736,0,0,0-.736.735v.125a.736.736,0,0,0,.736.736h.453v1.3c0,.906-2.15,1.585-3.736,3.624s-1.473,18.346,0,19.252c1.19.733,6.382.8,8.323.8s7.132-.064,8.323-.8C2092.879,936.564,2092.993,920.257,2091.407,918.218Z" transform="translate(-1888.581 -827.26)"/><path class="b" d="M1976.657,1043.193c-.716-.921-1.689-1.229-1.689-1.638v-.586h.206a.333.333,0,0,0,.333-.333v-.056a.333.333,0,0,0-.333-.333h-4.557a.333.333,0,0,0-.332.333v.056a.332.332,0,0,0,.332.333h.205v.586c0,.409-.972.717-1.689,1.638s-.665,8.293,0,8.7a19.822,19.822,0,0,0,7.525,0C1977.323,1051.486,1977.374,1044.114,1976.657,1043.193Z" transform="translate(-1795.472 -941.248)"/><path class="b" d="M2296.242,1500.42c-.356-.111-1.507-2.615-1.895-5.32l-.59-17.447h-.684l-.589,17.447c-.387,2.706-1.538,5.209-1.895,5.32a11.212,11.212,0,0,0,2.815,21.905h.021a11.213,11.213,0,0,0,2.816-21.905Z" transform="translate(-2074.002 -1329.121)"/><path class="b" d="M3947.28,452.836c-.31,8.191-3.116,16.09-2.241,24.355a30.544,30.544,0,0,1-.5,9.194,48.82,48.82,0,0,0-.382,13.648c.379,5.022-2.664,8.525-6.08,6.98-1.649-.746-3.068-2.173-1.3-3.705,4.04-3.5,3.057-7.979,2.157-11.943-1.614-7.108-2.87-14.028-1.4-21.363,1.031-5.133-.6-10.208-1.68-15.268-2.13-10.005-1.193-19.938,1.25-29.787.75-3.028.982-6.056-1.04-8.976.11,9.705-4.926,18.261-5.728,27.754a9.3,9.3,0,0,1-3.272,6.568c-1.172.983-3.064.51-2.905.112,1.21-3.033-2.671-6.179-.2-8.645,3.2-3.2,3.539-7.071,3.667-10.988.238-7.374,2.394-14.492,2.561-21.881.064-2.847-.62-5.664.5-8.652,1.549-4.132,5.115-4.975,8.348-6.545,5.364-2.606,5.895-3.565,3.132-8.646-1.582-2.916-1.28-5.775-.614-8.564a5.509,5.509,0,0,1,6.278-4.471c3.113.4,5.538,2.159,5.643,5.764.081,2.754.4,5.392-1.354,8.067-2.07,3.156-1.648,6,2.679,7.47,5.128,1.743,10.133,4.033,9.969,10.683-.055,2.2.125,4.388.043,6.525-.339,8.791,3.412,17.073,2.941,25.846a7.476,7.476,0,0,0,.573,2.546c.164.511,2.707,9.52,2.763,9.969a2.136,2.136,0,0,1-1.123,2.222c-1.031.622-1.577-.285-2.253-.8a7.885,7.885,0,0,1-3.316-6.479c.136-4.612-1.55-8.671-3.083-12.794-1.821-4.895-.84-10.273-2.754-15.476-1.836,2.2-1.627,4.579-1.4,6.779.449,4.388.761,8.871,1.944,13.086,2.042,7.276,1.089,14.322-.735,21.329a31.829,31.829,0,0,0-1.391,10.021,83.865,83.865,0,0,1-2.289,26.751c-.8,3.033-1,6.453,2.079,8.96,1.825,1.485,1.441,3.288-.522,4.278-1.65.833-3.691,1.586-4.846-.966a16.08,16.08,0,0,1-1.547-6.379c-.222-10.454-.329-20.921-.979-31.352A114.81,114.81,0,0,0,3947.28,452.836Z" transform="translate(-3528.644 -348.637)"/><g transform="translate(372.291 6.897)"><path class="b" d="M3730.042,390.267v-160.5h40.481q-2.863-1.531-5.8-2.831h-36.1a1.415,1.415,0,0,0-1.415,1.416V391.683a1.415,1.415,0,0,0,1.415,1.416h89.19q.565-1.417,1.1-2.831Z" transform="translate(-3727.21 -226.94)"/></g><g transform="translate(440.284 99.465)"><path class="b" d="M4354.264,1059.009H4338.11a.568.568,0,0,1-.456-.231l-9.922-13.516a.566.566,0,0,1,.912-.67l9.753,13.285h15.866a.566.566,0,1,1,0,1.133Z" transform="translate(-4327.623 -1044.36)"/></g><g transform="translate(382.594 37.042)"><path class="b" d="M3848.755,507.649a.564.564,0,0,1-.454-.228l-9.821-13.156h-19.725a.566.566,0,0,1,0-1.133h20.01a.564.564,0,0,1,.452.228l9.992,13.384a.566.566,0,0,1-.116.792A.561.561,0,0,1,3848.755,507.649Z" transform="translate(-3818.189 -493.132)"/></g><g transform="translate(426.438 141.801)"><path class="b" d="M4205.923,1432.735a.562.562,0,0,1-.237-.053.568.568,0,0,1-.275-.752l6.229-13.39a.566.566,0,0,1,.514-.327h12.924a.566.566,0,0,1,0,1.132h-12.562l-6.078,13.062A.565.565,0,0,1,4205.923,1432.735Z" transform="translate(-4205.359 -1418.214)"/></g><g transform="translate(381.671 110.436)"><path class="b" d="M3828.374,1147.847H3810.6a.566.566,0,0,1,0-1.133h17.651l12.352-5.422a.566.566,0,0,1,.455,1.037l-12.461,5.47A.57.57,0,0,1,3828.374,1147.847Z" transform="translate(-3810.038 -1141.245)"/></g><g transform="translate(235.149 69.188)"><g transform="translate(96.055 51.209)"><path class="c" d="M3364.956,1236.65a.567.567,0,0,1-.55-.7,23.753,23.753,0,0,1,2.479-6.483.566.566,0,1,1,.963.594,23.215,23.215,0,0,0-2.34,6.15A.567.567,0,0,1,3364.956,1236.65Z" transform="translate(-3364.389 -1229.201)"/></g><path class="c" d="M3313.568,1233.489s-4.565,8.661-5.444,15.424-2.543-16.862-2.543-16.862Z" transform="translate(-3216.187 -1180.52)"/><path class="d" d="M2923.8,999.366s-6.988,39.266,14.31,40.931,25.956-8.985,25.956-8.985l6.322-16.306s10.316-1.331,9.983-7.653-10.316-3-10.316-3-4.659-22.961-25.291-19.3S2923.8,999.366,2923.8,999.366Z" transform="translate(-2876.663 -961.145)"/><path class="d" d="M2886.767,1240.867s-1.665,31.946,1.331,38.268,18.3,16.306,33.277,20.964a63.813,63.813,0,0,1-63.558,17.97c-39.932-10.316-25.29-14.309-25.29-14.309s24.958-7.654,26.289-18.968,1.331-30.282,1.331-30.282Z" transform="translate(-2794.377 -1188.338)"/><path class="c" d="M2898.494,823.207a9.656,9.656,0,0,0,4.626-8.573c.033-3.74-3.788-5.126-3.788-5.126s3.489-2.274,2.729-7.768c-1.2-8.69-11.848-7.095-11.848-7.095s-8.736-19.5-27.312-17.5c-13.657,1.472-16.225,10.166-14,16.175,0,0-13.441-2.732-17.74,7.749s9.476,16.658,27.561,8.692c0,0,2.927,7.588,13.2,4.036,0,0,11.263-4.233,15.089,8.43C2887.013,822.227,2896.5,814.888,2898.494,823.207Z" transform="translate(-2794.791 -777)"/><path class="c" d="M2885.373,1073.371s4.324,14.309,4.324,13.976.741-9.682,2.368-13.16Z" transform="translate(-2843.563 -1039.809)"/><g transform="translate(94.818 16.838)"><path class="c" d="M3362.407,946.024a.566.566,0,0,1-.317-1.035,13.605,13.605,0,0,0,3.238-3.387,9.707,9.707,0,0,0,1.193-8.974c-1.08-3.1-3.464-4.98-7.083-5.6a16.416,16.416,0,0,0-5.289.015.566.566,0,0,1-.222-1.11,17.27,17.27,0,0,1,5.667-.027c4.019.675,6.784,2.869,8,6.346a10.931,10.931,0,0,1-1.343,10.009,14.485,14.485,0,0,1-3.524,3.664A.564.564,0,0,1,3362.407,946.024Z" transform="translate(-3353.472 -925.688)"/></g><g transform="translate(32.045 14.568)"><path class="c" d="M2800.192,922.482a.567.567,0,0,1-.546-.417c-1.535-5.629.487-10.212,6.184-14.009a15.828,15.828,0,0,1,10.41-2.324,20.387,20.387,0,0,1,5.177,1.154.566.566,0,1,1-.42,1.052h0c-.081-.032-8.178-3.179-14.539,1.061-6.979,4.652-6.606,9.516-5.719,12.769a.566.566,0,0,1-.547.715Z" transform="translate(-2799.151 -905.64)"/></g><g transform="translate(59.881 52.89)"><path class="c" d="M3047.724,1250.357a.568.568,0,0,1-.215-.042c-1.592-.651-2.446-1.517-2.542-2.574-.167-1.875,2.184-3.429,2.453-3.6a.566.566,0,1,1,.607.955h0c-.529.34-2.023,1.535-1.932,2.545.067.748,1.039,1.3,1.842,1.626a.566.566,0,0,1-.214,1.091Z" transform="translate(-3044.959 -1244.052)"/></g><g transform="translate(63.879 64.554)"><path class="c" d="M3090.151,1351.8a.556.556,0,0,1-.14-.018c-.034-.008-3.375-.856-5.23-.237a.566.566,0,0,1-.357-1.075,11.079,11.079,0,0,1,4.917.01,3.322,3.322,0,0,0-1.656-1.879c-2.543-1.247-6.571.661-6.611.68a.566.566,0,0,1-.491-1.021c.185-.089,4.57-2.162,7.6-.677a4.783,4.783,0,0,1,2.523,3.531.566.566,0,0,1-.555.685Z" transform="translate(-3080.262 -1347.044)"/></g><path class="e" d="M3093.05,1445.927s9.2-.307,16.643-4.033c0,0-7.349,8.361-16.876,9.849Z" transform="translate(-3027.515 -1366.599)"/><path class="f" d="M3239.741,1134.752s-2.621,5.965.187,5.765C3242.532,1140.331,3239.741,1134.752,3239.741,1134.752Z" transform="translate(-3156.817 -1094.239)"/><path class="f" d="M3268.822,1115.247s-1.6,3.63.113,3.507C3270.52,1118.641,3268.822,1115.247,3268.822,1115.247Z" transform="translate(-3182.99 -1076.943)"/><path class="f" d="M3233.307,1105.395s-1.087,2.476.077,2.393C3234.466,1107.71,3233.307,1105.395,3233.307,1105.395Z" transform="translate(-3151.688 -1068.207)"/><path class="g" d="M2684.191,1705.283a159.272,159.272,0,0,1-55.085,26.247c-33.752,8.894-70.091,7.805-105.192,1.429-15.794-13.421-3.7-48.832,3.533-64.605a74.453,74.453,0,0,1,24.466-28.947q1.136-.8,2.26-1.513a50.261,50.261,0,0,1,7.714-4.1c11.206-4.641,10.9-6.377,12.783-8.06l1.7.476h0l5.1,1.428.931.26a36.517,36.517,0,0,0,29.634-6.586l.99-.762,1.887-1.453,1.925-1.482c2.772,2.475,16.762,6.172,23.064,8.909,16.712,7.255,25.2,18.569,32.844,34.491C2677.847,1671.64,2683.584,1689.015,2684.191,1705.283Z" transform="translate(-2516.172 -1522.426)"/><g transform="translate(93.469 43.787)"><path class="c" d="M3342.124,1171h-.016a.567.567,0,0,1-.552-.58,9.925,9.925,0,0,1,1.475-4.648,4.132,4.132,0,0,1,5.161-1.795.566.566,0,0,1-.458,1.036,3.014,3.014,0,0,0-3.75,1.372,8.861,8.861,0,0,0-1.3,4.063A.565.565,0,0,1,3342.124,1171Z" transform="translate(-3341.557 -1163.666)"/></g><g transform="translate(94.756 45.615)"><path class="c" d="M3355.959,1182.041a.565.565,0,0,1-.549-.43.992.992,0,0,0-.455-.573,1.674,1.674,0,0,0-1.269.075.566.566,0,1,1-.4-1.058,2.616,2.616,0,0,1,2.212-.013,2.1,2.1,0,0,1,1.015,1.3.566.566,0,0,1-.421.681A.55.55,0,0,1,3355.959,1182.041Z" transform="translate(-3352.918 -1179.804)"/></g><g transform="translate(111.801 190.199)"><path class="h" d="M3504.005,2476.549a.558.558,0,0,1-.412-.179.564.564,0,0,1,.026-.8,161.444,161.444,0,0,1,26.29-18.933.566.566,0,1,1,.571.978,160.447,160.447,0,0,0-26.087,18.781A.564.564,0,0,1,3504.005,2476.549Z" transform="translate(-3503.439 -2456.561)"/></g><g transform="translate(129.505 162.752)"><path class="h" d="M3664.637,2244.657a.566.566,0,0,1-.565-.566c0-3.888-4.244-28.985-4.288-29.237a.566.566,0,1,1,1.116-.189c.177,1.036,4.3,25.444,4.3,29.426A.566.566,0,0,1,3664.637,2244.657Z" transform="translate(-3659.776 -2214.193)"/></g><g transform="translate(56.631 98.956)"><path class="h" d="M3035.446,1663.792a52.889,52.889,0,0,1-11.612-1.333,44.3,44.3,0,0,1-7.24-2.234.566.566,0,1,1,.453-1.038,50.811,50.811,0,0,0,23.77,3.149c12.7-1.57,22.015-11.228,22.108-11.325a.566.566,0,1,1,.82.781,41.337,41.337,0,0,1-6.426,5.223,38.682,38.682,0,0,1-16.363,6.446A44.944,44.944,0,0,1,3035.446,1663.792Z" transform="translate(-3016.254 -1650.834)"/></g><g transform="translate(96.289 97.562)"><path class="h" d="M3370.577,1643.983a.562.562,0,0,1-.437-.206l-3.554-4.324a.566.566,0,1,1,.874-.719l3.554,4.323a.565.565,0,0,1-.437.926Z" transform="translate(-3366.456 -1638.527)"/></g><g transform="translate(92.071 100.504)"><path class="h" d="M3332.834,1670.313a.563.563,0,0,1-.473-.256l-3.057-4.676a.566.566,0,1,1,.948-.62l3.057,4.675a.567.567,0,0,1-.165.784A.56.56,0,0,1,3332.834,1670.313Z" transform="translate(-3329.211 -1664.505)"/></g><g transform="translate(87.466 102.841)"><path class="h" d="M3291.372,1691.406a.567.567,0,0,1-.518-.338l-2.261-5.126a.566.566,0,0,1,1.036-.457l2.261,5.127a.566.566,0,0,1-.29.747A.579.579,0,0,1,3291.372,1691.406Z" transform="translate(-3288.544 -1685.147)"/></g><g transform="translate(82.529 104.519)"><path class="h" d="M3246.64,1706.518a.566.566,0,0,1-.554-.451l-1.126-5.419a.566.566,0,0,1,1.109-.23l1.126,5.42a.566.566,0,0,1-.438.669A.578.578,0,0,1,3246.64,1706.518Z" transform="translate(-3244.949 -1699.966)"/></g><g transform="translate(77.136 105.405)"><path class="h" d="M3197.894,1714.258a.567.567,0,0,1-.568-.566v-5.34a.567.567,0,0,1,1.134,0v5.34A.566.566,0,0,1,3197.894,1714.258Z" transform="translate(-3197.327 -1707.785)"/></g><g transform="translate(70.53 105.647)"><path class="h" d="M3139.556,1715.962a.558.558,0,0,1-.065,0,.567.567,0,0,1-.5-.628l.567-4.909a.566.566,0,0,1,1.125.13l-.567,4.909A.565.565,0,0,1,3139.556,1715.962Z" transform="translate(-3138.989 -1709.921)"/></g><g transform="translate(63.551 104.65)"><path class="h" d="M3077.929,1707.01a.568.568,0,0,1-.551-.7l1.184-4.761a.567.567,0,0,1,1.1.273l-1.185,4.761A.564.564,0,0,1,3077.929,1707.01Z" transform="translate(-3077.362 -1701.116)"/></g><g transform="translate(58.244 103.221)"><path class="h" d="M3031.07,1693.675a.566.566,0,0,1-.536-.75l1.391-4.039a.566.566,0,1,1,1.07.369l-1.388,4.039A.566.566,0,0,1,3031.07,1693.675Z" transform="translate(-3030.503 -1688.504)"/></g><path class="c" d="M3139.957,1172.292c0,1.685-.693,3.051-1.548,3.051s-1.549-1.365-1.549-3.051a5,5,0,0,1,.4-2.052,2.114,2.114,0,0,0,2.068,1.675,2.084,2.084,0,0,0,.608-.09C3139.951,1171.977,3139.957,1172.134,3139.957,1172.292Z" transform="translate(-3066.571 -1125.708)"/><path class="c" d="M2989.023,1172.645c0,1.685-.673,3.051-1.5,3.051s-1.5-1.366-1.5-3.051c0-.188.008-.372.025-.551a2.012,2.012,0,0,0,.357.031,2.113,2.113,0,0,0,2.091-1.8A4.775,4.775,0,0,1,2989.023,1172.645Z" transform="translate(-2932.813 -1125.779)"/><path class="h" d="M2996.873,2043.319a22.244,22.244,0,0,1,20.636,12.886S3000.366,2053.7,2996.873,2043.319Z" transform="translate(-2942.437 -1899.905)"/><g transform="translate(55.638 121.624)"><path class="d" d="M3007.484,1875.389s9.366-18.967,11.9-21.2.657,6.368.657,6.368,5.976-8.218,7.356-8.827,1.873-.1,1.585,1.326-4.4,8.159-4.4,8.159,7.067-8.919,7.8-9.689,3.54-.915,3.116,1.244c-.4,2.058-6.493,10.644-6.493,10.644s5.358-7.25,6.674-8.149a1.254,1.254,0,0,1,1.978,1.413c-.67,2.214-5.38,9.189-5.38,9.189s4.122-5.509,5.79-6.182,1.621,1.354,1.349,2.173-15.221,23.108-15.221,23.108a102.142,102.142,0,0,1-9.5-3.827A75.316,75.316,0,0,1,3007.484,1875.389Z" transform="translate(-3007.484 -1851.012)"/><g transform="translate(15.443 7.755)"><path class="c" d="M3144.418,1923.8a.566.566,0,0,1-.438-.924l2.584-3.178a.566.566,0,0,1,.879.715l-2.585,3.178A.567.567,0,0,1,3144.418,1923.8Z" transform="translate(-3143.853 -1919.489)"/></g><g transform="translate(20.455 8.765)"><path class="c" d="M3188.681,1932.965a.566.566,0,0,1-.449-.91l2.616-3.42a.567.567,0,0,1,.9.688l-2.616,3.42A.57.57,0,0,1,3188.681,1932.965Z" transform="translate(-3188.115 -1928.412)"/></g><g transform="translate(24.215 11.583)"><path class="c" d="M3221.879,1957.086a.566.566,0,0,1-.437-.926l2.174-2.652a.566.566,0,1,1,.875.718l-2.175,2.652A.563.563,0,0,1,3221.879,1957.086Z" transform="translate(-3221.313 -1953.301)"/></g></g><g transform="translate(25.275 143.377)"><path class="h" d="M2756.422,2112.948a.566.566,0,0,1-.295-1.051,9.663,9.663,0,0,0,1.1-.826c.273-.226.556-.459.861-.679.021-.027.049-.072.07-.1a2.04,2.04,0,0,1,.229-.3c.012-.011.024-.023.037-.034a35.987,35.987,0,0,0,6.294-6.81c.262-.351.533-.674.8-.986a12.592,12.592,0,0,0,1.068-1.393c.656-1.032,1.345-2.032,2.3-3.343a1.418,1.418,0,0,0,.055-.15,2.5,2.5,0,0,1,.136-.336.408.408,0,0,1,.042-.069,97.135,97.135,0,0,0,5.787-9.812q.379-.706.764-1.419c.1-.261.21-.5.31-.722s.205-.462.306-.714a.505.505,0,0,1,.028-.06,160.572,160.572,0,0,0,8.456-18.9.386.386,0,0,1,.022-.05,6.672,6.672,0,0,0,.481-1.246.7.7,0,0,1,.031-.091c.755-1.715,1.384-3.5,1.992-5.235.24-.683.486-1.384.737-2.074a48.9,48.9,0,0,1-11.7-4.536.238.238,0,0,1-.022-.012l-1.572-.942-.031-.02c-2.739-1.9-4.875-3.725-6.243-6.283-5.8,7.9-18.386,25.412-25.253,34.961l-2.812,3.908a.566.566,0,1,1-.919-.661l2.811-3.908c7.1-9.868,20.305-28.235,25.816-35.726a.549.549,0,0,1,.248-.191h.025l.043-.013h.028a.587.587,0,0,1,.188-.006h0a.553.553,0,0,1,.1.023h0a.571.571,0,0,1,.166.089h0a.63.63,0,0,1,.091.091h0v0h0a.572.572,0,0,1,.072.122c1.221,2.773,3.383,4.668,6.254,6.656l1.545.927a47.626,47.626,0,0,0,11.961,4.553c.026.006.055.011.083.019s.037.011.055.018h.013s0,0,0,0h0a.571.571,0,0,1,.279.247.558.558,0,0,1,.064.185h0s0,0,0,.005h0v0h0v0h0v0h0v0h0v0h0v0h0v0h0v0h0v0h0v0h0v0h0v0h0v0h0v0h0v0h0a.562.562,0,0,1-.03.15c0,.005,0,.011-.007.017-.326.87-.643,1.775-.95,2.65-.611,1.737-1.241,3.532-2,5.274a7.97,7.97,0,0,1-.542,1.405,161.638,161.638,0,0,1-8.492,18.973c-.1.26-.208.495-.309.722s-.205.462-.306.714a.439.439,0,0,1-.028.06q-.393.727-.778,1.445a98.07,98.07,0,0,1-5.829,9.886c-.024.052-.038.1-.058.154a2.3,2.3,0,0,1-.135.336.655.655,0,0,1-.049.08c-.954,1.312-1.638,2.305-2.285,3.323a13.7,13.7,0,0,1-1.161,1.517c-.251.3-.512.612-.75.928a37.036,37.036,0,0,1-6.451,6.984c-.019.025-.054.077-.079.113a1.931,1.931,0,0,1-.228.3.615.615,0,0,1-.072.06c-.294.21-.578.444-.854.671a10.715,10.715,0,0,1-1.232.921A.561.561,0,0,1,2756.422,2112.948Z" transform="translate(-2739.367 -2043.102)"/></g></g><g transform="translate(0 21.173)"><path class="i" d="M825.755,388.8a27.728,27.728,0,0,1-4.393,8.173.583.583,0,1,0,.916.72,28.776,28.776,0,0,0,4.473-8.208Q826.254,389.14,825.755,388.8ZM883.826,510.5c-1.885-11.187-16.883-12.938-16.883-12.938l-23.173.062c-2.651-5.941-5.759-11.349-9.245-14.748a69.207,69.207,0,0,0-15.447-10.84c-4.794-2.626-16.571-6.25-16.571-6.25l-2.944-.566c-1.472-1.359-2.122-2.761-2.466-5.688-.452-3.838-.77-8.441-.994-13.025l-.266-6.61c17.049-2.37,20.377-31.627,21.026-42.966a40.815,40.815,0,0,0,7.438-9.149c-14.61-10.222-28.952-22.267-43.629-31.757-10.648.169-22.559,2.726-28.78,11.988-3.389,5.048-5.645,10.113-6.358,15.566-.669-9.468,1.758-18.986,11.115-25.4,5.677-3.892,14.012-4.4,21.447-3.789q-1.072-.669-2.146-1.317a53.455,53.455,0,0,0-6.527.046c-5.531.4-10.05,1.779-13.433,4.1a25.96,25.96,0,0,0-11.355,18.268,44.062,44.062,0,0,0,1.012,16.429,40.291,40.291,0,0,0,2.867,9.751c2.771,6.506,13.607,14.217,16.876,22.049.183,11.107-.023,25.106-2.01,29.3-1.052,2.22-3.423,4.831-6.7,7.542a22.131,22.131,0,0,0-2.52-1.617c-1.908-1.2-4.866.477-4.991.548a.583.583,0,0,0-.259.7l.064.181c-7,2.472-21.226,7.9-29.138,13.761a46.447,46.447,0,0,0-8.779,9.138c17.752,33.084,44.513,64.305,80.69,82.395,14.674,7.337,31.885,15.208,50.736,22.512l-1.045-9.062,3.76-9.328c3.144,1.436,8.46,1.9,11.937,1.55,5.6-.559,11.772-15.152,11.772-15.152l-.009-.013c.215-.51.418-1.049.6-1.62a22,22,0,0,0,1.2-5.2H872.1S885.712,521.688,883.826,510.5ZM763.356,410.488l.023,0,.072.189Z" transform="translate(-680.325 -352.999)"/><path class="d" d="M1094.684,573.613s0,43.262-20.621,46.075c-23.678,3.229-24.423-10.338-24.423-10.338l-7.073-18.241s-11.736-1.5-11.168-8.562c.944-11.729,11.54-3.35,11.54-3.35s5.212-25.686,28.293-21.591S1094.684,573.613,1094.684,573.613Z" transform="translate(-964.372 -534.043)"/><path class="d" d="M840.157,843.78s1.861,35.738-1.489,42.811-20.475,18.241-37.227,23.453c0,0,26.431,31.643,71.1,20.1s28.292-16.007,28.292-16.007-27.92-8.562-29.409-21.219-1.489-33.877-1.489-33.877Z" transform="translate(-760.473 -788.203)"/><g transform="translate(111.21 51.265)"><path class="c" d="M1423.461,817.492c-.379,0-.787-.019-1.227-.057a.566.566,0,1,1,.1-1.128c2.007.173,3.288-.086,3.607-.729.447-.9-.82-2.753-1.5-3.509a.568.568,0,0,1-.143-.43l.484-5.423a.566.566,0,0,1,1.128.1l-.463,5.183c.592.7,2.315,2.964,1.511,4.582C1426.484,817.026,1425.337,817.492,1423.461,817.492Z" transform="translate(-1421.717 -805.699)"/></g><path class="e" d="M1262.827,1073.182s-10.292-.343-18.618-4.511c0,0,8.223,9.353,18.88,11.017Z" transform="translate(-1153.101 -987.626)"/><g transform="translate(70.745 45.864)"><path class="c" d="M1071.484,766.073a.566.566,0,0,1-.566-.552,10.032,10.032,0,0,0-1.46-4.58,3.437,3.437,0,0,0-4.28-1.559.566.566,0,0,1-.457-1.036,4.555,4.555,0,0,1,5.689,1.983,11.019,11.019,0,0,1,1.64,5.165.566.566,0,0,1-.552.58Z" transform="translate(-1064.385 -758.007)"/></g><g transform="translate(73.069 47.909)"><path class="c" d="M1085.478,778.433a.555.555,0,0,1-.13-.015.566.566,0,0,1-.422-.681,2.286,2.286,0,0,1,1.1-1.414,2.868,2.868,0,0,1,2.419.018.566.566,0,0,1-.4,1.058,1.82,1.82,0,0,0-1.485-.076,1.175,1.175,0,0,0-.531.673A.566.566,0,0,1,1085.478,778.433Z" transform="translate(-1084.911 -776.066)"/></g><ellipse class="c" cx="3.355" cy="1.703" rx="3.355" ry="1.703" transform="translate(106.478 52.615) rotate(-77.439)"/><ellipse class="c" cx="3.412" cy="1.68" rx="3.412" ry="1.68" transform="translate(119.912 54.071) rotate(-77.438)"/><path class="c" d="M1044.473,424.428s13.282-11.354,11.342-26.148c-1.875-14.3-17.136-17.407-25.738-11.34,0,0-36.175-9.273-48.68,9.348-6.617,9.853-8.786,19.772-3.281,32.7,2.7,6.328,13.243,13.829,16.407,21.446l.117-8.672-2.11-4.219s-13.072-4.687-8.907-12.774c1.992-3.868,11.368,2.109,11.368,2.109s27.072,7.032,41.955-17.227C1036.947,409.647,1043.388,413.955,1044.473,424.428Z" transform="translate(-914.365 -380.489)"/><g transform="translate(105.57 68.099)"><path class="c" d="M1377.344,959.008a5.526,5.526,0,0,1-5.413-3.937.566.566,0,0,1,1.09-.307,4.7,4.7,0,0,0,2.36,2.707c1.518.7,3.5.492,5.883-.606a.566.566,0,1,1,.474,1.029A10.665,10.665,0,0,1,1377.344,959.008Z" transform="translate(-1371.91 -954.353)"/></g><path class="a" d="M620.4,1367.383s-6,14.178-11.438,14.721-12.343-9.059-12.343-9.059l-3.26,7,9.67,88.468H472.178c4.872-28.938,11.083-60.471,11.083-60.471s-17.82-.408-31.839-5.507c-18.024-6.556-10.559-37.568-8.24-48.64,6.259-29.87,21.914-58.484,32.378-66.231,7.687-5.69,21.513-10.969,28.311-13.371,2.457-.867,4-1.359,4-1.359q3.321,2.056,6.335,3.794c43.681,25.223,40.824,2.865,40.824,2.865a52.412,52.412,0,0,1,5.562,1.44,74.341,74.341,0,0,1,11.393,4.592,60.544,60.544,0,0,1,15.009,10.532c11.526,11.237,18.8,45.071,18.8,45.071a171.89,171.89,0,0,0,8.493,16.647C618.632,1365.074,620.4,1367.383,620.4,1367.383Z" transform="translate(-439.67 -1168.754)"/><g transform="translate(40.857 163.863)"><path class="j" d="M801.031,1838.6a.552.552,0,0,1-.2-.036.566.566,0,0,1-.333-.728c2.526-6.781,5.164-37.009,5.191-37.314a.566.566,0,0,1,1.128.1c-.108,1.25-2.678,30.687-5.258,37.611A.566.566,0,0,1,801.031,1838.6Z" transform="translate(-800.464 -1800)"/></g><path class="k" d="M1094.6,1304s15.851,8.551,20.609,9.994,18.269,5.78,20.573-5.108l.039-1.716,5.435,1.359,2.425,57.132,5.264,93.222-15.957-1.44s.918-69.564-10.418-104.863a163.7,163.7,0,0,0-16.587-35.749C1101.826,1310.136,1094.6,1304,1094.6,1304Z" transform="translate(-1020.432 -1196.306)"/><g transform="translate(29.441 200.869)"><path class="j" d="M749.394,2138.178a.541.541,0,0,1-.184-.031c-.369-.127-37.058-12.7-48.854-9.785a.566.566,0,1,1-.272-1.1c5.109-1.262,15,.009,29.4,3.781,10.679,2.8,20,6,20.093,6.034a.566.566,0,0,1-.185,1.1Z" transform="translate(-699.654 -2126.79)"/></g><g transform="translate(120.775 112.084)"><path class="j" d="M1511.477,1418.39l5.277-62.245-5.1-4.841a.567.567,0,0,1,.062-.873l4.7-3.344c-2.227-1.586-7.254-2.7-9.085-3.068.276,10.4,3.615,131.915,10.243,186.415h-1.14c-3.543-29.224-6.109-77.343-7.655-113.121-1.729-40.012-2.589-73.634-2.6-73.969a.565.565,0,0,1,.144-.39.362.362,0,0,1,.053-.053.564.564,0,0,1,.468-.13c.343.06,8.438,1.5,10.9,3.949a.566.566,0,0,1-.024.825.432.432,0,0,1-.047.038l-4.74,3.371,4.8,4.555a.565.565,0,0,1,.174.459l-5.3,62.516a.567.567,0,1,1-1.129-.1Z" transform="translate(-1506.179 -1342.764)"/></g><g transform="translate(64.105 103.728)"><path class="j" d="M1054.526,1426.82a236.168,236.168,0,0,1-2.927,30.557c-.5,2.9-1.02,5.428-1.537,7.624h-1.169c.546-2.277,1.1-4.926,1.619-7.985,2.33-13.625,4.565-38.41,1.989-79.106-2.914-46.014-14.26-72.828-23.265-87.221-9.712-15.521-18.8-20.255-18.886-20.3l-.05-.029c-.89-.573-2.415-.072-3.278.332l6.662,18.661,10.468,3.312a.566.566,0,0,1,.328.806l-3.122,5.856,27.862,54.779a.566.566,0,1,1-1.009.513l-28-55.042a.566.566,0,0,1,.006-.523l2.941-5.515-10.087-3.193a.566.566,0,0,1-.362-.349l-6.86-19.217-.062-.176a.565.565,0,0,1,.25-.681c.122-.07,2.995-1.7,4.85-.533a30.744,30.744,0,0,1,5.293,3.825c.208.178.422.366.64.559a74.891,74.891,0,0,1,13.374,16.314,134.585,134.585,0,0,1,14.393,33.075c4.707,15.866,7.749,34.262,9.042,54.675C1054.774,1395.906,1055.076,1412.386,1054.526,1426.82Z" transform="translate(-1005.755 -1268.974)"/></g><path class="l" d="M1282.033,1793.072h-60.821l33.463-78.529h58.744Z" transform="translate(-1132.708 -1560.358)"/><path class="d" d="M1764.027,1990.1s7.506-.469,10.556-9.852-.328-7.408-4.315-9.284a87.491,87.491,0,0,0-13.363-4.643c-2.58-.587-7.635-.841-9.513.566s3.341,4.744,4.983,5.1c0,0-6.746-1.42-8.154.34s5.371,3.385,7.248,3.736c0,0-10.872-1.472-10.872,1.473,0,2.465,10.872,3.51,10.872,3.51s-8.141-.975-8.493,1.019,4.53,2.944,6.568,3.171c1.748.194,6.332.7,8.911,1.993S1761.506,1989.812,1764.027,1990.1Z" transform="translate(-1593.277 -1783.212)"/><path class="j" d="M1096.533,2248.538s-6.115-20.837,3.4-28.538C1099.93,2220,1105.592,2242.989,1096.533,2248.538Z" transform="translate(-1020.432 -2008.575)"/><path class="d" d="M1094.09,2154.166s.117.038.325.1c1.449.439,4.932,2.158,6.983,0,2.346-2.463,3.284-4.808,5.4-5.512s2.463-.117,3.519-.7,6.217-6.8,7.741-6.451-5.161,11.846-5.161,11.846,6.216,5.747,9.5,5.865,9.383.234,11.377.586,1.994,2.932-1.055,4.457c0,0,3.284,1.994,1.876,4.339a3.8,3.8,0,0,1-4.1,1.643s2.229,1.759,1.642,3.4-2.58,1.642-4.1,1.642h-6.451s3.4.117,3.753,1.173.234,2.58-1.056,2.815a61.528,61.528,0,0,1-10.438,0c-2.464-.351-11.729-3.988-13.957-6.216s-7.894-1.395-7.894-1.395S1087.874,2158.5,1094.09,2154.166Z" transform="translate(-1016.931 -1939.044)"/><g transform="translate(43.024 211.125)"><path class="j" d="M831.137,2246.33c-4.839,0-9.108-.063-11.029-.256a.567.567,0,0,1,.113-1.128c5.036.5,27.29.1,31.667.013a43.346,43.346,0,0,1-1.949-12.216,26.129,26.129,0,0,1,1.393-8.734,15.18,15.18,0,0,1,4.068-6.529.566.566,0,0,1,.713.879,14.47,14.47,0,0,0-3.743,6.112c-1.368,3.917-2.338,10.718.817,20.872a.567.567,0,0,1-.529.734C851.936,2246.091,840.479,2246.33,831.137,2246.33Z" transform="translate(-819.598 -2217.354)"/></g><path class="j" d="M1647.615,1654.318h47.019s13.229-26.878,11.4-37.748-16.4-12.57-16.4-12.57l-42.029.113s14.917,2.329,14.428,15.641S1647.615,1654.318,1647.615,1654.318Z" transform="translate(-1510.809 -1462.333)"/><path class="m" d="M1516.6,1617.75s6.2-14.333,16.317-12.2c12.786,2.692,12.786,12.2,12.786,12.2Z" transform="translate(-1394.643 -1463.512)"/><g transform="translate(98.966 223.882)"><path class="c" d="M1323.64,2332.6a22.738,22.738,0,0,1-3.688-.235c-3.153-.564-5.9-1.248-5.926-1.254a.566.566,0,1,1,.274-1.1c.027.007,2.738.682,5.851,1.238,3.06.546,10.195-.113,10.266-.119a.566.566,0,1,1,.106,1.127C1330.315,2332.281,1326.824,2332.6,1323.64,2332.6Z" transform="translate(-1313.597 -2330)"/></g><g transform="translate(98.966 229.43)"><path class="c" d="M1328.844,2382.056h-.01a89.934,89.934,0,0,1-9.1-.573,51.417,51.417,0,0,1-5.735-1.376.566.566,0,1,1,.333-1.083,50.677,50.677,0,0,0,5.588,1.342c2.646.441,8.874.557,8.936.558a.566.566,0,0,1-.01,1.132Z" transform="translate(-1313.597 -2379)"/></g><g transform="translate(98.06 234.639)"><path class="c" d="M1312.165,2427.264l-.043,0c-.476-.035-4.694-.372-6.228-1.2a.566.566,0,1,1,.537-1c1.12.6,4.549.974,5.776,1.066a.566.566,0,0,1-.042,1.131Z" transform="translate(-1305.597 -2424.999)"/></g><g transform="translate(155.33 197.081)"><path class="c" d="M1819.278,2095.563h-.03c-2.165-.114-7.252-1.063-7.467-1.1a.566.566,0,1,1,.209-1.113c.052.01,5.228.975,7.318,1.085a.566.566,0,0,1-.03,1.132Z" transform="translate(-1811.319 -2093.337)"/></g><g transform="translate(156.584 192.166)"><path class="c" d="M1831.249,2052.1a83.54,83.54,0,0,1-8.383-1.034.566.566,0,0,1,.187-1.117c.061.01,6.117,1.018,8.2,1.018a.567.567,0,0,1,0,1.133Z" transform="translate(-1822.393 -2049.936)"/></g><g transform="translate(151.511 179.037)"><path class="a" d="M1806.815,1935.132h-28.651a.566.566,0,1,1,0-1.132h28.651a.566.566,0,0,1,0,1.132Z" transform="translate(-1777.598 -1934)"/></g><g transform="translate(168.158 169.072)"><path class="a" d="M1938.979,1847.133h-13.815a.566.566,0,0,1,0-1.133h13.815a.566.566,0,1,1,0,1.133Z" transform="translate(-1924.598 -1846)"/></g><g transform="translate(160.684 163.07)"><path class="a" d="M1882.606,1794.132h-23.441a.566.566,0,1,1,0-1.132h23.441a.566.566,0,1,1,0,1.132Z" transform="translate(-1858.598 -1793)"/></g><g transform="translate(59.618 1.206)"><path class="c" d="M970.259,409.443a.566.566,0,0,1-.533-.377c-3.153-8.872-4.24-16.8-3.232-23.562a25.224,25.224,0,0,1,11.033-17.749c3.287-2.253,7.678-3.593,13.051-3.982a63.6,63.6,0,0,1,14.538.846,104.714,104.714,0,0,1,16.749,4.2.566.566,0,0,1-.384,1.065,103.5,103.5,0,0,0-16.563-4.152c-8.287-1.337-19.655-1.91-26.75,2.954-14.347,9.834-11.929,27.179-7.374,40a.567.567,0,0,1-.533.756Z" transform="translate(-966.13 -363.653)"/></g><g transform="translate(134.411 15.288)"><path class="c" d="M1627.163,517.556a.566.566,0,0,1-.444-.916c4.817-6.136,5.95-13.4,6.051-18.418a38.423,38.423,0,0,0-.944-9.512.566.566,0,0,1,1.095-.289,38.934,38.934,0,0,1,.982,9.824c-.105,5.188-1.282,12.712-6.292,19.094A.567.567,0,0,1,1627.163,517.556Z" transform="translate(-1626.598 -487.999)"/></g><g transform="translate(20.498 105.995)"><path class="j" d="M621.243,1321.055a.566.566,0,0,1-.5-.835,82.63,82.63,0,0,1,6.615-10c5.427-7.029,10.775-11.521,15.9-13.353,11.957-4.276,21.283-7.8,21.376-7.834a.566.566,0,1,1,.4,1.059c-.093.035-9.429,3.562-21.4,7.841-6.117,2.187-11.735,8.258-15.371,12.965a81.313,81.313,0,0,0-6.525,9.857A.567.567,0,0,1,621.243,1321.055Z" transform="translate(-620.677 -1288.998)"/></g></g></g></svg>