<svg xmlns="http://www.w3.org/2000/svg" width="11.586" height="21" viewBox="0 0 11.586 21"><defs><style>.a{fill:#3d3d3d;}</style></defs><g transform="translate(-13)"><path class="a" d="M24.224,28a.363.363,0,0,0-.362.363v2.181a5.069,5.069,0,1,1-10.138,0V28.363a.362.362,0,1,0-.724,0v2.181a5.809,5.809,0,0,0,5.431,5.8v1.836h-1.81a.363.363,0,0,0,0,.727h4.345a.363.363,0,0,0,0-.727h-1.81V36.342a5.809,5.809,0,0,0,5.431-5.8V28.363A.363.363,0,0,0,24.224,28Z" transform="translate(0 -17.905)"/><path class="a" d="M21.976,16.721a3.992,3.992,0,0,0,3.976-4V4A3.976,3.976,0,1,0,18,4v8.724A3.992,3.992,0,0,0,21.976,16.721Z" transform="translate(-3.183)"/></g></svg>