<svg xmlns="http://www.w3.org/2000/svg" width="23.549" height="22.76" viewBox="0 0 23.549 22.76"><defs><style>.a{fill:#3d3d3d;}</style></defs><g transform="translate(0 -8.2)"><g transform="translate(0 8.2)"><path class="a" d="M280.438,30.606a.592.592,0,0,0,1.184,0V10.454L285.163,14a.59.59,0,0,0,.837-.832l-4.547-4.547a.6.6,0,0,0-.832,0l-4.547,4.547a.589.589,0,1,0,.832.832l3.542-3.542V30.606Z" transform="translate(-262.624 -8.438)"/><path class="a" d="M10.1,25.4a.587.587,0,0,0-.832,0L5.726,28.944V8.792a.592.592,0,0,0-1.184,0V28.944L1.006,25.4a.589.589,0,1,0-.832.832L4.72,30.782a.592.592,0,0,0,.837,0L10.1,26.235A.6.6,0,0,0,10.1,25.4Z" transform="translate(0 -8.2)"/></g></g></svg>