<svg xmlns="http://www.w3.org/2000/svg" xmlns:xlink="http://www.w3.org/1999/xlink" width="66.045" height="64" viewBox="0 0 66.045 64"><defs><style>.a,.c{fill:#fff;}.a{stroke:#e0e0e0;}.b{fill:#0084b1;}.d{stroke:none;}.e{fill:none;}.f{filter:url(#a);}</style><filter id="a" x="0" y="0" width="66.045" height="64" filterUnits="userSpaceOnUse"><feOffset dy="3" input="SourceAlpha"/><feGaussianBlur stdDeviation="3" result="b"/><feFlood flood-opacity="0.161"/><feComposite operator="in" in2="b"/><feComposite in="SourceGraphic"/></filter></defs><g transform="translate(-119 -423)"><g class="f" transform="matrix(1, 0, 0, 1, 119, 423)"><g class="a" transform="translate(9 6)"><rect class="d" width="48.045" height="46" rx="4"/><rect class="e" x="0.5" y="0.5" width="47.045" height="45" rx="3.5"/></g></g><g transform="translate(142 441.999)"><rect class="b" width="20.573" height="20.573"/><g transform="translate(3.108 3.125)"><path class="c" d="M70.581,69.215a1.722,1.722,0,1,1-1.734,1.719A1.729,1.729,0,0,1,70.581,69.215Z" transform="translate(-68.847 -69.215)"/><path class="c" d="M76.694,184.232H74.675a.474.474,0,0,1-.474-.474v-8.613a.474.474,0,0,1,.474-.474h2.019a.474.474,0,0,1,.474.474v8.613A.474.474,0,0,1,76.694,184.232Z" transform="translate(-73.959 -169.91)"/><path class="c" d="M190.783,172.531a3.269,3.269,0,0,0-3.269-3.269H187a2.908,2.908,0,0,0-2.544,1.5l-.027,0V169.7a.2.2,0,0,0-.2-.2h-2.519a.2.2,0,0,0-.2.2v9.168a.2.2,0,0,0,.2.2h2.574a.2.2,0,0,0,.2-.2v-5.3a1.679,1.679,0,0,1,1.646-1.686,1.665,1.665,0,0,1,1.684,1.665v5.318a.2.2,0,0,0,.2.2h2.58a.2.2,0,0,0,.2-.2v-6.341Z" transform="translate(-176.426 -164.746)"/></g></g></g></svg>