<svg xmlns="http://www.w3.org/2000/svg" xmlns:xlink="http://www.w3.org/1999/xlink" width="66.045" height="64" viewBox="0 0 66.045 64"><defs><style>.a{fill:#fff;stroke:#e0e0e0;}.b{fill:#0571bc;}.c{stroke:none;}.d{fill:none;}.e{filter:url(#a);}</style><filter id="a" x="0" y="0" width="66.045" height="64" filterUnits="userSpaceOnUse"><feOffset dy="3" input="SourceAlpha"/><feGaussianBlur stdDeviation="3" result="b"/><feFlood flood-opacity="0.161"/><feComposite operator="in" in2="b"/><feComposite in="SourceGraphic"/></filter></defs><g transform="translate(-66 -423)"><g class="e" transform="matrix(1, 0, 0, 1, 66, 423)"><g class="a" transform="translate(9 6)"><rect class="c" width="48.045" height="46" rx="4"/><rect class="d" x="0.5" y="0.5" width="47.045" height="45" rx="3.5"/></g></g><path class="b" d="M17.882,0H2.787A2.709,2.709,0,0,0,0,2.627v14.24a2.709,2.709,0,0,0,2.785,2.627h7.445l.013-6.966H8.326a.44.44,0,0,1-.453-.425L7.864,9.857a.44.44,0,0,1,.453-.429h1.915V7.259c0-2.518,1.63-3.889,4.011-3.889H16.2a.44.44,0,0,1,.453.427V5.69a.44.44,0,0,1-.452.427H15c-1.295,0-1.546.58-1.546,1.432V9.428H16.3a.437.437,0,0,1,.45.477l-.282,2.245a.444.444,0,0,1-.45.377h-2.55l-.013,6.966h4.43a2.709,2.709,0,0,0,2.785-2.627V2.627A2.709,2.709,0,0,0,17.882,0Z" transform="translate(88.998 441.999)"/></g></svg>