<svg xmlns="http://www.w3.org/2000/svg" xmlns:xlink="http://www.w3.org/1999/xlink" width="66.045" height="64" viewBox="0 0 66.045 64"><defs><style>.a{fill:#fff;stroke:#e0e0e0;}.b{fill:#fbbb00;}.c{fill:#518ef8;}.d{fill:#28b446;}.e{fill:#f14336;}.f{stroke:none;}.g{fill:none;}.h{filter:url(#a);}</style><filter id="a" x="0" y="0" width="66.045" height="64" filterUnits="userSpaceOnUse"><feOffset dy="3" input="SourceAlpha"/><feGaussianBlur stdDeviation="3" result="b"/><feFlood flood-opacity="0.161"/><feComposite operator="in" in2="b"/><feComposite in="SourceGraphic"/></filter></defs><g transform="translate(-14 -423)"><g class="h" transform="matrix(1, 0, 0, 1, 14, 423)"><g class="a" transform="translate(9 6)"><rect class="f" width="48.045" height="46" rx="4"/><rect class="g" x="0.5" y="0.5" width="47.045" height="45" rx="3.5"/></g></g><g transform="translate(37 442)"><path class="b" d="M4.5,144.66,3.8,147.145l-2.585.051a9.082,9.082,0,0,1-.075-8.928h0l2.3.4,1.008,2.153A5.391,5.391,0,0,0,4.5,144.66Z" transform="translate(0 -133.104)"/><path class="c" d="M271.386,208.176a9.08,9.08,0,0,1-.045,3.782,9.5,9.5,0,0,1-3.577,5.46h0l-2.9-.139-.41-2.41a5.8,5.8,0,0,0,2.605-2.91h-5.432v-3.782h9.758Z" transform="translate(-251.246 -200.401)"/><path class="d" d="M45.816,314.87h0a10.516,10.516,0,0,1-6.36,2.105,10.262,10.262,0,0,1-8.948-5.03l3.292-2.536a6.037,6.037,0,0,0,5.656,3.689,6.3,6.3,0,0,0,3.05-.777Z" transform="translate(-29.298 -297.853)"/><path class="e" d="M44.131,2.2,40.84,4.737a6.285,6.285,0,0,0-3.193-.859,6.025,6.025,0,0,0-5.713,3.837l-3.309-2.55h0A10.248,10.248,0,0,1,37.647,0,10.506,10.506,0,0,1,44.131,2.2Z" transform="translate(-27.488)"/></g></g></svg>