<svg xmlns="http://www.w3.org/2000/svg" xmlns:xlink="http://www.w3.org/1999/xlink" width="171.045" height="64" viewBox="0 0 171.045 64"><defs><style>.a,.e{fill:#fff;}.a{stroke:#e0e0e0;}.b{fill:#b57624;font-size:10px;font-family:Roboto-Medium, Roboto;font-weight:500;letter-spacing:0.05em;}.c{fill:#49114b;font-size:13px;}.d{fill:#3b4d74;}.f{fill:none;}.g{stroke:none;}.h{filter:url(#a);}</style><filter id="a" x="0" y="0" width="171.045" height="64" filterUnits="userSpaceOnUse"><feOffset dy="3" input="SourceAlpha"/><feGaussianBlur stdDeviation="3" result="b"/><feFlood flood-opacity="0.161"/><feComposite operator="in" in2="b"/><feComposite in="SourceGraphic"/></filter></defs><g transform="translate(-175.955 -423)"><g class="h" transform="matrix(1, 0, 0, 1, 175.95, 423)"><g class="a" transform="translate(9 6)"><rect class="g" width="153.045" height="46" rx="4"/><rect class="f" x="0.5" y="0.5" width="152.045" height="45" rx="3.5"/></g></g><text class="b" transform="translate(246.108 448)"><tspan x="0" y="0">LOGIN USIGN</tspan><tspan class="c"><tspan x="0" y="15">HQ Account</tspan></tspan></text><g transform="translate(200 438)"><path class="d" d="M63.888,10.662a7.423,7.423,0,0,0-4.541-6.841,18.862,18.862,0,0,1-9.159,26.722h13.7Z" transform="translate(-28.156 -2.144)"/><path class="d" d="M14.711,36.8l0,8.828a18.113,18.113,0,0,0,6.408-2.619V36.8Z" transform="translate(-8.253 -20.645)"/><path class="d" d="M0,.081V19.962a7.4,7.4,0,0,0,2.342,5.408c.186.006.372.009.559.009l.112,0V.081Z" transform="translate(0 -0.045)"/><path class="d" d="M29.372,7.16c0-.083,0-.167,0-.25A18.157,18.157,0,0,0,27.945.081H14.711V13.2h6.412V6.564h3.425V19.507a18.345,18.345,0,0,0,1.445-1.776A18.135,18.135,0,0,0,29.372,7.16Z" transform="translate(-8.253 -0.045)"/><rect class="e" width="0.046" height="0.035" transform="translate(6.412)"/><path class="e" d="M29.317,47.234V48.8h3.425V44.332A18.322,18.322,0,0,1,29.317,47.234Z" transform="translate(-16.447 -24.87)"/><path class="e" d="M21.064,6.564V13.2H14.652V.081h-.046V25.039l.05-.01,0-8.828h6.412v6.209a18.322,18.322,0,0,0,3.425-2.9V6.564Z" transform="translate(-8.194 -0.045)"/><rect class="e" width="0.021" height="0.035" transform="translate(3.013)"/><path class="e" d="M6.884.081H6.863v25.3h.021Z" transform="translate(-3.85 -0.045)"/><rect class="e" width="3.378" height="0.035" transform="translate(3.034)"/><path class="e" d="M6.91,25.376a18.26,18.26,0,0,0,3.379-.338V.081H6.91Z" transform="translate(-3.877 -0.045)"/><path class="d" d="M37.2,11.906A18.765,18.765,0,0,0,34.741,2.6a7.4,7.4,0,0,0-2.879-.579H26.072a18.228,18.228,0,0,1-16.792,25.3c-.187,0-.373,0-.559-.009A7.393,7.393,0,0,0,13.8,29.318H25.583A18.857,18.857,0,0,0,37.2,11.906Z" transform="translate(-4.893 -1.132)"/><path class="f" d="M52.093,19.934a3.959,3.959,0,0,0-3.267,1.535,7.288,7.288,0,0,0-1.22,4.594q0,3.578,1.746,5.125a3.94,3.94,0,0,0,2.709,1,4.2,4.2,0,0,0,1.142-.154,5.417,5.417,0,0,0,.773-.3l-1.67-1.676,1.771-1.951,1.677,1.666a8.521,8.521,0,0,0,.548-1.488,9,9,0,0,0,.246-2.231,7.74,7.74,0,0,0-1.136-4.528A3.813,3.813,0,0,0,52.093,19.934Z" transform="translate(-26.707 -11.183)"/><path class="e" d="M55.956,21.864a9.11,9.11,0,0,0-2.507-6.837,7.4,7.4,0,0,0-5.372-2.114,7.7,7.7,0,0,0-4.293,1.2c0,.083,0,.167,0,.25A18.135,18.135,0,0,1,40.409,24.93,8.137,8.137,0,0,0,42.7,29.3a7.367,7.367,0,0,0,5.332,2.031,8.007,8.007,0,0,0,2.655-.391,8.155,8.155,0,0,0,1.568-.818L53.7,31.66a16.835,16.835,0,0,0,1.54-2.247l-1.1-1.165a6.589,6.589,0,0,0,1.283-2.487A12.166,12.166,0,0,0,55.956,21.864Zm-3.693,2.49a8.521,8.521,0,0,1-.548,1.488l-1.677-1.666-1.771,1.951,1.67,1.676a5.417,5.417,0,0,1-.773.3,4.2,4.2,0,0,1-1.142.154,3.94,3.94,0,0,1-2.709-1q-1.746-1.547-1.746-5.125a7.288,7.288,0,0,1,1.22-4.594A3.959,3.959,0,0,1,48.056,16a3.813,3.813,0,0,1,3.318,1.6,7.74,7.74,0,0,1,1.136,4.528A9,9,0,0,1,52.264,24.355Z" transform="translate(-22.67 -7.244)"/></g></g></svg>