<svg xmlns="http://www.w3.org/2000/svg" width="39.049" height="32.562" viewBox="0 0 39.049 32.562">
  <path id="company" d="M38.815,30.327l-2.554-8.739a19.909,19.909,0,0,1-.8-5.588V12.792a1.228,1.228,0,0,0-1.226-1.226h-.653a3.735,3.735,0,0,0,.144-1.024V6.287a3.728,3.728,0,0,0-4.95-3.522,3.728,3.728,0,0,0-6.858,0,3.728,3.728,0,0,0-3.006.249,3.723,3.723,0,0,0-2.861-.174,3.727,3.727,0,0,0-6.858,0A3.726,3.726,0,0,0,4.927,4.212a3.728,3.728,0,1,0,.24,6.969A3.727,3.727,0,0,0,11.4,10.19a3.739,3.739,0,0,0,2.146.09v.336a3.741,3.741,0,0,0,.123.949h-.546A1.227,1.227,0,0,0,11.9,12.792V16a19.909,19.909,0,0,1-.8,5.588l-2.455,8.4H1.214a.969.969,0,0,0-.968.968v1.138a.969.969,0,0,0,.968.968H38.082a.969.969,0,0,0,.968-.968V30.956a.962.962,0,0,0-.234-.629ZM20.7,3.7a2.571,2.571,0,0,1,.871.151,1.1,1.1,0,0,0,1.389-.614,2.589,2.589,0,0,1,4.782,0,1.1,1.1,0,0,0,1.389.614,2.589,2.589,0,0,1,3.46,2.438v4.255a2.593,2.593,0,0,1-.211,1.024H27.621a2.593,2.593,0,0,1-.211-1.024V10.17a1.1,1.1,0,0,0-.431-.877,1.111,1.111,0,0,0-.969-.195,2.6,2.6,0,0,1-1.532-.065,1.1,1.1,0,0,0-1.389.614,2.627,2.627,0,0,1-.136.278.569.569,0,1,0,.991.56,3.776,3.776,0,0,0,.182-.369,3.739,3.739,0,0,0,2.146.09v.336a3.735,3.735,0,0,0,.144,1.024h-.655a1.227,1.227,0,0,0-1.226,1.226V16a19.919,19.919,0,0,1-.8,5.588l-.055.19-.056-.19a19.919,19.919,0,0,1-.8-5.588V12.792A1.228,1.228,0,0,0,21.6,11.565h-.72A3.741,3.741,0,0,0,21,10.616V6.362A3.713,3.713,0,0,0,19.979,3.8a2.591,2.591,0,0,1,.718-.1Zm-6.011,6.918v-.372a1.1,1.1,0,0,0-.431-.877,1.113,1.113,0,0,0-.969-.195,2.6,2.6,0,0,1-1.532-.065,1.1,1.1,0,0,0-1.389.614,2.589,2.589,0,0,1-4.348.7,1.106,1.106,0,0,0-1.273-.3,2.565,2.565,0,0,1-1.014.207A2.589,2.589,0,1,1,4.577,5.3a1.094,1.094,0,0,0,1.269-.412,2.59,2.59,0,0,1,3-.961,1.1,1.1,0,0,0,1.389-.614,2.589,2.589,0,0,1,4.782,0,1.1,1.1,0,0,0,1.389.614,2.59,2.59,0,0,1,3.46,2.439v4.255a2.6,2.6,0,0,1-.18.949H14.865a2.594,2.594,0,0,1-.18-.949ZM37.911,31.924H1.384v-.8H11.22a.569.569,0,1,0,0-1.138H9.829l2.361-8.081A21.055,21.055,0,0,0,13.036,16V12.792a.088.088,0,0,1,.088-.088H21.6a.088.088,0,0,1,.088.088V16a21.044,21.044,0,0,0,.845,5.908l.908,3.108a.569.569,0,0,0,1.093-.319l-.26-.889.555-1.9A21.044,21.044,0,0,0,25.673,16V12.792a.088.088,0,0,1,.088-.088h8.474a.088.088,0,0,1,.088.088V16a21.055,21.055,0,0,0,.845,5.908l2.362,8.081H26.079l-.837-2.866a.569.569,0,1,0-1.092.319l.744,2.547H13.623a.569.569,0,0,0,0,1.138H37.911Zm0,0" transform="translate(-0.001 -0.5)" fill="#852d91"/>
</svg>
