<svg xmlns="http://www.w3.org/2000/svg" width="25.932" height="31.883" viewBox="0 0 25.932 31.883"><defs><style>.a{fill:#80362d;}.b{fill:#ffd7a3;}.c{fill:#852d91;}.d{fill:#fdc88e;}.e{fill:#ffe1b2;}.f{fill:#e4ebf0;}.g{fill:#d0d7dc;}.h{fill:#545465;}.i{fill:#b2b9bf;}</style></defs><g transform="translate(0 0)"><g transform="translate(13.963 0.964)"><path class="a" d="M227,12.724l-3.491,18.95,2.493.5C231.284,28.308,233.549,12.724,227,12.724Z" transform="translate(-223.513 -12.724)"/></g><g transform="translate(3.314 0)"><path class="a" d="M97.129.964c-.873-.53-5.479-1.876-8.976,0-4.3,2.306-8.062,10.555-1.995,18.95.009.012,4.488-.5,4.488-.5Z" transform="translate(-82.988 0)"/></g><g transform="translate(8.478 16.423)"><path class="b" d="M159.135,217.879h-.027v-1.165h-6.982v1.164c0,1.14,0,2.379-1,3.129v11.167h8.976V220.989C159.138,220.237,159.135,219.009,159.135,217.879Z" transform="translate(-151.129 -216.714)"/></g><g transform="translate(9.974 26.178)"><path class="c" d="M173.862,346.142a11.445,11.445,0,0,1-2.992-.389v5.376h6.982v-5.7A10.875,10.875,0,0,1,173.862,346.142Z" transform="translate(-170.87 -345.424)"/></g><g transform="translate(9.475 16.394)"><path class="d" d="M171.769,222.843a2.748,2.748,0,0,0,.5.089v-2.3c-.967-.751-.97-1.98-.97-3.11v-1.194l-5.512.029-1.5.5C165.286,217.981,168.341,221.908,171.769,222.843Z" transform="translate(-164.289 -216.331)"/></g><g transform="translate(5.984 4.455)"><path class="e" d="M132.191,64.271c0,3.994-3.972,8.976-6.982,8.976s-6.982-4.983-6.982-8.976,3.126-5.486,6.982-5.486S132.191,60.277,132.191,64.271Z" transform="translate(-118.228 -58.785)"/></g><g transform="translate(4.439 1.962)"><path class="a" d="M107.366,25.884a10.231,10.231,0,0,0-1.933.591l-.061-.092-.28.22c-.414.157-.717.278-.717.278l.117.194c-1.893,1.491-6.211,4.9-6.6,5.291-.5.5,2.992,13.222,2.992,5.984,0-6.047,3.359-7.244,6.483-7.979a2.347,2.347,0,0,0,1.995-1.995C109.527,27.546,107.865,25.884,107.366,25.884Z" transform="translate(-97.843 -25.884)"/></g><g transform="translate(14.462 0.964)"><path class="a" d="M231.09,16.713c.914,3.283,2.743,4.769,4.457,5.205.939.239.53-2.712.53-2.712s-1.33-3.408-1.5-3.491-1.5-2.992-1.5-2.992l-2.992,2.493Z" transform="translate(-230.093 -12.724)"/></g><g transform="translate(0 20.118)"><path class="f" d="M48.289,265.465c-.467.759-1.419,1.292-3.373,1.292H44.75a5.486,5.486,0,0,0-5.486,5.486v3.491a1.5,1.5,0,0,0,1.5,1.5H50.993Z" transform="translate(-39.264 -265.465)"/></g><g transform="translate(14.202 20.118)"><path class="f" d="M229.375,265.465c.467.759,1.419,1.292,3.373,1.292h.166a5.486,5.486,0,0,1,5.486,5.486v3.491a1.5,1.5,0,0,1-1.5,1.5H226.671Z" transform="translate(-226.671 -265.465)"/></g><g transform="translate(3.989 27.893)"><circle class="g" cx="1.496" cy="1.496" r="1.496"/></g><g transform="translate(17.579 22.532)"><path class="g" d="M275.963,305.887l-.617-.424a5.948,5.948,0,0,0,.862-3.279c0-2.23-.971-4.114-2.119-4.114s-2.119,1.884-2.119,4.114a5.947,5.947,0,0,0,.862,3.279l-.617.424a6.7,6.7,0,0,1-.994-3.7c0-2.726,1.259-4.862,2.867-4.862s2.868,2.136,2.868,4.862A6.705,6.705,0,0,1,275.963,305.887Z" transform="translate(-271.222 -297.322)"/></g><g transform="translate(18.451 30.387)"><circle class="h" cx="0.499" cy="0.499" r="0.499"/></g><g transform="translate(21.443 30.387)"><circle class="h" cx="0.499" cy="0.499" r="0.499"/></g><g transform="translate(5.111 20.039)"><path class="g" d="M107.086,273.146a.374.374,0,0,1-.374-.374c0-6.462,3.054-8.234,3.184-8.306a.374.374,0,0,1,.365.653c-.037.021-2.8,1.68-2.8,7.653A.374.374,0,0,1,107.086,273.146Z" transform="translate(-106.712 -264.418)"/></g><g transform="translate(4.696 28.6)"><circle class="i" cx="0.79" cy="0.79" r="0.79"/></g><g transform="translate(19.075 21.036)"><path class="g" d="M292.332,279.827a.374.374,0,0,1-.353-.25,2.861,2.861,0,0,0-.859-1.314.374.374,0,0,1,.429-.613,3.539,3.539,0,0,1,1.135,1.678.374.374,0,0,1-.353.5Z" transform="translate(-290.96 -277.583)"/></g></g><g transform="translate(17.953 9.941)"><path class="e" d="M277.408,131.215c.816-.187,1.35.213,1.35,1,0,1.039-1.1,3.584-2.251,1.995S277.408,131.215,277.408,131.215Z" transform="translate(-276.156 -131.17)"/></g></svg>