<svg xmlns="http://www.w3.org/2000/svg" width="24.878" height="27.626" viewBox="0 0 24.878 27.626"><defs><style>.a{fill:#852d91;stroke:#852d91;stroke-width:0.1px;}</style></defs><path class="a" d="M53.708,26.117l-1.236-7.129a2.039,2.039,0,0,0-1.443-1.61L47.7,16.387a3.628,3.628,0,0,0-.959-2.16,3.721,3.721,0,0,0-1.621-1.021c.106-.115.2-.23.293-.343a6.331,6.331,0,0,0,1.325-2.835h.257a1.205,1.205,0,0,0,1.213-1.2V8.22a1.2,1.2,0,0,0-.629-1.045V5.7a.409.409,0,0,0-.818,0V7.355a2.55,2.55,0,0,0-.544.155.414.414,0,0,0-.058.025c-.044.02-.088.041-.132.064V4.351a1.642,1.642,0,0,0-1.652-1.628H43.244a1.712,1.712,0,0,0-1.071.377l-.111.089a1.156,1.156,0,0,1-1.447,0L40.5,3.1a1.713,1.713,0,0,0-1.071-.377H38.3a1.642,1.642,0,0,0-1.652,1.628V7.6c-.044-.023-.088-.044-.132-.064a.413.413,0,0,0-.058-.025,2.551,2.551,0,0,0-.544-.155V3.173a2.388,2.388,0,0,1,2.4-2.367h6.034a2.388,2.388,0,0,1,2.4,2.367v.634a.409.409,0,0,0,.818,0V3.173A3.2,3.2,0,0,0,44.356,0H38.322A3.2,3.2,0,0,0,35.1,3.173v4a1.2,1.2,0,0,0-.629,1.045v.613a1.205,1.205,0,0,0,1.213,1.2h.257a6.331,6.331,0,0,0,1.325,2.835c.09.112.187.227.293.343a3.688,3.688,0,0,0-2.579,3.182l-3.333.991a2.039,2.039,0,0,0-1.443,1.61l-.5,2.9a.4.4,0,0,0,.334.465.408.408,0,0,0,.472-.329l.5-2.9a1.234,1.234,0,0,1,.873-.974l3.083-.917v.8a2,2,0,0,0-1.677,1.817l-.3,3.768a1.018,1.018,0,0,0,.273.775,1.05,1.05,0,0,0,.763.329h.51a.4.4,0,1,0,0-.806h-.51a.224.224,0,0,1-.163-.07.217.217,0,0,1-.058-.165l.3-3.769a1.222,1.222,0,0,1,.074-.332,1.237,1.237,0,0,1,1.158-.777h.077a1.2,1.2,0,0,1,1.238,1.109l.3,3.769a.217.217,0,0,1-.058.165.224.224,0,0,1-.163.07h-.51a.4.4,0,1,0,0,.806h.51a1.05,1.05,0,0,0,.763-.329,1.018,1.018,0,0,0,.273-.775l-.3-3.769a2,2,0,0,0-1.682-1.819V16.99l1.406-.418c.128.266.381.839.884,2.076s1.135,2.848,1.739,4.4a.4.4,0,0,0,.015.038c.4,1.038.793,2.055,1.127,2.932a.411.411,0,0,0,.766,0c.334-.877.725-1.894,1.127-2.932a.4.4,0,0,0,.015-.038c.6-1.554,1.232-3.153,1.738-4.4s.757-1.813.885-2.079l1.406.418v2.381a2.116,2.116,0,1,0,.818,0V17.233l3.083.917a1.234,1.234,0,0,1,.873.974L52.9,26.253a.39.39,0,0,1-.09.325.4.4,0,0,1-.31.142H30.176a.4.4,0,0,1-.31-.142.39.39,0,0,1-.09-.325l.408-2.353a.4.4,0,0,0-.334-.465.408.408,0,0,0-.472.329l-.408,2.353a1.192,1.192,0,0,0,.271.981,1.229,1.229,0,0,0,.936.428H52.5a1.229,1.229,0,0,0,.936-.428A1.192,1.192,0,0,0,53.708,26.117ZM46.763,8.177a1.78,1.78,0,0,1,.395-.053.423.423,0,0,0,.2-.047.377.377,0,0,1,.029.143v.613a.392.392,0,0,1-.395.389h-.229ZM35.915,9.222h-.229a.392.392,0,0,1-.395-.389V8.22a.378.378,0,0,1,.029-.143.422.422,0,0,0,.2.047,1.849,1.849,0,0,1,.395.053Zm.818.452V8.615a.579.579,0,0,0,.385-.02.565.565,0,0,0,.353-.522V4.351A.828.828,0,0,1,38.3,3.53h1.129a.885.885,0,0,1,.554.195l.111.089a1.983,1.983,0,0,0,2.482,0l.111-.089a.885.885,0,0,1,.554-.195h1.129a.828.828,0,0,1,.834.821V8.073a.565.565,0,0,0,.353.522.58.58,0,0,0,.385.02V9.674a5.173,5.173,0,0,1-1.178,2.69,5.354,5.354,0,0,1-.98.957.411.411,0,0,0-.036.027,4.034,4.034,0,0,1-4.822,0,.412.412,0,0,0-.036-.027,5.36,5.36,0,0,1-.98-.957A5.174,5.174,0,0,1,36.733,9.674Zm7.286,6.513-2.68,1.974-2.68-1.974a1.894,1.894,0,0,0,.415-1.141V14.4a4.866,4.866,0,0,0,4.53,0v.65A1.894,1.894,0,0,0,44.019,16.186Zm-6.042-.45a1.134,1.134,0,0,0-.69-.034l-.029.008-1.413.42a2.888,2.888,0,0,1,2.411-2.259v1.173A1.058,1.058,0,0,1,37.976,15.736Zm1.11,3.236,0-.006-.061-.153-.011-.027-.059-.146,0-.01-.175-.432-.012-.03-.048-.117-.017-.042-.045-.111-.013-.032-.079-.193-.021-.051-.03-.072-.032-.077-.012-.029-.009-.022-.135-.32v0l-.066-.155-.033-.076,2.3,1.7-.963.4-.005,0-.4.168Zm.976,2.468-.244-.622q-.191-.487-.366-.927l.153-.064.624.714Zm1.284,3.276a.4.4,0,0,0-.042-.068c-.185-.481-.419-1.091-.679-1.761l.382-2.06h.662l.382,2.06C41.78,23.59,41.535,24.225,41.347,24.717Zm.477-4.7h-.969L40.4,19.5l.943-.395.943.395Zm1.036.8-.244.622-.167-.9.624-.714.153.064Q43.05,20.332,42.859,20.818Zm1.567-3.873-.063.147-.008.02-.065.154,0,.011-.059.141-.011.026-.014.033-.027.065-.034.082-.011.027-.088.212-.014.034-.045.11-.018.043-.047.116L43.9,18.2l-.173.426-.006.015-.059.145-.011.027-.062.154v0l-.068.17-.4-.168,0,0-.964-.4,2.3-1.7Zm.995-1.235h0a1.133,1.133,0,0,0-.718.027,1.057,1.057,0,0,1-.279-.691V13.871a2.865,2.865,0,0,1,2.413,2.26Zm3.174,5.708a1.3,1.3,0,1,1-1.3-1.28A1.291,1.291,0,0,1,48.595,21.418Z" transform="translate(-28.9 0.05)"/></svg>