<svg xmlns="http://www.w3.org/2000/svg" width="86" height="110.08" viewBox="0 0 86 110.08"><defs><style>.a{fill:#f2f2f2;}.b{fill:#852d91;}.c{fill:rgba(85,23,114,0.6);opacity:0.3;}.d{fill:#e6e6e6;}.e{fill:#fff;}</style></defs><path class="a" d="M1067.152,154.367l-39.845-5.023c-1.806-15.022.922-29.688,5.58-44.273l39.846,5.023a81.945,81.945,0,0,0-5.581,44.273Z" transform="translate(-988.646 -83.914)"/><rect class="b" width="24.543" height="2.637" transform="matrix(0.992, 0.125, -0.125, 0.992, 49.811, 26.646)"/><rect class="c" width="33.265" height="1.318" transform="matrix(0.992, 0.125, -0.125, 0.992, 44.182, 32.268)"/><rect class="c" width="33.265" height="1.318" transform="matrix(0.992, 0.125, -0.125, 0.992, 43.646, 36.413)"/><rect class="c" width="33.265" height="1.318" transform="matrix(0.992, 0.125, -0.125, 0.992, 43.116, 40.559)"/><rect class="c" width="33.265" height="1.318" transform="matrix(0.992, 0.125, -0.125, 0.992, 42.581, 44.704)"/><rect class="c" width="33.265" height="1.318" transform="matrix(0.992, 0.125, -0.125, 0.992, 42.051, 48.85)"/><rect class="c" width="33.265" height="1.318" transform="matrix(0.992, 0.125, -0.125, 0.992, 41.516, 52.995)"/><rect class="c" width="33.265" height="1.318" transform="matrix(0.992, 0.125, -0.125, 0.992, 40.986, 57.141)"/><path class="d" d="M1032.551,117.712l-37.278-14.942c2.054-14.99,8.4-28.489,16.6-41.42l37.278,14.942a81.943,81.943,0,0,0-16.6,41.42Z" transform="translate(-972.914 -61.35)"/><rect class="b" width="24.543" height="2.637" transform="translate(43.296 6.535) rotate(21.841)"/><rect class="c" width="33.265" height="1.318" transform="translate(36.422 10.656) rotate(21.841)"/><rect class="c" width="33.265" height="1.318" transform="translate(34.862 14.609) rotate(21.841)"/><rect class="c" width="33.265" height="1.318" transform="translate(33.303 18.179) rotate(21.841)"/><rect class="c" width="33.265" height="1.318" transform="translate(31.743 22.051) rotate(21.841)"/><rect class="c" width="33.265" height="1.318" transform="translate(30.184 25.923) rotate(21.841)"/><rect class="c" width="33.265" height="1.318" transform="translate(28.629 29.796) rotate(21.841)"/><rect class="c" width="33.265" height="1.318" transform="translate(27.069 33.668) rotate(21.841)"/><path class="a" d="M1008.8,136.64H968.64c-3.67-14.679-2.8-29.571,0-44.623H1008.8A81.945,81.945,0,0,0,1008.8,136.64Z" transform="translate(-957.478 -76.68)"/><rect class="b" width="24.543" height="2.637" transform="translate(17.096 19.531)"/><rect class="c" width="33.265" height="1.318" transform="translate(12.48 25.807)"/><rect class="c" width="33.265" height="1.318" transform="translate(12.48 29.988)"/><rect class="c" width="33.265" height="1.318" transform="translate(12.48 34.169)"/><rect class="c" width="33.265" height="1.318" transform="translate(12.48 38.351)"/><rect class="c" width="33.265" height="1.318" transform="translate(12.48 42.532)"/><rect class="c" width="33.265" height="1.318" transform="translate(12.48 46.713)"/><rect class="c" width="33.265" height="1.318" transform="translate(12.48 50.894)"/><path class="b" d="M972.756,151.886,959.065,141.13a1.56,1.56,0,0,0-1.355-.792h-7.39a1.571,1.571,0,0,0-1.563,1.579v65.91a5.1,5.1,0,0,0,5.069,5.123h75.861a5.1,5.1,0,0,0,5.07-5.123V156.542a4.632,4.632,0,0,0-4.608-4.656Z" transform="translate(-948.757 -102.869)"/><rect class="e" width="13.905" height="4.867" transform="translate(69.489 65.078)"/></svg>