<svg xmlns="http://www.w3.org/2000/svg" width="30.572" height="30.572" viewBox="0 0 30.572 30.572">
  <g id="hospital" transform="translate(0)">
    <path id="Path_7027" data-name="Path 7027" d="M295.45,354.279a.448.448,0,0,0,.448-.448v-4.817a.448.448,0,0,0-.448-.448h-2.428a.448.448,0,0,0-.448.448v4.817a.448.448,0,0,0,.448.448Zm-1.981-4.817H295v3.921H293.47Zm0,0" transform="translate(-283.567 -337.848)" fill="#852d91"/>
    <path id="Path_7028" data-name="Path 7028" d="M444.072,354.279H446.5a.448.448,0,0,0,.448-.448v-4.817a.448.448,0,0,0-.448-.448h-2.428a.448.448,0,0,0-.448.448v4.817A.448.448,0,0,0,444.072,354.279Zm.448-4.817h1.533v3.921H444.52Zm0,0" transform="translate(-430 -337.848)" fill="#852d91"/>
    <path id="Path_7029" data-name="Path 7029" d="M92.138,581.138a.448.448,0,0,0,.448-.448v-4.816a.448.448,0,0,0-.448-.448H89.71a.448.448,0,0,0-.448.448v4.816a.448.448,0,0,0,.448.448Zm-1.981-4.817H91.69v3.921H90.158Zm0,0" transform="translate(-86.471 -557.772)" fill="#852d91"/>
    <path id="Path_7030" data-name="Path 7030" d="M798.416,581.138h2.428a.448.448,0,0,0,.448-.448v-4.816a.448.448,0,0,0-.448-.448h-2.428a.448.448,0,0,0-.448.448v4.816A.448.448,0,0,0,798.416,581.138Zm.448-4.817H800.4v3.921h-1.533Zm0,0" transform="translate(-773.511 -557.772)" fill="#852d91"/>
    <path id="Path_7031" data-name="Path 7031" d="M595.108,354.279h2.428a.448.448,0,0,0,.448-.448v-4.817a.448.448,0,0,0-.448-.448h-2.428a.448.448,0,0,0-.448.448v4.817A.448.448,0,0,0,595.108,354.279Zm.448-4.817h1.533v3.921h-1.533Zm0,0" transform="translate(-576.419 -337.848)" fill="#852d91"/>
    <path id="Path_7032" data-name="Path 7032" d="M439.784,53.094a.448.448,0,0,0,.9,0v-.926h.926a.448.448,0,0,0,0-.9h-.926v-.926a.448.448,0,0,0-.9,0v.926h-.926a.448.448,0,0,0,0,.9h.926Zm0,0" transform="translate(-424.945 -48.312)" fill="#852d91"/>
    <path id="Path_7033" data-name="Path 7033" d="M28.106,11.018a.448.448,0,0,0,.448-.448V8.958a.448.448,0,0,0-.448-.448H25.389a.448.448,0,0,0,0,.9h2.269v.717H21.19V9.406h1.969a.448.448,0,0,0,0-.9H21.19V6.41h.687a.448.448,0,0,0,.448-.448V4.35a.448.448,0,0,0-.448-.448H17.883V-1.571a.448.448,0,0,0-.448-.448H9.1a.448.448,0,0,0-.448.448V3.9H4.657a.448.448,0,0,0-.448.448V5.963a.448.448,0,0,0,.448.448h.688v2.1H-1.571a.448.448,0,0,0-.448.448V10.57a.448.448,0,0,0,.448.448h.2v2.947a.448.448,0,0,0,.448.448.448.448,0,0,0,.448-.448V11.018H5.344V25.965H-.476V16.188a.448.448,0,0,0-.448-.448.448.448,0,0,0-.448.448v9.777h-.2a.448.448,0,0,0-.448.448v1.693a.448.448,0,0,0,.448.448H28.106a.448.448,0,0,0,.448-.448V26.413a.448.448,0,0,0-.448-.448h-.2V11.018ZM5.1,4.8h6.96a.448.448,0,1,0,0-.9H9.547V-1.123h7.44V3.9H14.6a.448.448,0,0,0,0,.9H21.43v.716H5.1ZM-1.123,9.406H5.344v.717H-1.123Zm7.363-3H20.295V25.965H17.716V18.88a.448.448,0,0,0-.448-.448h-8a.448.448,0,0,0-.448.448v7.084H6.24ZM9.714,25.965V19.328h3.105v6.637Zm4-6.637H16.82v6.637H13.715Zm13.943,8.33H-1.123v-.8H27.658Zm-.647-1.693H21.19V11.018h5.82V25.965Zm0,0" transform="translate(2.019 2.019)" fill="#852d91"/>
  </g>
</svg>
