<svg xmlns="http://www.w3.org/2000/svg" width="20.646" height="30.919" viewBox="0 0 20.646 30.919">
  <g id="lab" transform="translate(0.05 0.05)">
    <path id="Path_3512" data-name="Path 3512" d="M.467,30.819H18.211a.492.492,0,0,0,.467-.514V23.31a10.373,10.373,0,0,0,1.868-6.36,10.371,10.371,0,0,0-1.868-6.36V8.732a.492.492,0,0,0-.467-.514H14.669l2.939-3.232a.55.55,0,0,0,0-.726l-.137-.15,1.071-1.178a.55.55,0,0,0,0-.726L16.674.15a.437.437,0,0,0-.66,0L14.943,1.328l-.137-.15a.437.437,0,0,0-.66,0L6.674,9.4a.55.55,0,0,0,0,.726l.137.15L5.273,11.964a.55.55,0,0,0,0,.726l1.868,2.055a.437.437,0,0,0,.66,0l1.538-1.691.137.15a.437.437,0,0,0,.66,0l1.186-1.3a2.174,2.174,0,0,0,3.114-.563,6.187,6.187,0,0,1,2.841,5.613,7.14,7.14,0,0,1-2.936,5.65h-2.2V19a.492.492,0,0,0-.467-.514H3.269A.492.492,0,0,0,2.8,19v2.055a.492.492,0,0,0,.467.514h6.07V22.6h-1.4a.492.492,0,0,0-.467.514v3.6H2.335A2.463,2.463,0,0,0,0,29.278V30.3a.492.492,0,0,0,.467.514ZM16.344,1.239l1.208,1.328-.741.815L15.6,2.054ZM7.471,13.655,6.264,12.327,7.471,11l1.208,1.328ZM12.608,11.3a1.476,1.476,0,0,1-1.4-1.541,1.476,1.476,0,0,1,1.4-1.541,1.476,1.476,0,0,1,1.4,1.541A1.478,1.478,0,0,1,12.608,11.3Zm1.285-3.681a2.175,2.175,0,0,0-2.937.323,2.759,2.759,0,0,0-.294,3.231l-.856.942L7.665,9.759l6.811-7.492,2.141,2.356Zm1,2.654a2.819,2.819,0,0,0,0-1.027h2.849v1.027Zm3.316,6.677a7.593,7.593,0,0,0-2.2-5.65H18a9.568,9.568,0,0,1,1.612,5.65A9.569,9.569,0,0,1,18,22.6H15.857a7.977,7.977,0,0,0,2.354-5.65Zm-14.476,3.6V19.518h7.471v1.027Zm7.471,1.027v3.6a.469.469,0,1,1-.934,0v-3.6Zm-2.8,2.055h.934v1.541a1.476,1.476,0,0,0,1.4,1.541,1.476,1.476,0,0,0,1.4-1.541V23.627h5.6v3.082H8.405ZM.934,29.278a1.478,1.478,0,0,1,1.4-1.541h15.41v2.055H.934Zm0,0" transform="translate(0 0.001)" fill="#852d91" stroke="#852d91" stroke-width="0.1"/>
    <path id="Path_3513" data-name="Path 3513" d="M272,384h.92v.92H272Zm0,0" transform="translate(-258.48 -361.236)" fill="#852d91" stroke="#852d91" stroke-width="0.1"/>
    <path id="Path_3514" data-name="Path 3514" d="M240,384h.92v.92H240Zm0,0" transform="translate(-227.965 -361.236)" fill="#852d91" stroke="#852d91" stroke-width="0.1"/>
  </g>
</svg>
