<svg xmlns="http://www.w3.org/2000/svg" width="46.234" height="46.569" viewBox="0 0 46.234 46.569"><defs><style>.a{isolation:isolate;}.b{fill:#009245;}.c{fill:#b0e1b7;}.d{fill:#298235;}.e{fill:#ffe9b3;}.f{fill:#efd59a;}.g{fill:#39b54a;}</style></defs><g class="a"><path class="b" d="M70.464,47.285,71.9,44.478l-2.063-2.384.723-3.069-2.577-1.817-.036-3.153-2.937-1.147-.787-3.053L61.1,29.441l-1.492-2.778-3.134.346-2.116-2.337L51.4,25.762,48.785,24l-2.615,1.762-2.959-1.09L41.1,27.009l-3.134-.346L36.47,29.441l-3.126.415-.786,3.053-2.937,1.147-.036,3.153-2.577,1.817.723,3.069-2.063,2.384,1.438,2.806-1.438,2.806,2.063,2.384-.723,3.069,2.577,1.817.036,3.153,2.937,1.147.787,3.053,3.126.415,1.492,2.778L41.1,67.56,43.212,69.9l2.959-1.09,2.615,1.762L51.4,68.807l2.959,1.09,2.116-2.337,3.134.346L61.1,65.128l3.126-.415.786-3.053,2.937-1.147.036-3.153,2.577-1.817-.723-3.069L71.9,50.091Z" transform="translate(-25.668 -24)"/><circle class="c" cx="18.467" cy="18.467" r="18.467" transform="translate(4.65 4.818)"/><path class="d" d="M112.032,128.117a16.3,16.3,0,0,1-1.677-.089l.169-1.6a14.665,14.665,0,0,0,1.511.08Zm1.677-.084-.163-1.6a14.5,14.5,0,0,0,1.494-.232l.329,1.572a16.132,16.132,0,0,1-1.66.258Zm-5.014-.269a16.073,16.073,0,0,1-1.624-.437l.5-1.527a14.406,14.406,0,0,0,1.46.393Zm8.3-.42-.493-1.528a14.363,14.363,0,0,0,1.413-.54l.651,1.468a16,16,0,0,1-1.571.6Zm-11.491-.622a16.088,16.088,0,0,1-1.5-.766l.806-1.389a14.452,14.452,0,0,0,1.346.689Zm14.561-.74-.8-1.391a14.541,14.541,0,0,0,1.27-.823l.942,1.3a16.14,16.14,0,0,1-1.41.915Zm-17.463-.944a16.17,16.17,0,0,1-1.3-1.06l1.077-1.192a14.574,14.574,0,0,0,1.174.955Zm20.181-1.025-1.073-1.194a14.574,14.574,0,0,0,1.072-1.068l1.191,1.077a16.18,16.18,0,0,1-1.19,1.186Zm-22.671-1.224a16.131,16.131,0,0,1-1.057-1.307l1.3-.943a14.578,14.578,0,0,0,.951,1.176Zm24.922-1.266-1.3-.947a14.545,14.545,0,0,0,.827-1.266l1.388.807a16.159,16.159,0,0,1-.919,1.407Zm-26.893-1.451a16.116,16.116,0,0,1-.763-1.5l1.467-.652a14.5,14.5,0,0,0,.686,1.348Zm28.579-1.45-1.465-.657a14.426,14.426,0,0,0,.545-1.41l1.526.5a15.99,15.99,0,0,1-.606,1.568ZM96.776,117a16.034,16.034,0,0,1-.432-1.625l1.572-.331a14.376,14.376,0,0,0,.389,1.462Zm30.986-1.573-1.57-.336a14.48,14.48,0,0,0,.238-1.493l1.6.169A16.086,16.086,0,0,1,127.762,115.431Zm-31.677-1.713a16.275,16.275,0,0,1-.085-1.66v-.017h1.606v.017a14.666,14.666,0,0,0,.076,1.5Zm32.032-1.626h-1.606v-.034a14.723,14.723,0,0,0-.078-1.51l1.6-.167a16.3,16.3,0,0,1,.087,1.677Zm-30.431-1.561-1.6-.168a16.1,16.1,0,0,1,.263-1.66l1.571.334A14.47,14.47,0,0,0,97.686,110.531Zm28.513-1.478a14.4,14.4,0,0,0-.39-1.461l1.527-.5a16.026,16.026,0,0,1,.434,1.624Zm-27.885-1.476-1.527-.5a16.031,16.031,0,0,1,.6-1.569l1.466.655A14.417,14.417,0,0,0,98.314,107.578Zm26.953-1.4a14.462,14.462,0,0,0-.688-1.347l1.39-.8a16.047,16.047,0,0,1,.764,1.5Zm-25.721-1.36-1.389-.806a16.176,16.176,0,0,1,.918-1.407l1.3.946A14.5,14.5,0,0,0,99.546,104.821Zm24.208-1.255a14.581,14.581,0,0,0-.953-1.176l1.193-1.074a16.242,16.242,0,0,1,1.058,1.3Zm-22.428-1.186-1.192-1.076a16.243,16.243,0,0,1,1.189-1.187l1.074,1.194A14.647,14.647,0,0,0,101.325,102.38Zm20.406-1.06a14.557,14.557,0,0,0-1.174-.953l.945-1.3a16.177,16.177,0,0,1,1.3,1.059Zm-18.159-.961-.944-1.3a16.181,16.181,0,0,1,1.41-.916l.8,1.391a14.5,14.5,0,0,0-1.268.825Zm15.717-.817a14.5,14.5,0,0,0-1.346-.688l.655-1.466a16.1,16.1,0,0,1,1.5.764Zm-13.1-.694-.653-1.467a15.994,15.994,0,0,1,1.57-.6l.495,1.528A14.441,14.441,0,0,0,106.188,98.848Zm10.344-.536a14.449,14.449,0,0,0-1.461-.391l.333-1.571a16.086,16.086,0,0,1,1.624.435Zm-7.47-.394-.331-1.571a16.127,16.127,0,0,1,1.66-.26l.165,1.6a14.406,14.406,0,0,0-1.494.234Zm4.516-.232a14.7,14.7,0,0,0-1.511-.079V96a16.306,16.306,0,0,1,1.677.087Z" transform="translate(-88.941 -88.774)"/><circle class="e" cx="12.044" cy="12.044" r="12.044" transform="translate(11.073 11.241)"/><path class="f" d="M158.464,215.047a12.045,12.045,0,0,0,20.581-12.368A29.341,29.341,0,0,1,158.464,215.047Z" transform="translate(-145.136 -184.746)"/><path class="g" d="M180.818,220.044a1.6,1.6,0,0,1-1.135-.47l-3.212-3.212a1.606,1.606,0,1,1,2.271-2.271l2.076,2.076,7.7-7.7a1.606,1.606,0,1,1,2.271,2.271l-8.832,8.832A1.6,1.6,0,0,1,180.818,220.044Z" transform="translate(-160.912 -189.533)"/></g></svg>