<svg xmlns="http://www.w3.org/2000/svg" xmlns:xlink="http://www.w3.org/1999/xlink" width="112" height="105.375" viewBox="0 0 112 105.375">
  <defs>
    <linearGradient id="linear-gradient" x1="0.627" y1="0.634" x2="0.193" y2="0.29" gradientUnits="objectBoundingBox">
      <stop offset="0" stop-color="#312a6c"/>
      <stop offset="1" stop-color="#852d91"/>
    </linearGradient>
    <linearGradient id="linear-gradient-2" x1="1.65" y1="0.5" x2="-0.081" y2="0.5" gradientUnits="objectBoundingBox">
      <stop offset="0" stop-color="#ff6c91"/>
      <stop offset="0.323" stop-color="#ff4486"/>
      <stop offset="0.699" stop-color="#a10068"/>
      <stop offset="1" stop-color="#580055"/>
    </linearGradient>
    <linearGradient id="linear-gradient-3" x1="1.153" y1="0.5" x2="-0.192" y2="0.5" xlink:href="#linear-gradient-2"/>
  </defs>
  <g id="logo_icon" transform="translate(0)">
    <path id="Path_2463" data-name="Path 2463" d="M330.944,294.483a39.925,39.925,0,0,1,34.474-44.742c8.958-1.192,19.6,1.407,21.825,11.524,10.369-18.234-20.848-29.378-37.08-23.967a55.849,55.849,0,0,0-35.07,59.3,56.858,56.858,0,0,0,1.356,6.87c4.451,11.579,12.54,11.471,18.35,3.625a40.615,40.615,0,0,1-3.855-12.605Z" transform="translate(-314.609 -233.46)" fill-rule="evenodd" fill="url(#linear-gradient)"/>
    <path id="Path_2464" data-name="Path 2464" d="M529.526,241.492a23.162,23.162,0,0,1,3.313,9.63c.434,4.22.759,6.925.923,8.005,1.9,14.718,33.116-11.9,15.69-24.94A55.932,55.932,0,0,0,508.9,223.8a55.068,55.068,0,0,0-13.138,3.355c12.215-2.869,27.145,3.515,33.767,14.337Z" transform="translate(-460.205 -223.317)" fill-rule="evenodd" fill="url(#linear-gradient-2)"/>
    <path id="Path_2465" data-name="Path 2465" d="M367.364,451.963l-23.888,18.611c-7.927,6.168-14.441,7.9-19.49-2.76a54.29,54.29,0,0,0,5.266,13.039c4.072,6.762,11.836,12.984,19.435,7.629L363.4,478.257c4.288-2.977,7.708-4.925,9.175,1.948l3.636,17.365c1.358,6.6,8.307,7.413,12.759,2.272L417.2,467.6c4.125-4.706,7.981-3.84,7.981,2.437q-.082,12.822-9.338,24.94a56.057,56.057,0,0,0,18.241-37.493c0-.595.056-1.19.056-1.785h0c.216-11.036-6.787-20.451-15.2-12.5-2.932,2.76-12.6,13.2-29.317,30.84-3.584,3.731-6.406,2.434-7.275-2.436l-2.823-16.123c-1.358-7.681-7-7.519-12.161-3.516Z" transform="translate(-322.146 -397.81)" fill-rule="evenodd" fill="url(#linear-gradient-3)"/>
  </g>
</svg>
