<svg xmlns="http://www.w3.org/2000/svg" width="59.324" height="89.316" viewBox="0 0 59.324 89.316"><defs><style>.a{fill:#f0a479;}.b{fill:#e5966e;}.c{fill:#852d91;}.d{fill:rgba(220,148,230,0.69);}.e{fill:#d665d3;}.f{fill:#c64ac6;}.g{fill:#707487;}.h{fill:#52586d;}.i{fill:#f7b594;}</style></defs><g transform="translate(0 0)"><path class="a" d="M139.648,213.575a11.845,11.845,0,0,1-6.444-1.82v6.292a8.258,8.258,0,0,0,12.833,0v-6.461A11.214,11.214,0,0,1,139.648,213.575Zm0,0" transform="translate(-109.967 -174.676)"/><path class="b" d="M138.594,214.336a11.671,11.671,0,0,1-5.391-1.777v6.292a8.2,8.2,0,0,0,5.391,2.994Zm0,0" transform="translate(-109.966 -175.479)"/><path class="c" d="M53.046,260.094l-12.618-4.886a6.923,6.923,0,0,1-2.65,3.612,14.346,14.346,0,0,1-16.249,0,6.926,6.926,0,0,1-2.65-3.611l-12.6,4.885A10.757,10.757,0,0,0,0,269.833v15.43H8.371a2.092,2.092,0,0,1,2.092,2.093V300h38.4V287.355a2.092,2.092,0,0,1,2.092-2.092h8.371v-15.43a10.755,10.755,0,0,0-6.278-9.739Zm0,0" transform="translate(0 -210.688)"/><path class="d" d="M9.676,275.828l-3.268,1.267a10.757,10.757,0,0,0-6.279,9.739v15.43H5.52v-18a10.393,10.393,0,0,1,4.155-8.438Zm0,0" transform="translate(-0.106 -227.711)"/><path class="d" d="M124.966,245.531a8.257,8.257,0,0,1-12.833,0l-4.452,1.726a6.949,6.949,0,0,0,2.745,3.934,14.346,14.346,0,0,0,16.249,0,6.947,6.947,0,0,0,2.745-3.935Zm0,0" transform="translate(-88.896 -202.699)"/><path class="e" d="M200.552,346.477a3.279,3.279,0,0,0-2.83,1.656.511.511,0,0,1-.837-.006,3.244,3.244,0,0,0-6.065,1.6c0,3.629,3.2,6.494,6.347,7.977a.342.342,0,0,0,.149.033.347.347,0,0,0,.149-.033,15.128,15.128,0,0,0,3.107-2c2.142-1.8,3.227-3.815,3.225-5.988a3.249,3.249,0,0,0-3.244-3.241Zm0,0" transform="translate(-157.532 -286.036)"/><path class="f" d="M196.212,349.77a3.216,3.216,0,0,1,.547-1.806,3.244,3.244,0,0,0-5.939,1.806c0,3.629,3.2,6.494,6.347,7.977a.349.349,0,0,0,.3,0,15.219,15.219,0,0,0,2.529-1.544c-2.111-1.592-3.781-3.813-3.783-6.433Zm0,0" transform="translate(-157.532 -286.074)"/><path class="a" d="M10.823,440.538V427.529a2.092,2.092,0,0,0-2.092-2.092H0v13.008a2.092,2.092,0,0,0,2.092,2.092h8.731Zm0,0" transform="translate(0 -351.222)"/><path class="b" d="M5.406,438.446V425.438H0v13.008a2.092,2.092,0,0,0,2.092,2.092H7.5A2.093,2.093,0,0,1,5.406,438.446Zm0,0" transform="translate(0 -351.222)"/><path class="a" d="M287.8,424.16v.223h-8.73a2.092,2.092,0,0,0-2.092,2.092v13.008h8.73a2.093,2.093,0,0,0,2.093-2.092Zm0,0" transform="translate(-228.479 -350.167)"/><path class="b" d="M285.647,425.438h-5.522a2.093,2.093,0,0,0-2.093,2.092v13.008h5.523V427.53A2.092,2.092,0,0,1,285.647,425.438Zm0,0" transform="translate(-229.53 -351.222)"/><path class="g" d="M85.221,20.252v-.729a1.046,1.046,0,0,1,1.122-1.043,26.186,26.186,0,0,0,16.189-4.085,1.046,1.046,0,0,1,1.338.163c3.906,4.2,3.523,3.677,3.523,4.225v1.457c1.5-.1,3.279,1.349,4.27,2.267v-7.15a15.357,15.357,0,0,0-30.713,0v6.374a6.651,6.651,0,0,1,4.271-1.479Zm0,0" transform="translate(-66.828 0)"/><path class="h" d="M86.34,15.357A15.358,15.358,0,0,1,99,.241,15.346,15.346,0,0,0,80.949,15.357v6.374a6.647,6.647,0,0,1,4.271-1.479v-.73a1.046,1.046,0,0,1,1.12-1.043Zm0,0" transform="translate(-66.828)"/><path class="a" d="M233.52,116.01v8.458c0,.107,0,.213-.008.319,2.8.186,5.31-1.879,5.31-4.388s-2.507-4.57-5.3-4.388Zm0,0" transform="translate(-192.777 -95.764)"/><path class="b" d="M237.114,117.112a5.3,5.3,0,0,0-3.595-1.1v8.459c0,.106,0,.212-.008.318a5.3,5.3,0,0,0,3.6-1.1Zm0,0" transform="translate(-192.777 -95.764)"/><path class="a" d="M79.313,121.437v-8.445c-2.494-.082-5.3,1.832-5.3,4.375,0,2.507,2.5,4.575,5.309,4.388,0-.106-.007-.212-.007-.318Zm0,0" transform="translate(-61.1 -93.279)"/><path class="b" d="M79.313,120.654a4.214,4.214,0,0,1-1.707-3.287,4.067,4.067,0,0,1,1.707-3.165v-1.21c-2.494-.082-5.3,1.832-5.3,4.375,0,2.507,2.5,4.575,5.309,4.388,0-.106-.008-.212-.008-.318Zm0,0" transform="translate(-61.1 -93.279)"/><path class="i" d="M122.38,76.719a1.046,1.046,0,0,0-1.338-.163A27.494,27.494,0,0,1,104.493,81a1.046,1.046,0,0,0-1.122,1.043v9.175a11.446,11.446,0,0,0,22.89,0V81.3c0-.549.024-.386-3.882-4.585Zm0,0" transform="translate(-85.339 -63.06)"/><path class="a" d="M108.763,112.693V102.4a24.41,24.41,0,0,1-4.27.078,1.046,1.046,0,0,0-1.122,1.043v9.175a11.57,11.57,0,0,0,14.213,10.975,11.213,11.213,0,0,1-8.82-10.975Zm0,0" transform="translate(-85.338 -84.535)"/></g></svg>