<svg id="pharmacy" xmlns="http://www.w3.org/2000/svg" width="24.741" height="24.741" viewBox="0 0 24.741 24.741">
  <g id="Group_2986" data-name="Group 2986" transform="translate(0)">
    <g id="Group_2985" data-name="Group 2985">
      <path id="Path_3552" data-name="Path 3552" d="M24.556,2.744a.483.483,0,0,0-.416-.087l-2.3.585a4.594,4.594,0,0,1-1.13.141H17.337A2.187,2.187,0,0,0,15.163,5.25,1.226,1.226,0,0,1,13.945,6.3h-.123V5.287a2.843,2.843,0,1,0-2.9,0V6.3H10.8A1.226,1.226,0,0,1,9.58,5.25,2.187,2.187,0,0,0,7.406,3.383H4.033A4.591,4.591,0,0,1,2.9,3.241L.6,2.657a.483.483,0,0,0-.6.468A3.891,3.891,0,0,0,1.037,5.771,3.74,3.74,0,0,0,2.465,8.666l.455.608a5.544,5.544,0,0,0,4.419,2.212,5.481,5.481,0,0,0,3.584-1.322v1.723h-.433A3.126,3.126,0,0,0,7.75,16.518a.483.483,0,0,0,.847-.466,2.159,2.159,0,0,1,1.892-3.2h.433v4.317H9.786a2.311,2.311,0,0,0,0,4.623H11.13a12.5,12.5,0,0,0,.8,2.655.483.483,0,0,0,.444.293h0a.483.483,0,0,0,.444-.295l.01-.022a12.5,12.5,0,0,0,.786-2.631h.549a.991.991,0,1,1,0,1.981h-.033a.483.483,0,0,0,0,.966h.033a1.957,1.957,0,1,0,0-3.914h-.412a12.617,12.617,0,0,0,.065-1.282V18.137h.322a3.125,3.125,0,0,0,0-6.25h-.322V10.164A5.481,5.481,0,0,0,17.4,11.486a5.544,5.544,0,0,0,4.419-2.212l.455-.608a3.74,3.74,0,0,0,1.428-2.895,3.89,3.89,0,0,0,1.036-2.646A.483.483,0,0,0,24.556,2.744ZM10.539,9.2a4.524,4.524,0,0,1-3.2,1.316A4.575,4.575,0,0,1,4.413,9.453c.121.012.244.018.369.018h.809a.483.483,0,1,0,0-.966H4.782A2.784,2.784,0,0,1,2.148,6.611a3.881,3.881,0,0,0,1.758.42h1a.483.483,0,0,0,0-.966h-1a2.945,2.945,0,0,1-2.869-2.3l1.627.414a5.555,5.555,0,0,0,1.368.171H7.406A1.225,1.225,0,0,1,8.625,5.4,2.187,2.187,0,0,0,10.8,7.263h.123V8.825ZM9.786,20.827a1.345,1.345,0,0,1,0-2.69h1.136v1.379a12.624,12.624,0,0,0,.068,1.311Zm3.068-1.282a11.5,11.5,0,0,1-.479,3.3,11.5,11.5,0,0,1-.488-3.325V18.137h.966Zm0-2.374h-.966V5.644a2.8,2.8,0,0,0,.966,0Zm1.289-4.317a2.158,2.158,0,0,1,0,4.317h-.322V12.854h.322ZM12.372,4.719a1.876,1.876,0,1,1,1.876-1.876A1.879,1.879,0,0,1,12.372,4.719Zm8.465,1.345h-1a.483.483,0,0,0,0,.966h1a3.88,3.88,0,0,0,1.758-.42A2.784,2.784,0,0,1,19.961,8.5h-.809a.483.483,0,0,0,0,.966h.809c.124,0,.247-.006.369-.018A4.575,4.575,0,0,1,17.4,10.519,4.525,4.525,0,0,1,14.2,9.2l-.383-.378V7.263h.123A2.187,2.187,0,0,0,16.118,5.4a1.225,1.225,0,0,1,1.218-1.047h3.374a5.556,5.556,0,0,0,1.368-.171l1.627-.414A2.945,2.945,0,0,1,20.837,6.064Z" transform="translate(-0.001)" fill="#852d91"/>
    </g>
  </g>
  <g id="Group_2988" data-name="Group 2988" transform="translate(9.954 23.775)">
    <g id="Group_2987" data-name="Group 2987">
      <path id="Path_3553" data-name="Path 3553" d="M206.826,492.143a.483.483,0,1,0,.142.342A.487.487,0,0,0,206.826,492.143Z" transform="translate(-206.001 -492.001)" fill="#852d91"/>
    </g>
  </g>
</svg>
