<svg xmlns="http://www.w3.org/2000/svg" width="32.562" height="32.562" viewBox="0 0 32.562 32.562"><defs><style>.a{fill:#c3c4c5;}</style></defs><g transform="translate(0 0)"><path class="a" d="M120.14,193.133a1.339,1.339,0,0,0,2.286.947l1.594-1.594h0a1.339,1.339,0,0,0-1.893-1.893l-1.594,1.594A1.33,1.33,0,0,0,120.14,193.133Zm3.2-1.866a.385.385,0,0,1,0,.544l-.46.46-.544-.544.46-.46A.385.385,0,0,1,123.345,191.267Zm-2.138,1.594.46-.46.544.544-.46.46a.385.385,0,1,1-.544-.544Z" transform="translate(-112.499 -178.105)"/><path class="a" d="M207.036,198.761h4.545a.477.477,0,0,0,0-.954h-4.545a.477.477,0,0,0,0,.954Z" transform="translate(-193.422 -185.227)"/><path class="a" d="M207.036,235.691h4.545a.477.477,0,1,0,0-.954h-4.545a.477.477,0,0,0,0,.954Z" transform="translate(-193.422 -219.808)"/><path class="a" d="M32.085,154.74h-1.2l-.131-1.324a.477.477,0,1,0-.949.094l.122,1.23H24.35v-4.462h5.131l.131,1.324a.477.477,0,0,0,.474.43l.048,0a.477.477,0,0,0,.428-.522l-1.73-17.473h.175a.776.776,0,0,0,.775-.775v-.991a.775.775,0,0,0-.775-.775H21.822a.775.775,0,0,0-.775.775v.991a.776.776,0,0,0,.775.775H22l-.484,4.886v.006l-.175,1.764h-.976v-6.28a1.332,1.332,0,0,0-1.33-1.33H10.025a.477.477,0,1,0,0,.954h9.007a.377.377,0,0,1,.376.376v6.28H6.566v-6.28a.377.377,0,0,1,.376-.376H8.118a.477.477,0,1,0,0-.954H6.943a1.332,1.332,0,0,0-1.33,1.33v6.28H.829a.83.83,0,0,0-.829.829v.942a.83.83,0,0,0,.829.829h.795v4.771a.477.477,0,0,0,.954,0v-4.771H23.4V154.74H18.3v-3.889a.851.851,0,0,0-.85-.85H8.525a.851.851,0,0,0-.85.85v3.889h-5.1V149.97a.477.477,0,1,0-.954,0v4.771H.477a.477.477,0,1,0,0,.954H32.085a.477.477,0,1,0,0-.954Zm-7.735-5.416v-4.457h4.6l.441,4.457Zm3.964-10.833h-5.8l.441-4.456h4.918ZM22,132.449h6.826v.632H22ZM.954,142.338v-.692H25.02v.692Zm24.191.954a.83.83,0,0,0,.829-.829v-.942a.83.83,0,0,0-.829-.829H22.3l.123-1.246h5.989l.442,4.468h-4.5v-.621h.795ZM8.629,150.955H12.51v3.785H8.629Zm4.835,3.785v-3.785h3.881v3.785Z" transform="translate(0 -123.132)"/><path class="a" d="M59.478,339.74a.8.8,0,0,0,.8-.8v-2.705a.8.8,0,0,0-.8-.8H57.511a.8.8,0,0,0-.8.8v2.705a.8.8,0,0,0,.8.8Zm-1.817-3.359h1.667v2.4H57.661Z" transform="translate(-53.101 -314.095)"/><path class="a" d="M139.076,339.74a.8.8,0,0,0,.8-.8v-2.705a.8.8,0,0,0-.8-.8h-1.967a.8.8,0,0,0-.8.8v2.705a.8.8,0,0,0,.8.8Zm-1.817-3.359h1.667v2.4h-1.667Z" transform="translate(-127.636 -314.095)"/><path class="a" d="M218.675,339.74a.8.8,0,0,0,.8-.8v-2.705a.8.8,0,0,0-.8-.8h-1.967a.8.8,0,0,0-.8.8v2.705a.8.8,0,0,0,.8.8Zm-1.817-3.359h1.667v2.4h-1.667Z" transform="translate(-202.173 -314.095)"/><path class="a" d="M298.274,339.74a.8.8,0,0,0,.8-.8v-2.705a.8.8,0,0,0-.8-.8h-1.967a.8.8,0,0,0-.8.8v2.705a.8.8,0,0,0,.8.8Zm-1.817-3.359h1.667v2.4h-1.667Z" transform="translate(-276.71 -314.095)"/><path class="a" d="M338.6,5.277a.934.934,0,0,1,.933.933V7.3a.477.477,0,0,0,.954,0V6.21A1.889,1.889,0,0,0,338.6,4.323a.934.934,0,0,1-.933-.933V.477a.477.477,0,1,0-.954,0V3.39A1.889,1.889,0,0,0,338.6,5.277Z" transform="translate(-315.297 0)"/><path class="a" d="M410.778,32.333v.715a.477.477,0,1,0,.954,0v-.715a.476.476,0,0,1,.476-.476h.8a1.431,1.431,0,0,0,1.43-1.43V27.976a.477.477,0,1,0-.954,0v2.451a.476.476,0,0,1-.476.476h-.8A1.431,1.431,0,0,0,410.778,32.333Z" transform="translate(-384.653 -25.75)"/><path class="a" d="M408.328,4.671a.477.477,0,0,0,.477-.477V.477a.477.477,0,0,0-.954,0V4.194A.477.477,0,0,0,408.328,4.671Z" transform="translate(-381.913 0)"/><path class="a" d="M369.159,24.969a.477.477,0,0,0,.477-.477V23.375a.477.477,0,1,0-.954,0v1.117A.477.477,0,0,0,369.159,24.969Z" transform="translate(-345.235 -21.442)"/></g></svg>