<svg xmlns="http://www.w3.org/2000/svg" width="34.897" height="30.671" viewBox="0 0 34.897 30.671"><defs><style>.a{isolation:isolate;}.b{fill:#5a5a5a;}.c{fill:#444;}.d{fill:#6e6e6e;}.e{fill:#ffd400;}.f{fill:#fdbf00;}</style></defs><g class="a" transform="translate(0 -31)"><path class="b" d="M165.313,34.067v2.045a1.012,1.012,0,0,1-1.022,1.022h-1.022V34.067a1.012,1.012,0,0,0-1.022-1.022h-8.179a1.012,1.012,0,0,0-1.022,1.022v3.067h-1.022A1.012,1.012,0,0,1,151,36.112V34.067A3.063,3.063,0,0,1,154.067,31h8.179A3.063,3.063,0,0,1,165.313,34.067Z" transform="translate(-140.708 0)"/><path class="c" d="M260.09,33.045H256V31h4.089a3.063,3.063,0,0,1,3.067,3.067v2.045a1.012,1.012,0,0,1-1.022,1.022h-1.022V34.067A1.012,1.012,0,0,0,260.09,33.045Z" transform="translate(-238.552 0)"/><path class="b" d="M34.9,96.214v22.492a3.063,3.063,0,0,1-3.067,3.067H3.067A3.063,3.063,0,0,1,0,118.706V96.214A1,1,0,0,1,.307,95.5l5.214,11.737H29.376L34.59,95.5A1,1,0,0,1,34.9,96.214Z" transform="translate(0 -60.102)"/><path class="c" d="M273.448,96.214v22.492a3.063,3.063,0,0,1-3.067,3.067H256V107.235h11.928L273.142,95.5A1,1,0,0,1,273.448,96.214Z" transform="translate(-238.552 -60.102)"/><path class="d" d="M38.784,91.307l-3.169,11.737a3.062,3.062,0,0,1-2.965,2.27H10.635a3.062,3.062,0,0,1-2.965-2.27L4.5,91.307A1,1,0,0,1,5.217,91H38.069A1,1,0,0,1,38.784,91.307Z" transform="translate(-4.194 -55.911)"/><path class="b" d="M273.142,91.307l-3.169,11.737a3.062,3.062,0,0,1-2.965,2.27H256V91h16.426A1,1,0,0,1,273.142,91.307Z" transform="translate(-238.552 -55.911)"/><path class="e" d="M190.2,256h-8.179A1.012,1.012,0,0,0,181,257.022v4.09a1.012,1.012,0,0,0,1.022,1.022H190.2a1.012,1.012,0,0,0,1.022-1.022v-4.09A1.012,1.012,0,0,0,190.2,256Z" transform="translate(-168.663 -209.665)"/><path class="f" d="M261.112,257.022v4.09a1.012,1.012,0,0,1-1.022,1.022H256V256h4.089A1.012,1.012,0,0,1,261.112,257.022Z" transform="translate(-238.552 -209.665)"/></g></svg>