<svg xmlns="http://www.w3.org/2000/svg" width="82.841" height="72.809" viewBox="0 0 82.841 72.809"><defs><style>.a{isolation:isolate;}.b{fill:#5a5a5a;}.c{fill:#444;}.d{fill:#6e6e6e;}.e{fill:#ffd400;}.f{fill:#fdbf00;}</style></defs><g class="a" transform="translate(0 -31)"><path class="b" d="M184.978,38.281v4.854a2.4,2.4,0,0,1-2.427,2.427h-2.427V38.281a2.4,2.4,0,0,0-2.427-2.427H158.281a2.4,2.4,0,0,0-2.427,2.427v7.281h-2.427A2.4,2.4,0,0,1,151,43.135V38.281A7.271,7.271,0,0,1,158.281,31H177.7A7.271,7.271,0,0,1,184.978,38.281Z" transform="translate(-126.568 0)"/><path class="c" d="M265.708,35.854H256V31h9.708a7.271,7.271,0,0,1,7.281,7.281v4.854a2.4,2.4,0,0,1-2.427,2.427h-2.427V38.281A2.4,2.4,0,0,0,265.708,35.854Z" transform="translate(-214.58 0)"/><path class="b" d="M82.841,97.2v53.394a7.271,7.271,0,0,1-7.281,7.281H7.281A7.271,7.271,0,0,1,0,150.591V97.2a2.383,2.383,0,0,1,.728-1.7L13.106,123.36H69.735L82.113,95.5A2.384,2.384,0,0,1,82.841,97.2Z" transform="translate(0 -54.062)"/><path class="c" d="M297.421,97.2v53.394a7.271,7.271,0,0,1-7.281,7.281H256V123.36h28.315L296.692,95.5A2.384,2.384,0,0,1,297.421,97.2Z" transform="translate(-214.58 -54.062)"/><path class="d" d="M85.885,91.728,78.362,119.59a7.27,7.27,0,0,1-7.038,5.388H19.063a7.27,7.27,0,0,1-7.038-5.388L4.5,91.728A2.383,2.383,0,0,1,6.2,91H84.187A2.383,2.383,0,0,1,85.885,91.728Z" transform="translate(-3.773 -50.292)"/><path class="b" d="M296.692,91.728l-7.524,27.862a7.269,7.269,0,0,1-7.038,5.388H256V91h38.994A2.383,2.383,0,0,1,296.692,91.728Z" transform="translate(-214.58 -50.292)"/><path class="e" d="M202.843,256H183.427A2.4,2.4,0,0,0,181,258.427v9.708a2.4,2.4,0,0,0,2.427,2.427h19.416a2.4,2.4,0,0,0,2.427-2.427v-9.708A2.4,2.4,0,0,0,202.843,256Z" transform="translate(-151.715 -188.595)"/><path class="f" d="M268.135,258.427v9.708a2.4,2.4,0,0,1-2.427,2.427H256V256h9.708A2.4,2.4,0,0,1,268.135,258.427Z" transform="translate(-214.58 -188.595)"/></g></svg>