<svg xmlns="http://www.w3.org/2000/svg" width="29.844" height="39.373" viewBox="0 0 29.844 39.373"><defs><style>.a{fill:#e4ebf0;}.b{fill:#c59bcb;}.c{fill:#a244af;}.d{fill:#ff65a8;}.e{fill:#ff4093;}.f{fill:#bbc3ca;}.g{fill:#852d91;}.h{fill:#6d2277;}.i{fill:#ffcebe;}.j{fill:#ffb1a0;}.k{fill:#bebcc9;}.l{fill:#fff;}.m{fill:#dfebfa;}</style></defs><g transform="translate(-61.954)"><path class="a" d="M61.954,55.347V88.941a1.523,1.523,0,0,0,1.523,1.523h26.8A1.523,1.523,0,0,0,91.8,88.941V55.347Z" transform="translate(0 -51.091)"/><path class="b" d="M64.568,88.941V55.347H61.954V88.941a1.523,1.523,0,0,0,1.523,1.523h2.614A1.523,1.523,0,0,1,64.568,88.941Z" transform="translate(0 -51.091)"/><path class="c" d="M140.711,0h-24.12V4.415h25.643V1.523A1.523,1.523,0,0,0,140.711,0Z" transform="translate(-50.435)"/><path class="d" d="M66.314,0H63.477a1.523,1.523,0,0,0-1.523,1.523V4.415h4.36V0Z" transform="translate(0)"/><path class="e" d="M66.091,0H63.477a1.523,1.523,0,0,0-1.523,1.523V4.415h2.614V1.523A1.523,1.523,0,0,1,66.091,0Z" transform="translate(0)"/><g transform="translate(68.618 1.613)"><path class="f" d="M168.845,22.166H149.21a.594.594,0,1,1,0-1.188h19.635a.594.594,0,1,1,0,1.188Z" transform="translate(-148.616 -20.978)"/></g><path class="g" d="M189.591,89.013a5.531,5.531,0,0,0-3.43,9.871v-1.4a1.808,1.808,0,0,1,1.716-1.878H191.3a1.808,1.808,0,0,1,1.716,1.878v1.4a5.531,5.531,0,0,0-3.43-9.871Z" transform="translate(-112.715 -82.168)"/><g transform="translate(71.344 6.845)"><path class="h" d="M186.535,94.546a5.533,5.533,0,0,1,4.294-5.391,5.531,5.531,0,0,0-4.668,9.731v-1.4a1.954,1.954,0,0,1,.587-1.41A5.529,5.529,0,0,1,186.535,94.546Z" transform="translate(-184.059 -89.014)"/></g><circle class="i" cx="2.023" cy="2.023" r="2.023" transform="translate(74.854 9.248)"/><path class="j" d="M231.44,122.285a2.023,2.023,0,0,1,1.151-1.826,2.023,2.023,0,1,0,0,3.652A2.023,2.023,0,0,1,231.44,122.285Z" transform="translate(-154.843 -111.014)"/><path class="d" d="M215.309,172.868h-3.534a1.775,1.775,0,0,0-1.77,1.77v1.567a5.53,5.53,0,0,0,7.074,0v-1.567A1.775,1.775,0,0,0,215.309,172.868Z" transform="translate(-136.666 -159.574)"/><path class="e" d="M211.748,174.48a1.775,1.775,0,0,1,1.041-1.612h-1.014a1.775,1.775,0,0,0-1.77,1.77v1.567a5.527,5.527,0,0,0,1.743.98Z" transform="translate(-136.666 -159.574)"/><path class="g" d="M111.434,271.741h-5.879a.812.812,0,0,0-.812.812v4.6a.812.812,0,0,0,.812.812h5.879a.812.812,0,0,0,.812-.812v-4.6A.812.812,0,0,0,111.434,271.741Z" transform="translate(-39.499 -250.844)"/><path class="g" d="M111.434,387.388h-5.879a.812.812,0,0,0-.812.812v4.6a.812.812,0,0,0,.812.812h5.879a.812.812,0,0,0,.812-.812v-4.6A.812.812,0,0,0,111.434,387.388Z" transform="translate(-39.499 -357.598)"/><path class="h" d="M106.783,277.151v-4.6a.812.812,0,0,1,.812-.812h-2.04a.812.812,0,0,0-.812.812v4.6a.812.812,0,0,0,.812.812h2.04A.812.812,0,0,1,106.783,277.151Z" transform="translate(-39.499 -250.844)"/><path class="h" d="M106.783,392.8v-4.6a.812.812,0,0,1,.812-.812h-2.04a.812.812,0,0,0-.812.812v4.6a.812.812,0,0,0,.812.812h2.04A.812.812,0,0,1,106.783,392.8Z" transform="translate(-39.499 -357.598)"/><g transform="translate(74.946 21.069)"><path class="k" d="M243.9,275.161H231.5a.594.594,0,1,1,0-1.188h12.4a.594.594,0,0,1,0,1.188Z" transform="translate(-230.905 -273.973)"/></g><g transform="translate(74.946 23.414)"><path class="l" d="M243.9,305.654H231.5a.594.594,0,1,1,0-1.188h12.4a.594.594,0,0,1,0,1.188Z" transform="translate(-230.905 -304.466)"/></g><g transform="translate(74.946 25.759)"><path class="l" d="M243.9,336.148H231.5a.594.594,0,1,1,0-1.188h12.4a.594.594,0,0,1,0,1.188Z" transform="translate(-230.905 -334.96)"/></g><g transform="translate(74.946 29.962)"><path class="k" d="M243.9,390.808H231.5a.594.594,0,0,1,0-1.188h12.4a.594.594,0,0,1,0,1.188Z" transform="translate(-230.905 -389.62)"/></g><g transform="translate(74.946 32.307)"><path class="l" d="M243.9,421.3H231.5a.594.594,0,0,1,0-1.188h12.4a.594.594,0,0,1,0,1.188Z" transform="translate(-230.905 -420.113)"/></g><g transform="translate(74.946 34.652)"><path class="l" d="M243.9,451.8H231.5a.594.594,0,1,1,0-1.188h12.4a.594.594,0,0,1,0,1.188Z" transform="translate(-230.905 -450.607)"/></g><g transform="translate(67.205 22.695)"><path class="m" d="M131.788,297.746a.592.592,0,0,1-.42-.174l-.956-.956a.594.594,0,1,1,.84-.84l.536.536,1.017-1.017a.594.594,0,1,1,.84.84l-1.437,1.437A.592.592,0,0,1,131.788,297.746Z" transform="translate(-130.238 -295.12)"/></g><g transform="translate(67.205 31.588)"><path class="m" d="M131.788,413.393a.592.592,0,0,1-.42-.174l-.956-.956a.594.594,0,1,1,.84-.84l.536.536,1.017-1.017a.594.594,0,0,1,.84.84l-1.437,1.437A.592.592,0,0,1,131.788,413.393Z" transform="translate(-130.238 -410.767)"/></g></g></svg>