<svg xmlns="http://www.w3.org/2000/svg" width="28.772" height="28.772" viewBox="0 0 28.772 28.772">
  <g id="rad" transform="translate(0.05 0.05)">
    <path id="Path_3515" data-name="Path 3515" d="M400.483,448h0a.48.48,0,1,0,.483.482.48.48,0,0,0-.483-.482Z" transform="translate(-377.063 -422.196)" fill="#852d91" stroke="#852d91" stroke-width="0.1"/>
    <path id="Path_3516" data-name="Path 3516" d="M400.483,416h0a.48.48,0,1,0,.483.482A.48.48,0,0,0,400.478,416Z" transform="translate(-377.063 -392.107)" fill="#852d91" stroke="#852d91" stroke-width="0.1"/>
    <path id="Path_3517" data-name="Path 3517" d="M400.483,384h0a.48.48,0,1,0,.483.481A.48.48,0,0,0,400.478,384Z" transform="translate(-377.063 -362.018)" fill="#852d91" stroke="#852d91" stroke-width="0.1"/>
    <path id="Path_3518" data-name="Path 3518" d="M400.483,352h0a.48.48,0,1,0,.483.481A.48.48,0,0,0,400.478,352Z" transform="translate(-377.063 -331.93)" fill="#852d91" stroke="#852d91" stroke-width="0.1"/>
    <path id="Path_3519" data-name="Path 3519" d="M400.483,320h0a.48.48,0,1,0,.483.481A.48.48,0,0,0,400.478,320Z" transform="translate(-377.063 -301.841)" fill="#852d91" stroke="#852d91" stroke-width="0.1"/>
    <path id="Path_3520" data-name="Path 3520" d="M400.483,288h0a.48.48,0,1,0,.483.481A.48.48,0,0,0,400.478,288Z" transform="translate(-377.063 -271.753)" fill="#852d91" stroke="#852d91" stroke-width="0.1"/>
    <path id="Path_3521" data-name="Path 3521" d="M400.483,256h0a.48.48,0,1,0,.483.481A.48.48,0,0,0,400.478,256Z" transform="translate(-377.063 -241.664)" fill="#852d91" stroke="#852d91" stroke-width="0.1"/>
    <path id="Path_3522" data-name="Path 3522" d="M400.483,224h0a.48.48,0,1,0,.483.481A.48.48,0,0,0,400.478,224Z" transform="translate(-377.063 -211.576)" fill="#852d91" stroke="#852d91" stroke-width="0.1"/>
    <path id="Path_3523" data-name="Path 3523" d="M400.483,64h0a.48.48,0,1,0,.483.481A.48.48,0,0,0,400.478,64Z" transform="translate(-377.063 -61.133)" fill="#852d91" stroke="#852d91" stroke-width="0.1"/>
    <path id="Path_3524" data-name="Path 3524" d="M400.483,192h0a.48.48,0,1,0,.483.481A.48.48,0,0,0,400.478,192Z" transform="translate(-377.063 -181.487)" fill="#852d91" stroke="#852d91" stroke-width="0.1"/>
    <path id="Path_3525" data-name="Path 3525" d="M400.483,160h0a.48.48,0,1,0,.483.481A.48.48,0,0,0,400.478,160Z" transform="translate(-377.063 -151.399)" fill="#852d91" stroke="#852d91" stroke-width="0.1"/>
    <path id="Path_3526" data-name="Path 3526" d="M400.483,128h0a.48.48,0,1,0,.483.481A.48.48,0,0,0,400.478,128Z" transform="translate(-377.063 -121.31)" fill="#852d91" stroke="#852d91" stroke-width="0.1"/>
    <path id="Path_3527" data-name="Path 3527" d="M400.483,96h0a.48.48,0,1,0,.483.481A.48.48,0,0,0,400.478,96Z" transform="translate(-377.063 -91.221)" fill="#852d91" stroke="#852d91" stroke-width="0.1"/>
    <path id="Path_3528" data-name="Path 3528" d="M435.345,44.672a.478.478,0,0,0,.478-.478V16.478a.478.478,0,0,0-.478-.478A3.349,3.349,0,0,0,432,19.345V41.327A3.349,3.349,0,0,0,435.345,44.672Zm-2.389-25.327A2.394,2.394,0,0,1,434.867,17V43.668a2.394,2.394,0,0,1-1.911-2.342Z" transform="translate(-407.151 -16)" fill="#852d91" stroke="#852d91" stroke-width="0.1"/>
    <path id="Path_3529" data-name="Path 3529" d="M77.892,194.856h-.158v-1.434h.032a13.569,13.569,0,0,1,2.859.153.478.478,0,0,0,.931-.152.7.7,0,0,0-.214-.507c-.437-.437-1.471-.454-3.578-.45h-.031a.478.478,0,0,0-.956,0h-.031c-2.109,0-3.141.013-3.578.45a.7.7,0,0,0-.214.507.478.478,0,0,0,.931.152,13.576,13.576,0,0,1,2.859-.153h.032v1.434h-.158c-2.727,0-3.954.013-4.416.474a.679.679,0,0,0-.2.482.478.478,0,0,0,.921.179,18.625,18.625,0,0,1,3.7-.179h.16v1.434h-.031c-2.109,0-3.141.013-3.578.45a.7.7,0,0,0-.214.507.478.478,0,0,0,.931.152,13.571,13.571,0,0,1,2.859-.152h.032v1.434H75.345a.478.478,0,0,0-.478.478,2.389,2.389,0,0,0,4.779,0,.478.478,0,0,0-.478-.478H77.734V198.2h.032a13.563,13.563,0,0,1,2.859.152.478.478,0,0,0,.931-.152.7.7,0,0,0-.214-.507c-.437-.436-1.471-.454-3.578-.45h-.031v-1.434h.16a18.645,18.645,0,0,1,3.7.179.478.478,0,0,0,.921-.179.679.679,0,0,0-.2-.482C81.846,194.869,80.621,194.852,77.892,194.856Zm.716,5.735a1.434,1.434,0,0,1-2.7,0Z" transform="translate(-68.655 -181.477)" fill="#852d91" stroke="#852d91" stroke-width="0.1"/>
    <path id="Path_3530" data-name="Path 3530" d="M16.478,38.937H20.3V42.76a1.911,1.911,0,1,0,3.823,0V38.937h.956V42.76a1.911,1.911,0,1,0,3.823,0V38.937h3.823a.478.478,0,0,0,.478-.478V25.079a.478.478,0,0,0-.478-.478H31.257a3.35,3.35,0,0,0-3.31-2.867H26.368a4.336,4.336,0,0,0,.324-.441,4.791,4.791,0,0,0,.776-2.426,2.867,2.867,0,1,0-5.734,0,4.791,4.791,0,0,0,.776,2.426,4.336,4.336,0,0,0,.324.441H21.256a3.35,3.35,0,0,0-3.31,2.867H16.478a.478.478,0,0,0-.478.478v13.38A.478.478,0,0,0,16.478,38.937Zm6.69,3.823a.956.956,0,1,1-1.911,0V38.937h1.911Zm4.779,0a.956.956,0,1,1-1.911,0V38.937h1.911ZM22.69,18.867a1.911,1.911,0,1,1,3.823,0c0,1.184-.989,2.867-1.911,2.867S22.69,20.052,22.69,18.867ZM21.256,22.69h6.69A2.393,2.393,0,0,1,30.288,24.6H18.915A2.393,2.393,0,0,1,21.256,22.69Zm-4.3,2.867H32.247V37.982H16.956Z" transform="translate(-16 -16)" fill="#852d91" stroke="#852d91" stroke-width="0.1"/>
    <path id="Path_3531" data-name="Path 3531" d="M233.557,87.415V64.478a.478.478,0,0,0-.478-.478h-8.6a.478.478,0,1,0,0,.956H232.6V86.937h-5.256a.478.478,0,1,0,0,.956h5.734A.478.478,0,0,0,233.557,87.415Z" transform="translate(-211.576 -61.133)" fill="#852d91" stroke="#852d91" stroke-width="0.1"/>
  </g>
</svg>
