<svg xmlns="http://www.w3.org/2000/svg" width="42.232" height="17.973" viewBox="0 0 42.232 17.973"><defs><style>.a{isolation:isolate;}.b{fill:#ffd664;}.c{fill:#f9c646;}.d{fill:#636363;}.e{fill:#80362d;}.f{fill:#494949;}</style></defs><g class="a" transform="translate(-0.836 0)"><path class="b" d="M365.439,12.4a2.315,2.315,0,0,0-1.488-2.161V.827a.827.827,0,0,0-1.654,0v9.417a2.313,2.313,0,0,0,0,4.321v2.58a.827.827,0,0,0,1.654,0v-2.58A2.314,2.314,0,0,0,365.439,12.4Zm0,0" transform="translate(-322.538 0)"/><path class="c" d="M366.838,96.66a2.313,2.313,0,0,1-3.159,3.159,2.314,2.314,0,1,0,3.159-3.159Zm0,0" transform="translate(-325.1 -86.262)"/><path class="d" d="M54.217,0H13.639a.827.827,0,0,0,0,1.654H20.7v10.53H47.16V1.654h7.057a.827.827,0,1,0,0-1.654Zm0,0" transform="translate(-11.977 0)"/><path class="e" d="M305.457,113.266h2.867v4.411h-2.867Zm0,0" transform="translate(-273.14 -101.082)"/><path class="f" d="M110.471,7.687v6.947a2.205,2.205,0,0,1-2.205,2.205H86.1v2.205h26.464V7.688Zm0,0" transform="translate(-77.382 -6.861)"/><path class="e" d="M86.1,113.266h2.867v4.411H86.1Zm0,0" transform="translate(-77.382 -101.082)"/></g></svg>